<svg xmlns="http://www.w3.org/2000/svg" width="20" height="17.152" viewBox="0 0 20 17.152">
  <g id="_211858_map_icon" data-name="211858_map_icon" transform="translate(-11.45 -43.425)">
    <path id="Path_7881" data-name="Path 7881" d="M83.4,230.7Z" transform="translate(-63.1 -177.549)" fill="#fff"/>
    <path id="Path_7882" data-name="Path 7882" d="M104,204.1Z" transform="translate(-83.7 -150.949)" fill="#fff"/>
    <path id="Path_7883" data-name="Path 7883" d="M296.3,255.5Z" transform="translate(-276 -202.349)" fill="#fff"/>
    <path id="Path_7884" data-name="Path 7884" d="M182.6,234.2Z" transform="translate(-162.3 -181.049)" fill="#fff"/>
    <g id="Group_4049" data-name="Group 4049">
      <path id="Path_7880" data-name="Path 7880" d="M32.313,67.218l4.675-3.139a.6.6,0,0,1,.674,0L42,66.99l4.336-2.911a.6.6,0,0,1,.674,0l4.675,3.139a.75.75,0,0,1,.317.625V80.39a.757.757,0,0,1-.33.639.6.6,0,0,1-.661-.009l-4.336-2.911L42.337,81.02a.6.6,0,0,1-.674,0l-4.34-2.911L32.987,81.02a.62.62,0,0,1-.335.107.6.6,0,0,1-.321-.094.752.752,0,0,1-.33-.639V67.847A.737.737,0,0,1,32.313,67.218ZM47.4,76.89l3.17,2.206V68.3L47.4,66.1Zm-1.429-.018V71.406c-.045.031-.089.058-.129.089l-.415-.58a4.809,4.809,0,0,1,.545-.335V66.075l-3.26,2.188v4.854a3.431,3.431,0,0,0,.732-.353l.38.607a4.047,4.047,0,0,1-.924.438l-.188-.572v5.818Zm-4.689,2.184V73.992h-.022c-.129-.009-.259-.022-.38-.04l.112-.706c.094.013.192.027.295.031V68.263l-3.26-2.188V71.4l.237-.214c.134.147.259.295.384.433.08.094.161.183.237.272l-.255.226-.28.248c-.08-.089-.161-.183-.241-.277-.027-.031-.054-.063-.085-.094v4.876Zm-7.859,0,3.17-2.161V70.768a2.566,2.566,0,0,0-.5-.161l.143-.7A3.509,3.509,0,0,1,36.6,70V66.093l-3.17,2.166v10.8Z" transform="translate(-20.55 -20.55)" fill="#fff"/>
      <path id="Path_7885" data-name="Path 7885" d="M398,188.6l-.546-.551-.546.551-.6-.6.551-.546-.551-.546.6-.6.546.551L398,186.3l.6.6-.551.546.551.546Z" transform="translate(-369 -138.449)" fill="#fff"/>
    </g>
  </g>
</svg>
