<svg xmlns="http://www.w3.org/2000/svg" width="338.691" height="222.973" viewBox="0 0 338.691 222.973">
  <g id="deactivate_account" data-name="deactivate account" transform="translate(-0.011 0)">
    <path id="Path_527" data-name="Path 527" d="M335.054,227.412q-.585,3.079-1.4,6.094c-.059.233-.125.463-.192.7h-7.593a2.442,2.442,0,0,0-2.439,2.439v21.646c-.23.429-.463.854-.7,1.279-1.206,2.2-2.46,4.366-3.742,6.509a247.45,247.45,0,0,1-84.914,84.865l2.063-4.655-2.272-.157C217.4,345,200.879,343.756,184.8,340.055c-16.82-3.871-33.273-10.586-46.456-21.719s-22.851-27.04-24.193-44.246a50.484,50.484,0,0,1,1.767-17.565c3.091-10.983,9.844-20.865,19.586-26.712,15.3-9.182,35.267-7.311,51.4.328s29.26,20.273,42.079,32.692A162.525,162.525,0,0,0,176.4,207.944c-7.164-4.586-14.767-8.669-20.858-14.611s-10.579-14.262-9.5-22.7c1.223-9.568,9.06-16.83,16.91-22.43,3.136-2.237,6.373-4.359,9.711-6.31,9.419-5.519,19.607-9.683,30.367-11.227,14.576-2.094,30.319,1.084,41.494,10.673,12.589,10.805,17.754,28.232,17.262,44.9,7.756-11.276,19.719-19.907,33.228-20.273,14.025-.376,27.357,8.485,34.382,20.632S337.678,213.63,335.054,227.412Z" transform="translate(-113.998 -130.052)" fill="#e6e6e6"/>
    <path id="Path_528" data-name="Path 528" d="M492.633,350.807c8.215-.723,15.8-1.569,23.763-3.821,7.716-2.183,15.141-5.838,20.633-11.806,5.908-6.419,9.1-14.755,11.347-23.054,1.255-4.627,2.285-9.318,3.258-14.011q1.583-7.638,2.813-15.343,2.449-15.338,3.5-30.857.126-1.884.232-3.769c.044-.775-1.162-.773-1.206,0q-.861,15.3-3.1,30.475c-1.471,9.941-3.352,19.84-5.74,29.6-2.023,8.271-4.641,16.671-9.828,23.556-4.864,6.456-11.89,10.676-19.476,13.2-7.719,2.567-15.858,3.592-23.924,4.354-.99.093-1.283.183-2.273.27-.767.068-.774,1.274,0,1.206Z" transform="translate(-360.313 -206.617)" fill="#fff"/>
    <path id="Path_529" data-name="Path 529" d="M120.4,493.3a130.673,130.673,0,0,1,30.559,5.385,132.065,132.065,0,0,1,28.46,12.388,128.845,128.845,0,0,1,23.966,18.045,132.023,132.023,0,0,1,18.721,22.323,130.7,130.7,0,0,1,13.4,25.971q.637,1.676,1.227,3.37c.254.728,1.419.415,1.163-.321a131.94,131.94,0,0,0-12.8-26.617,133.658,133.658,0,0,0-18.364-23.134A130.309,130.309,0,0,0,183.292,512,133.079,133.079,0,0,0,124.2,492.36q-1.9-.159-3.8-.262c-.775-.042-.773,1.163,0,1.206Z" transform="translate(-117.786 -365.942)" fill="#fff"/>
    <path id="Path_530" data-name="Path 530" d="M282.482,165.863a71.014,71.014,0,0,1,18.643,9.11,87.55,87.55,0,0,1,15.914,14.133,117.164,117.164,0,0,1,13.178,18.162,154.943,154.943,0,0,1,10.478,21.3,192.754,192.754,0,0,1,7.63,23.17A217.84,217.84,0,0,1,355.3,300.3a192.861,192.861,0,0,1-.69,23.355,148.76,148.76,0,0,1-3.506,21.5,101.592,101.592,0,0,1-6.326,18.592q-.94,2.035-1.994,4.014c-.365.685.676,1.294,1.041.609a92.933,92.933,0,0,0,7.12-17.921,138.779,138.779,0,0,0,4.246-21.081,183.415,183.415,0,0,0,1.4-23.308,213.87,213.87,0,0,0-1.459-24.492,220.607,220.607,0,0,0-4.248-24.472,199.7,199.7,0,0,0-7.1-23.834,165.838,165.838,0,0,0-9.876-21.933,127.147,127.147,0,0,0-12.663-19.113,94.286,94.286,0,0,0-15.47-15.33,74.807,74.807,0,0,0-18.142-10.465q-2.386-.95-4.837-1.717c-.742-.233-1.059.93-.321,1.163Z" transform="translate(-223.492 -152.607)" fill="#fff"/>
    <ellipse id="Ellipse_163" data-name="Ellipse 163" cx="86.242" cy="3.485" rx="86.242" ry="3.485" transform="translate(44.262 216.004)" fill="#e6e6e6"/>
    <path id="Path_531" data-name="Path 531" d="M664.971,441.461a3.656,3.656,0,0,0-.083.572l-14.969,8.635-3.638-2.095-3.879,5.078,7.783,5.548,17.077-13.472a3.657,3.657,0,1,0-2.291-4.266Z" transform="translate(-458.271 -331.111)" fill="#ffb8b8"/>
    <path id="Path_532" data-name="Path 532" d="M605.694,446.191l11.786,8.4,5.271-6.609-11.457-9.193a4.643,4.643,0,0,0-6.687.927h0a4.643,4.643,0,0,0,1.086,6.476Z" transform="translate(-433.085 -330.543)" fill="#9676ff"/>
    <path id="Path_533" data-name="Path 533" d="M425.519,577.153l4.133,1.083,6.143-15.424-6.1-1.6Z" transform="translate(-277.239 -365.658)" fill="#ffb8b8"/>
    <path id="Path_534" data-name="Path 534" d="M0,0H13.426V5.187H5.187A5.187,5.187,0,0,1,0,0H0Z" transform="matrix(-0.967, -0.253, 0.253, -0.967, 159.377, 218.504)" fill="#2f2e41"/>
    <path id="Path_535" data-name="Path 535" d="M525.524,583l4.205-.751-.9-16.578-6.207,1.109Z" transform="translate(-340.51 -368.56)" fill="#ffb8b8"/>
    <path id="Path_536" data-name="Path 536" d="M0,0H13.426V5.187H5.187A5.187,5.187,0,0,1,0,0H0Z" transform="translate(198.026 216.143) rotate(169.872)" fill="#2f2e41"/>
    <path id="Path_537" data-name="Path 537" d="M607.454,393.6a4.013,4.013,0,0,1,2.386,2.531,17.651,17.651,0,0,1,.942,3.977c.4,2.529.78,5.266-.043,7.608-.964,2.745-3.534,4.182-5.763,3.507s-4-3.212-4.607-6.131a14.848,14.848,0,0,1,1.019-8.741,7.108,7.108,0,0,1,2.666-3.422,2.631,2.631,0,0,1,3.508.731" transform="translate(-430.72 -301.082)" fill="#2f2e41"/>
    <path id="Path_538" data-name="Path 538" d="M572.521,526.948l8.006,71.709-6.612,2.511-12.2-48.086L544.74,597.049l-7.238.4s9.931-68.412,17.291-69.967Z" transform="translate(-389.924 -388.649)" fill="#2f2e41"/>
    <circle id="Ellipse_164" data-name="Ellipse 164" cx="8.558" cy="8.558" r="8.558" transform="translate(167.314 84.552)" fill="#ffb8b8"/>
    <path id="Path_539" data-name="Path 539" d="M599.545,429.872l-9.248-1.206s-6.032,7.238-5.63,19.7-1.005,16.285-1.005,16.285l19.283.348C600.157,461.17,611.817,439.156,599.545,429.872Z" transform="translate(-419.999 -324.614)" fill="#9676ff"/>
    <path id="Path_540" data-name="Path 540" d="M604.889,502.084a3.661,3.661,0,0,0-.575.05l-11.832-12.6,1.206-4.021-5.831-2.614-3.619,8.846L601.26,505.29a3.657,3.657,0,1,0,3.628-3.207Z" transform="translate(-420.375 -359.952)" fill="#ffb8b8"/>
    <path id="Path_541" data-name="Path 541" d="M596.065,440.794l-5.48,13.4,7.64,3.619,6.327-13.257a4.643,4.643,0,0,0-2.432-6.3h0A4.643,4.643,0,0,0,596.065,440.794Z" transform="translate(-424.51 -330.635)" fill="#9676ff"/>
    <path id="Path_542" data-name="Path 542" d="M586.688,385.326c1.341-.774,1.484-2.64,1.3-4.177s-.487-3.251.417-4.508c1.078-1.5,3.245-1.53,5.092-1.579s4.1-.59,4.575-2.375a3.181,3.181,0,0,0-1.331-3.185,9.343,9.343,0,0,0-3.366-1.379c-2.641-.7-5.368-1.4-8.072-1.015a10.292,10.292,0,0,0-8.768,11.492c.438,3.433,1.073,4.931.656,6.445-.776,2.819-4.122,4.63-4.189,7.553-.052,2.287,1.968,4.05,3.938,5.211a13.219,13.219,0,0,0,5.051,1.918,6.44,6.44,0,0,0,5.082-1.418,6.85,6.85,0,0,0,1.662-6.492,19.866,19.866,0,0,0-3.029-6.289" transform="translate(-413.054 -284.436)" fill="#2f2e41"/>
    <path id="Path_543" data-name="Path 543" d="M839.836,426.948h-123.7A3.141,3.141,0,0,0,713,430.084v79.447a3.141,3.141,0,0,0,3.136,3.136h123.7a3.141,3.141,0,0,0,3.136-3.136V430.084A3.141,3.141,0,0,0,839.836,426.948Zm2.439,82.583a2.442,2.442,0,0,1-2.439,2.439h-123.7a2.442,2.442,0,0,1-2.439-2.439V430.084a2.442,2.442,0,0,1,2.439-2.439h123.7a2.442,2.442,0,0,1,2.439,2.439Z" transform="translate(-504.27 -323.494)" fill="#3f3d56"/>
    <path id="Path_544" data-name="Path 544" d="M755.752,492.88H736.239a2.965,2.965,0,0,1-2.962-2.962V470.4a2.965,2.965,0,0,1,2.962-2.962h19.513a2.965,2.965,0,0,1,2.962,2.962v19.513A2.966,2.966,0,0,1,755.752,492.88Z" transform="translate(-517.481 -349.879)" fill="#9676ff"/>
    <path id="Path_545" data-name="Path 545" d="M847.084,591.483H736.278a2.265,2.265,0,1,1,0-4.53H847.085a2.265,2.265,0,1,1,0,4.53Z" transform="translate(-517.961 -427.745)" fill="#ccc"/>
    <path id="Path_546" data-name="Path 546" d="M847.3,559.983H736.495a2.265,2.265,0,0,1,0-4.53H847.3a2.265,2.265,0,0,1,0,4.53Z" transform="translate(-518.102 -407.221)" fill="#ccc"/>
    <path id="Path_547" data-name="Path 547" d="M866.869,516.973H850.492a2.265,2.265,0,1,1,0-4.53h16.377a2.265,2.265,0,1,1,0,4.53Z" transform="translate(-592.377 -379.198)" fill="#ccc"/>
    <path id="Path_548" data-name="Path 548" d="M921.579,484.983H850.495a2.265,2.265,0,0,1,0-4.53h71.084a2.265,2.265,0,1,1,0,4.53Z" transform="translate(-592.379 -358.355)" fill="#ccc"/>
    <path id="Path_549" data-name="Path 549" d="M789.666,623.483H736.278a2.265,2.265,0,1,1,0-4.53h53.388a2.265,2.265,0,1,1,0,4.53Z" transform="translate(-517.961 -448.595)" fill="#ccc"/>
  </g>
</svg>
