<svg xmlns="http://www.w3.org/2000/svg" xmlns:xlink="http://www.w3.org/1999/xlink" width="311" height="220" viewBox="0 0 311 220">
  <defs>
    <clipPath id="clip-path">
      <path id="Path_434" data-name="Path 434" d="M0,0H311V220H0Z" transform="translate(32 296)" fill="#fff" stroke="#707070" stroke-width="1"/>
    </clipPath>
  </defs>
  <g id="Mask_Group_32" data-name="Mask Group 32" transform="translate(-32 -296)" clip-path="url(#clip-path)">
    <g id="no_saved_places" data-name="no saved places" transform="translate(51.443 296)">
      <ellipse id="Ellipse_147" data-name="Ellipse 147" cx="13.897" cy="28.356" rx="13.897" ry="28.356" transform="translate(197.646 125.794)" fill="#3f3d56"/>
      <path id="Path_439" data-name="Path 439" d="M246.114,219.5c5.566-33.394.056-66.668,0-67l-1.083.183c.056.33,5.534,33.429,0,66.636Z" transform="translate(-35.855 -18.934)" fill="#9676ff"/>
      <rect id="Rectangle_1152" data-name="Rectangle 1152" width="1.098" height="14.251" transform="translate(198.788 149.021) rotate(-61.858)" fill="#9676ff"/>
      <rect id="Rectangle_1153" data-name="Rectangle 1153" width="14.252" height="1.098" transform="matrix(0.882, -0.472, 0.472, 0.882, 212.053, 158.146)" fill="#9676ff"/>
      <ellipse id="Ellipse_148" data-name="Ellipse 148" cx="27.181" cy="55.46" rx="27.181" ry="55.46" transform="translate(217.752 53.813)" fill="#e6e6e6"/>
      <path id="Path_440" data-name="Path 440" d="M277.761,218.9c10.872-65.229.11-130.221,0-130.87l-1.083.183c.11.647,10.84,65.464,0,130.506Z" transform="translate(-35.855 -18.934)" fill="#9676ff"/>
      <rect id="Rectangle_1154" data-name="Rectangle 1154" width="1.098" height="27.875" transform="translate(220.236 98.779) rotate(-61.858)" fill="#9676ff"/>
      <rect id="Rectangle_1155" data-name="Rectangle 1155" width="27.875" height="1.098" transform="matrix(0.882, -0.472, 0.472, 0.882, 246.18, 117.548)" fill="#9676ff"/>
      <ellipse id="Ellipse_149" data-name="Ellipse 149" cx="37.195" cy="75.893" rx="37.195" ry="75.893" transform="translate(143.362 0)" fill="#e6e6e6"/>
      <path id="Path_441" data-name="Path 441" d="M212.07,218.9c14.872-89.228.15-178.13,0-179.018l-1.083.183c.15.886,14.84,89.613,0,178.654Z" transform="translate(-35.855 -18.934)" fill="#9676ff"/>
      <rect id="Rectangle_1156" data-name="Rectangle 1156" width="1.098" height="38.144" transform="translate(146.857 61.354) rotate(-61.858)" fill="#9676ff"/>
      <rect id="Rectangle_1157" data-name="Rectangle 1157" width="38.144" height="1.098" transform="translate(182.36 87.398) rotate(-28.156)" fill="#9676ff"/>
      <path id="Path_442" data-name="Path 442" d="M260.88,200.63H0v-.625H260.993Z" fill="#3f3d56"/>
      <path id="Path_443" data-name="Path 443" d="M80.552,212.6h-6.3c-3.3,0-6.243.233-8.187,1.483a10.6,10.6,0,0,0-9.291-5.494h-6.3a10.6,10.6,0,0,0-10.6,10.6H91.154C91.154,213.333,86.407,212.6,80.552,212.6Z" transform="translate(-35.855 -18.934)" fill="#3f3d56"/>
      <path id="Path_444" data-name="Path 444" d="M252.468,219.5h26.925c-.136-5.023-3.9-6.017-10.311-6.017h-6.3C256.366,213.481,252.6,214.475,252.468,219.5Z" transform="translate(-35.855 -18.934)" fill="#3f3d56"/>
      <path id="Path_445" data-name="Path 445" d="M91.215,144.956h4.011v6.017a2.006,2.006,0,0,1-2.006,2.006h0a2.006,2.006,0,0,1-2.006-2.006v-6.017Z" transform="translate(35.337 -44.312) rotate(24.836)" fill="#ffb9b9"/>
      <path id="Path_446" data-name="Path 446" d="M92.895,49.232h0a14.613,14.613,0,0,1,14.613,14.612V80.177H78.282V63.845A14.613,14.613,0,0,1,92.895,49.232Z" fill="#2f2e41"/>
      <path id="Path_447" data-name="Path 447" d="M82.007,203.1l-3.152-.573-2.292-12.607,6.447.141Z" fill="#ffb9b9"/>
      <path id="Path_448" data-name="Path 448" d="M116.819,210.4l-3.232,1.494-5.157-14.9,5.524-.921Z" fill="#ffb9b9"/>
      <path id="Path_449" data-name="Path 449" d="M151.242,215.868l-8.452.432-23.065-55.73-.629,50.189-8.11-1.049c-5.718-31.234-10.449-58.98-3.008-76.36l25.214,2.006Z" transform="translate(-35.855 -18.934)" fill="#2f2e41"/>
      <path id="Path_450" data-name="Path 450" d="M112.8,230.813l-3.28-.177a.848.848,0,0,1-.693-1.263l4.992-8.857,4.384.365.677,3.158a3.2,3.2,0,0,1-1.156,3.191l-2.15,1.684a2.762,2.762,0,0,1-2.774,1.9Z" transform="translate(-35.855 -18.934)" fill="#2f2e41"/>
      <path id="Path_451" data-name="Path 451" d="M157.484,237.9l-2.833.974a1.151,1.151,0,0,1-1.118-.211L148.6,234.48a3.054,3.054,0,0,1-.944-3.227l.619-2.013,4.695-.909,5.1,7.85a1.151,1.151,0,0,1-.591,1.715Z" transform="translate(-35.855 -18.934)" fill="#2f2e41"/>
      <circle id="Ellipse_150" data-name="Ellipse 150" cx="9.742" cy="9.742" r="9.742" transform="translate(81.147 52.671)" fill="#ffb9b9"/>
      <path id="Path_452" data-name="Path 452" d="M100.774,76.882,89.313,78.887l-1.146-9.169,8.882-1.146Z" fill="#ffb9b9"/>
      <path id="Path_453" data-name="Path 453" d="M136.629,138.507l-29.512-2.865c1.447-15.745,6.3-29.632,16.332-40.686l14.326-1.146Z" transform="translate(-35.855 -18.934)" fill="#3f3d56"/>
      <path id="Path_454" data-name="Path 454" d="M61.377,128.314l-6.017-2.006,10.383-20.992L81.291,80.033l6.3-4.011L73.647,107.277Z" fill="#3f3d56"/>
      <path id="Path_455" data-name="Path 455" d="M97.479,59.261,79.715,62.7l2.865-8.882,10.315-2.292,8.023,2.865Z" fill="#2f2e41"/>
      <circle id="Ellipse_151" data-name="Ellipse 151" cx="26.844" cy="26.844" r="26.844" transform="translate(33.922 77.696)" fill="#9676ff"/>
      <path id="Path_456" data-name="Path 456" d="M91.808,135.212l-16.241-4.247-16.241-4.247,11.8-11.941,11.8-11.942,4.442,16.189Z" fill="#9676ff"/>
      <circle id="Ellipse_152" data-name="Ellipse 152" cx="9.631" cy="9.631" r="9.631" transform="translate(51.168 94.637)" fill="#fff"/>
      <path id="Path_457" data-name="Path 457" d="M123.305,151.545h4.011v6.017a2.006,2.006,0,0,1-2.006,2.006h0a2.006,2.006,0,0,1-2.006-2.006Z" transform="translate(41.072 -57.181) rotate(24.836)" fill="#ffb9b9"/>
      <path id="Path_458" data-name="Path 458" d="M129.036,154.7l-5.157-3.152,2.7-18.408,11.192-37.9,2.126.813a9.144,9.144,0,0,1,5.592,10.811l-7.253,28.3Z" transform="translate(-35.855 -18.934)" fill="#3f3d56"/>
    </g>
  </g>
</svg>
