<svg xmlns="http://www.w3.org/2000/svg" width="313.313" height="166.5" viewBox="0 0 313.313 166.5">
  <g id="undraw_Account_re_o7id" transform="translate(-0.002)">
    <path id="Path_141" data-name="Path 141" d="M718.951,396.912H544.493a2.03,2.03,0,0,1-2.028-2.028V232.87a2.03,2.03,0,0,1,2.028-2.028H718.951a2.03,2.03,0,0,1,2.028,2.028V394.884a2.03,2.03,0,0,1-2.028,2.028ZM544.493,231.651a1.218,1.218,0,0,0-1.216,1.216V394.884a1.218,1.218,0,0,0,1.216,1.216H718.951a1.218,1.218,0,0,0,1.216-1.216V232.87a1.218,1.218,0,0,0-1.216-1.216Z" transform="translate(-407.664 -230.842)" fill="#e6e6e6"/>
    <path id="Path_142" data-name="Path 142" d="M762.564,341.671a1.377,1.377,0,0,0,0,2.753H838.1a1.377,1.377,0,0,0,0-2.753Z" transform="translate(-543.301 -299.571)" fill="#e6e6e6"/>
    <path id="Path_143" data-name="Path 143" d="M762.564,363.417a1.377,1.377,0,0,0,0,2.753h38.564a1.377,1.377,0,0,0,0-2.753Z" transform="translate(-543.301 -313.056)" fill="#e6e6e6"/>
    <path id="Path_142-2" data-name="Path 142" d="M588.757,468.671a1.377,1.377,0,1,0,0,2.753H730.391a1.377,1.377,0,1,0,0-2.753Z" transform="translate(-435.517 -378.328)" fill="#e6e6e6"/>
    <path id="Path_143-2" data-name="Path 143" d="M588.757,490.417a1.377,1.377,0,1,0,0,2.753h104.66a1.377,1.377,0,1,0,0-2.753Z" transform="translate(-435.517 -391.814)" fill="#e6e6e6"/>
    <path id="Path_142-3" data-name="Path 142" d="M588.757,511.671a1.377,1.377,0,1,0,0,2.753H730.391a1.377,1.377,0,1,0,0-2.753Z" transform="translate(-435.517 -404.994)" fill="#e6e6e6"/>
    <path id="Path_143-3" data-name="Path 143" d="M588.757,533.417a1.377,1.377,0,1,0,0,2.753h104.66a1.377,1.377,0,0,0,0-2.753Z" transform="translate(-435.517 -418.48)" fill="#e6e6e6"/>
    <path id="Path_154" data-name="Path 154" d="M532.479,332.953h-109.5a2.03,2.03,0,0,1-2.028-2.028V282.87a2.03,2.03,0,0,1,2.028-2.028h109.5a2.03,2.03,0,0,1,2.028,2.028v48.055A2.03,2.03,0,0,1,532.479,332.953Z" transform="translate(-332.307 -261.849)" fill="#9676ff"/>
    <path id="Path_154-2" data-name="Path 154" d="M890.484,600.548H848.977a2.03,2.03,0,0,1-2.028-2.028v-6.65a2.03,2.03,0,0,1,2.028-2.028h41.507a2.03,2.03,0,0,1,2.028,2.028v6.65a2.03,2.03,0,0,1-2.028,2.028Z" transform="translate(-596.486 -453.471)" fill="#9676ff"/>
    <path id="Path_566" data-name="Path 566" d="M311.133,377.112a4.215,4.215,0,0,1-1.173-5.573,3.481,3.481,0,0,1,.383-.479l.114-35.5,5.277.985.232,34.917a4.142,4.142,0,0,1,.471,4.914,3.634,3.634,0,0,1-5.3.736Z" transform="translate(-263.104 -295.78)" fill="#ffb8b8"/>
    <path id="Path_567" data-name="Path 567" d="M198.682,389.043h5.44l2.588-20.984h-8.03Z" transform="translate(-123.21 -228.246)" fill="#ffb8b8"/>
    <path id="Path_568" data-name="Path 568" d="M382.626,649.466h10.715a6.828,6.828,0,0,1,6.828,6.827v.222H382.626Z" transform="translate(-308.542 -490.446)" fill="#2f2e41"/>
    <path id="Path_569" data-name="Path 569" d="M65.5,389.043h5.441l2.588-20.984H65.5Z" transform="translate(-40.622 -228.246)" fill="#ffb8b8"/>
    <path id="Path_570" data-name="Path 570" d="M249.449,649.466h10.715a6.828,6.828,0,0,1,6.828,6.827v.222H249.449Z" transform="translate(-225.954 -490.446)" fill="#2f2e41"/>
    <path id="Path_571" data-name="Path 571" d="M299.927,489.15l-.456-2.736a2.169,2.169,0,0,1-1.128-.9,4.157,4.157,0,0,1-.232-3.237l-3.671-31-19.164-19.884-12.294,29.654-4.867,23.466v3.39l-9.717,1.248.442-3.2a1.861,1.861,0,0,1-.882-.786c-.558-.929-.551-2.37.023-4.28l.025-.083-.032-.285c-.022-.2.124-19.367,5.822-28.864l5.7-28.828c-.148-.406-.88-2.77.462-6.765,1.324-3.942,5.028-10.294,15.151-18.162l.035-.027.043-.009c.112-.023,11.278-2.243,17.052,5.308l.039.051v.064c0,.467-.01,11.331-.869,13.742l13.7,25.2c.267.283,2.662,3.049,1.811,10.323l2.214,24.793c.253.484,2.545,5.037.019,6.84l.453,3.13Z" transform="translate(-224.773 -334.215)" fill="#2f2e41"/>
    <path id="Path_572" data-name="Path 572" d="M311.831,332.519a8.589,8.589,0,0,1-8.085-5.1l-.041-.082,5.156-10.93a5.993,5.993,0,0,1,10.951,4.864l-4.458,10.687-.078.029a11.147,11.147,0,0,1-3.445.532Z" transform="translate(-259.6 -281.769)" fill="#9676ff"/>
    <path id="Path_573" data-name="Path 573" d="M336.161,355.3l-16.255-7.676,2.234-27.26,4.073-4.979.789-.169a20.772,20.772,0,0,1,10.914.6l.077.026,6.691,14.274c.042.071,4.867,8.59-1.8,13.082Z" transform="translate(-269.646 -282.881)" fill="#9676ff"/>
    <path id="Path_574" data-name="Path 574" d="M380.559,378.478a4,4,0,0,0-.56.287L362.87,370.93l-.439-4.555-6.961-.235-.006,8.139a3.038,3.038,0,0,0,2.186,2.919l20.569,6.011a3.987,3.987,0,1,0,2.34-4.731Z" transform="translate(-291.697 -314.745)" fill="#ffb8b8"/>
    <path id="Path_575" data-name="Path 575" d="M356.03,339a8.667,8.667,0,0,1-6.269-2.789l-.065-.065,1.429-12a5.993,5.993,0,0,1,11.928,1.145l-.843,11.548-.065.052A10.9,10.9,0,0,1,356.03,339Z" transform="translate(-288.121 -285.423)" fill="#9676ff"/>
    <circle id="Ellipse_168" data-name="Ellipse 168" cx="10.899" cy="10.899" r="10.899" transform="translate(48.777 22.118) rotate(-61.337)" fill="#ffb8b8"/>
    <path id="Path_576" data-name="Path 576" d="M272.992,246.682a9.226,9.226,0,0,0-6.074-6.82,13.152,13.152,0,0,0-9.346.509,15.521,15.521,0,0,0-1.437.691A6.656,6.656,0,0,0,250,237.947c-2.917.155-5.551,1.7-8.084,3.153s-5.252,2.9-8.172,2.834c-5.277-.122-9.2-5.015-14.278-6.469A11.419,11.419,0,0,0,206.9,254.894c2.165-3.88,7.25-5.191,11.662-4.663s8.524,2.462,12.847,3.492,9.329.986,12.677-1.935c1.9-1.657,3.014-4.026,4.668-5.928a7.7,7.7,0,0,1,4.337-2.629,13.163,13.163,0,0,0-3.563,5.284,10.972,10.972,0,0,0,2.1,11c2.9,3.054,7.454,3.868,11.666,3.819l.088-.09c-1.29-1.93-2.307-4.607-.888-6.444,1.4-1.813,4.166-1.546,6.313-2.348A7.148,7.148,0,0,0,272.992,246.682Z" transform="translate(-198.33 -234.675)" fill="#2f2e41"/>
    <path id="Path_577" data-name="Path 577" d="M291.678,667.918h-103.7a.38.38,0,0,1,0-.76h103.7a.38.38,0,0,1,0,.76Z" transform="translate(-187.596 -501.418)" fill="#ccc"/>
    <path id="Path_155" data-name="Path 155" d="M556.083,325.212c-.476,0-.86.619-.859,1.379s.385,1.372.859,1.374h40.6c.476,0,.86-.619.859-1.379s-.385-1.372-.859-1.374Z" transform="translate(-415.576 -289.364)" fill="#fff"/>
    <path id="Path_156" data-name="Path 156" d="M556.083,346.212c-.476,0-.86.619-.859,1.379s.385,1.372.859,1.374h40.6c.476,0,.86-.619.859-1.379s-.385-1.372-.859-1.374Z" transform="translate(-415.576 -302.387)" fill="#fff"/>
    <path id="Path_157" data-name="Path 157" d="M556.083,366.958c-.476,0-.86.619-.859,1.379s.385,1.372.859,1.374h17.468c.475,0,.86-.619.859-1.379s-.385-1.372-.859-1.374Z" transform="translate(-415.576 -315.252)" fill="#fff"/>
    <circle id="Ellipse_169" data-name="Ellipse 169" cx="11.016" cy="11.016" r="11.016" transform="translate(108.879 34.033)" fill="#fff"/>
  </g>
</svg>
