<svg xmlns="http://www.w3.org/2000/svg" width="307" height="308.482" viewBox="0 0 307 308.482">
  <g id="Address-cuate" transform="translate(-49 -52.82)">
    <g id="freepik--background-complete--inject-251" transform="translate(49 52.82)">
      <path id="Path_7736" data-name="Path 7736" d="M379.386,73.921h-77.9s7.721-21.1,19.611-21.1,15.6,14.563,15.6,14.563,8.019-7.912,14.609-7.912,12.318,10.455,12.318,10.455S372.94,64.306,379.386,73.921Z" transform="translate(-108.668 -52.82)" fill="#ebebeb"/>
      <path id="Path_7737" data-name="Path 7737" d="M439.742,106.284H403.36S411.486,94.5,417.908,94.5s8.3,7.858,8.3,7.858,4.521-3.673,8.714-3.055S439.742,106.284,439.742,106.284Z" transform="translate(-132.742 -62.67)" fill="#ebebeb" opacity="0.5"/>
      <path id="Path_7738" data-name="Path 7738" d="M343.085,163.694h-36.4s8.133-11.784,14.548-11.784,8.3,7.851,8.3,7.851,4.521-3.666,8.714-3.009S343.085,163.694,343.085,163.694Z" transform="translate(-109.895 -76.237)" fill="#ebebeb" opacity="0.5"/>
      <path id="Path_7739" data-name="Path 7739" d="M119.885,172.039H49s9.683-21.681,20.07-23.063,15.358,16.106,15.358,16.106,6.705-6.171,11.975-6.171,9.332,8.126,9.332,8.126S116.273,161.5,119.885,172.039Z" transform="translate(-49 -75.525)" fill="#ebebeb"/>
      <path id="Path_7740" data-name="Path 7740" d="M169.406,90.837H121.5s8.232-15.709,17.183-15.938S152.276,86.79,152.276,86.79,166.175,75.647,169.406,90.837Z" transform="translate(-66.133 -58.037)" fill="#ebebeb" opacity="0.5"/>
      <rect id="Rectangle_2733" data-name="Rectangle 2733" width="28.47" height="149.254" transform="translate(151.766 107.526)" fill="#dbdbdb"/>
      <rect id="Rectangle_2734" data-name="Rectangle 2734" width="5.537" height="5.697" transform="translate(156.188 112.376)" fill="#ebebeb"/>
      <rect id="Rectangle_2735" data-name="Rectangle 2735" width="5.537" height="5.697" transform="translate(163.267 112.376)" fill="#ebebeb"/>
      <rect id="Rectangle_2736" data-name="Rectangle 2736" width="5.537" height="5.697" transform="translate(156.188 122.052)" fill="#ebebeb"/>
      <rect id="Rectangle_2737" data-name="Rectangle 2737" width="5.537" height="5.697" transform="translate(163.267 122.052)" fill="#ebebeb"/>
      <rect id="Rectangle_2738" data-name="Rectangle 2738" width="5.537" height="5.697" transform="translate(156.188 131.727)" fill="#ebebeb"/>
      <rect id="Rectangle_2739" data-name="Rectangle 2739" width="5.537" height="5.697" transform="translate(163.267 131.727)" fill="#ebebeb"/>
      <rect id="Rectangle_2740" data-name="Rectangle 2740" width="5.537" height="5.697" transform="translate(156.188 141.403)" fill="#ebebeb"/>
      <rect id="Rectangle_2741" data-name="Rectangle 2741" width="5.537" height="5.697" transform="translate(163.267 141.403)" fill="#ebebeb"/>
      <rect id="Rectangle_2742" data-name="Rectangle 2742" width="5.537" height="5.697" transform="translate(156.188 151.079)" fill="#ebebeb"/>
      <rect id="Rectangle_2743" data-name="Rectangle 2743" width="5.537" height="5.697" transform="translate(163.267 151.079)" fill="#ebebeb"/>
      <rect id="Rectangle_2744" data-name="Rectangle 2744" width="5.537" height="5.697" transform="translate(156.188 160.755)" fill="#ebebeb"/>
      <rect id="Rectangle_2745" data-name="Rectangle 2745" width="5.537" height="5.697" transform="translate(163.267 160.755)" fill="#ebebeb"/>
      <rect id="Rectangle_2746" data-name="Rectangle 2746" width="5.537" height="5.697" transform="translate(156.188 170.431)" fill="#ebebeb"/>
      <rect id="Rectangle_2747" data-name="Rectangle 2747" width="5.537" height="5.697" transform="translate(163.267 170.431)" fill="#ebebeb"/>
      <rect id="Rectangle_2748" data-name="Rectangle 2748" width="5.537" height="5.697" transform="translate(156.188 180.107)" fill="#ebebeb"/>
      <rect id="Rectangle_2749" data-name="Rectangle 2749" width="5.537" height="5.697" transform="translate(163.267 180.107)" fill="#ebebeb"/>
      <rect id="Rectangle_2750" data-name="Rectangle 2750" width="5.537" height="5.697" transform="translate(156.188 189.783)" fill="#ebebeb"/>
      <rect id="Rectangle_2751" data-name="Rectangle 2751" width="5.537" height="5.697" transform="translate(163.267 189.783)" fill="#ebebeb"/>
      <rect id="Rectangle_2752" data-name="Rectangle 2752" width="5.537" height="5.697" transform="translate(156.188 199.458)" fill="#ebebeb"/>
      <rect id="Rectangle_2753" data-name="Rectangle 2753" width="5.537" height="5.697" transform="translate(163.267 199.458)" fill="#ebebeb"/>
      <rect id="Rectangle_2754" data-name="Rectangle 2754" width="5.537" height="5.697" transform="translate(156.188 209.134)" fill="#ebebeb"/>
      <rect id="Rectangle_2755" data-name="Rectangle 2755" width="5.537" height="5.697" transform="translate(163.267 209.134)" fill="#ebebeb"/>
      <rect id="Rectangle_2756" data-name="Rectangle 2756" width="5.537" height="5.697" transform="translate(156.188 218.81)" fill="#ebebeb"/>
      <rect id="Rectangle_2757" data-name="Rectangle 2757" width="5.537" height="5.697" transform="translate(163.267 218.81)" fill="#ebebeb"/>
      <rect id="Rectangle_2758" data-name="Rectangle 2758" width="5.537" height="5.697" transform="translate(156.188 228.486)" fill="#ebebeb"/>
      <rect id="Rectangle_2759" data-name="Rectangle 2759" width="5.537" height="5.697" transform="translate(163.267 228.486)" fill="#ebebeb"/>
      <rect id="Rectangle_2760" data-name="Rectangle 2760" width="5.537" height="5.697" transform="translate(156.188 238.162)" fill="#ebebeb"/>
      <rect id="Rectangle_2761" data-name="Rectangle 2761" width="5.537" height="5.697" transform="translate(175.815 243.851) rotate(180)" fill="#ebebeb"/>
      <rect id="Rectangle_2762" data-name="Rectangle 2762" width="5.537" height="5.697" transform="translate(175.815 234.175) rotate(180)" fill="#ebebeb"/>
      <rect id="Rectangle_2763" data-name="Rectangle 2763" width="5.537" height="5.697" transform="translate(175.815 224.499) rotate(180)" fill="#ebebeb"/>
      <rect id="Rectangle_2764" data-name="Rectangle 2764" width="5.537" height="5.697" transform="translate(175.815 214.831) rotate(180)" fill="#ebebeb"/>
      <rect id="Rectangle_2765" data-name="Rectangle 2765" width="5.537" height="5.697" transform="translate(175.815 205.155) rotate(180)" fill="#ebebeb"/>
      <rect id="Rectangle_2766" data-name="Rectangle 2766" width="5.537" height="5.697" transform="translate(175.815 195.48) rotate(180)" fill="#ebebeb"/>
      <rect id="Rectangle_2767" data-name="Rectangle 2767" width="5.537" height="5.697" transform="translate(175.815 185.804) rotate(180)" fill="#ebebeb"/>
      <rect id="Rectangle_2768" data-name="Rectangle 2768" width="5.537" height="5.697" transform="translate(175.815 176.128) rotate(180)" fill="#ebebeb"/>
      <rect id="Rectangle_2769" data-name="Rectangle 2769" width="5.537" height="5.697" transform="translate(175.815 166.452) rotate(180)" fill="#ebebeb"/>
      <rect id="Rectangle_2770" data-name="Rectangle 2770" width="5.537" height="5.697" transform="translate(175.815 156.776) rotate(180)" fill="#ebebeb"/>
      <rect id="Rectangle_2771" data-name="Rectangle 2771" width="5.537" height="5.697" transform="translate(175.815 147.1) rotate(180)" fill="#ebebeb"/>
      <rect id="Rectangle_2772" data-name="Rectangle 2772" width="5.537" height="5.697" transform="translate(175.815 137.424) rotate(180)" fill="#ebebeb"/>
      <rect id="Rectangle_2773" data-name="Rectangle 2773" width="5.537" height="5.697" transform="translate(175.815 127.749) rotate(180)" fill="#ebebeb"/>
      <rect id="Rectangle_2774" data-name="Rectangle 2774" width="5.537" height="5.697" transform="translate(175.815 118.073) rotate(180)" fill="#ebebeb"/>
      <rect id="Rectangle_2775" data-name="Rectangle 2775" width="5.537" height="5.697" transform="translate(163.267 238.162)" fill="#ebebeb"/>
      <rect id="Rectangle_2776" data-name="Rectangle 2776" width="22.452" height="149.254" transform="translate(180.236 107.526)" fill="#a6a6a6"/>
      <rect id="Rectangle_2777" data-name="Rectangle 2777" width="4.574" height="5.697" transform="translate(200.375 243.851) rotate(180)" fill="#c7c7c7"/>
      <rect id="Rectangle_2778" data-name="Rectangle 2778" width="4.567" height="5.697" transform="translate(194.525 243.851) rotate(180)" fill="#c7c7c7"/>
      <rect id="Rectangle_2779" data-name="Rectangle 2779" width="4.574" height="5.697" transform="translate(200.375 234.175) rotate(180)" fill="#c7c7c7"/>
      <rect id="Rectangle_2780" data-name="Rectangle 2780" width="4.567" height="5.697" transform="translate(194.525 234.175) rotate(180)" fill="#c7c7c7"/>
      <rect id="Rectangle_2781" data-name="Rectangle 2781" width="4.574" height="5.697" transform="translate(200.375 224.499) rotate(180)" fill="#c7c7c7"/>
      <rect id="Rectangle_2782" data-name="Rectangle 2782" width="4.567" height="5.697" transform="translate(194.525 224.499) rotate(180)" fill="#c7c7c7"/>
      <rect id="Rectangle_2783" data-name="Rectangle 2783" width="4.574" height="5.697" transform="translate(200.375 214.831) rotate(180)" fill="#c7c7c7"/>
      <rect id="Rectangle_2784" data-name="Rectangle 2784" width="4.567" height="5.697" transform="translate(194.525 214.831) rotate(180)" fill="#c7c7c7"/>
      <rect id="Rectangle_2785" data-name="Rectangle 2785" width="4.574" height="5.697" transform="translate(200.375 205.155) rotate(180)" fill="#c7c7c7"/>
      <rect id="Rectangle_2786" data-name="Rectangle 2786" width="4.567" height="5.697" transform="translate(194.525 205.155) rotate(180)" fill="#c7c7c7"/>
      <rect id="Rectangle_2787" data-name="Rectangle 2787" width="4.574" height="5.697" transform="translate(200.375 195.48) rotate(180)" fill="#c7c7c7"/>
      <rect id="Rectangle_2788" data-name="Rectangle 2788" width="4.567" height="5.697" transform="translate(194.525 195.48) rotate(180)" fill="#c7c7c7"/>
      <rect id="Rectangle_2789" data-name="Rectangle 2789" width="4.574" height="5.697" transform="translate(200.375 185.804) rotate(180)" fill="#c7c7c7"/>
      <rect id="Rectangle_2790" data-name="Rectangle 2790" width="4.567" height="5.697" transform="translate(194.525 185.804) rotate(180)" fill="#c7c7c7"/>
      <rect id="Rectangle_2791" data-name="Rectangle 2791" width="4.574" height="5.697" transform="translate(200.375 176.128) rotate(180)" fill="#c7c7c7"/>
      <rect id="Rectangle_2792" data-name="Rectangle 2792" width="4.567" height="5.697" transform="translate(194.525 176.128) rotate(180)" fill="#c7c7c7"/>
      <rect id="Rectangle_2793" data-name="Rectangle 2793" width="4.574" height="5.697" transform="translate(200.375 166.452) rotate(180)" fill="#c7c7c7"/>
      <rect id="Rectangle_2794" data-name="Rectangle 2794" width="4.567" height="5.697" transform="translate(194.525 166.452) rotate(180)" fill="#c7c7c7"/>
      <rect id="Rectangle_2795" data-name="Rectangle 2795" width="4.574" height="5.697" transform="translate(200.375 156.776) rotate(180)" fill="#c7c7c7"/>
      <rect id="Rectangle_2796" data-name="Rectangle 2796" width="4.567" height="5.697" transform="translate(194.525 156.776) rotate(180)" fill="#c7c7c7"/>
      <rect id="Rectangle_2797" data-name="Rectangle 2797" width="4.574" height="5.697" transform="translate(200.375 147.1) rotate(180)" fill="#c7c7c7"/>
      <rect id="Rectangle_2798" data-name="Rectangle 2798" width="4.567" height="5.697" transform="translate(194.525 147.1) rotate(180)" fill="#c7c7c7"/>
      <rect id="Rectangle_2799" data-name="Rectangle 2799" width="4.574" height="5.697" transform="translate(200.375 137.424) rotate(180)" fill="#c7c7c7"/>
      <rect id="Rectangle_2800" data-name="Rectangle 2800" width="4.567" height="5.697" transform="translate(194.525 137.424) rotate(180)" fill="#c7c7c7"/>
      <rect id="Rectangle_2801" data-name="Rectangle 2801" width="4.574" height="5.697" transform="translate(200.375 127.749) rotate(180)" fill="#c7c7c7"/>
      <rect id="Rectangle_2802" data-name="Rectangle 2802" width="4.567" height="5.697" transform="translate(194.525 127.749) rotate(180)" fill="#c7c7c7"/>
      <rect id="Rectangle_2803" data-name="Rectangle 2803" width="4.574" height="5.697" transform="translate(200.375 118.073) rotate(180)" fill="#c7c7c7"/>
      <rect id="Rectangle_2804" data-name="Rectangle 2804" width="4.567" height="5.697" transform="translate(184.162 112.376)" fill="#c7c7c7"/>
      <rect id="Rectangle_2805" data-name="Rectangle 2805" width="4.567" height="5.697" transform="translate(184.162 122.052)" fill="#c7c7c7"/>
      <rect id="Rectangle_2806" data-name="Rectangle 2806" width="4.567" height="5.697" transform="translate(184.162 131.727)" fill="#c7c7c7"/>
      <rect id="Rectangle_2807" data-name="Rectangle 2807" width="4.567" height="5.697" transform="translate(184.162 141.403)" fill="#c7c7c7"/>
      <rect id="Rectangle_2808" data-name="Rectangle 2808" width="4.567" height="5.697" transform="translate(184.162 151.079)" fill="#c7c7c7"/>
      <rect id="Rectangle_2809" data-name="Rectangle 2809" width="4.567" height="5.697" transform="translate(184.162 160.755)" fill="#c7c7c7"/>
      <rect id="Rectangle_2810" data-name="Rectangle 2810" width="4.567" height="5.697" transform="translate(184.162 170.431)" fill="#c7c7c7"/>
      <rect id="Rectangle_2811" data-name="Rectangle 2811" width="4.567" height="5.697" transform="translate(184.162 180.107)" fill="#c7c7c7"/>
      <rect id="Rectangle_2812" data-name="Rectangle 2812" width="4.567" height="5.697" transform="translate(184.162 189.783)" fill="#c7c7c7"/>
      <rect id="Rectangle_2813" data-name="Rectangle 2813" width="4.567" height="5.697" transform="translate(184.162 199.458)" fill="#c7c7c7"/>
      <rect id="Rectangle_2814" data-name="Rectangle 2814" width="4.567" height="5.697" transform="translate(184.162 209.134)" fill="#c7c7c7"/>
      <rect id="Rectangle_2815" data-name="Rectangle 2815" width="4.567" height="5.697" transform="translate(184.162 218.81)" fill="#c7c7c7"/>
      <rect id="Rectangle_2816" data-name="Rectangle 2816" width="4.567" height="5.697" transform="translate(184.162 228.486)" fill="#c7c7c7"/>
      <rect id="Rectangle_2817" data-name="Rectangle 2817" width="4.567" height="5.697" transform="translate(184.162 238.162)" fill="#c7c7c7"/>
      <rect id="Rectangle_2818" data-name="Rectangle 2818" width="4.567" height="5.697" transform="translate(194.525 118.073) rotate(180)" fill="#c7c7c7"/>
      <rect id="Rectangle_2819" data-name="Rectangle 2819" width="29.7" height="152.507" transform="translate(48.165 104.273)" fill="#ebebeb"/>
      <rect id="Rectangle_2820" data-name="Rectangle 2820" width="30.417" height="3.039" transform="translate(47.455 101.234)" fill="#c7c7c7"/>
      <rect id="Rectangle_2821" data-name="Rectangle 2821" width="3.009" height="148.032" transform="translate(50.854 108.748)" fill="#fff"/>
      <rect id="Rectangle_2822" data-name="Rectangle 2822" width="3.009" height="148.032" transform="translate(56.184 108.748)" fill="#fff"/>
      <rect id="Rectangle_2823" data-name="Rectangle 2823" width="3.009" height="148.032" transform="translate(61.515 108.748)" fill="#fff"/>
      <rect id="Rectangle_2824" data-name="Rectangle 2824" width="3.009" height="148.032" transform="translate(66.845 108.748)" fill="#fff"/>
      <rect id="Rectangle_2825" data-name="Rectangle 2825" width="3.009" height="148.032" transform="translate(72.176 108.748)" fill="#fff"/>
      <rect id="Rectangle_2826" data-name="Rectangle 2826" width="3.009" height="5.995" transform="translate(50.854 112.582)" fill="#ebebeb"/>
      <rect id="Rectangle_2827" data-name="Rectangle 2827" width="3.009" height="5.995" transform="translate(56.184 112.582)" fill="#ebebeb"/>
      <rect id="Rectangle_2828" data-name="Rectangle 2828" width="3.009" height="5.995" transform="translate(61.515 112.582)" fill="#ebebeb"/>
      <rect id="Rectangle_2829" data-name="Rectangle 2829" width="3.009" height="5.995" transform="translate(66.845 112.582)" fill="#ebebeb"/>
      <rect id="Rectangle_2830" data-name="Rectangle 2830" width="3.009" height="5.995" transform="translate(72.176 112.582)" fill="#ebebeb"/>
      <rect id="Rectangle_2831" data-name="Rectangle 2831" width="3.009" height="5.995" transform="translate(50.854 122.327)" fill="#ebebeb"/>
      <rect id="Rectangle_2832" data-name="Rectangle 2832" width="3.009" height="5.995" transform="translate(56.184 122.327)" fill="#ebebeb"/>
      <rect id="Rectangle_2833" data-name="Rectangle 2833" width="3.009" height="5.995" transform="translate(61.515 122.327)" fill="#ebebeb"/>
      <rect id="Rectangle_2834" data-name="Rectangle 2834" width="3.009" height="5.995" transform="translate(66.845 122.327)" fill="#ebebeb"/>
      <rect id="Rectangle_2835" data-name="Rectangle 2835" width="3.009" height="5.995" transform="translate(72.176 122.327)" fill="#ebebeb"/>
      <rect id="Rectangle_2836" data-name="Rectangle 2836" width="3.009" height="5.995" transform="translate(50.854 132.071)" fill="#ebebeb"/>
      <rect id="Rectangle_2837" data-name="Rectangle 2837" width="3.009" height="5.995" transform="translate(56.184 132.071)" fill="#ebebeb"/>
      <rect id="Rectangle_2838" data-name="Rectangle 2838" width="3.009" height="5.995" transform="translate(61.515 132.071)" fill="#ebebeb"/>
      <rect id="Rectangle_2839" data-name="Rectangle 2839" width="3.009" height="5.995" transform="translate(66.845 132.071)" fill="#ebebeb"/>
      <rect id="Rectangle_2840" data-name="Rectangle 2840" width="3.009" height="5.995" transform="translate(72.176 132.071)" fill="#ebebeb"/>
      <rect id="Rectangle_2841" data-name="Rectangle 2841" width="3.009" height="5.995" transform="translate(50.854 141.816)" fill="#ebebeb"/>
      <rect id="Rectangle_2842" data-name="Rectangle 2842" width="3.009" height="5.995" transform="translate(56.184 141.816)" fill="#ebebeb"/>
      <rect id="Rectangle_2843" data-name="Rectangle 2843" width="3.009" height="5.995" transform="translate(61.515 141.816)" fill="#ebebeb"/>
      <rect id="Rectangle_2844" data-name="Rectangle 2844" width="3.009" height="5.995" transform="translate(66.845 141.816)" fill="#ebebeb"/>
      <rect id="Rectangle_2845" data-name="Rectangle 2845" width="3.009" height="5.995" transform="translate(72.176 141.816)" fill="#ebebeb"/>
      <rect id="Rectangle_2846" data-name="Rectangle 2846" width="3.009" height="5.995" transform="translate(50.854 151.56)" fill="#ebebeb"/>
      <rect id="Rectangle_2847" data-name="Rectangle 2847" width="3.009" height="5.995" transform="translate(56.184 151.56)" fill="#ebebeb"/>
      <rect id="Rectangle_2848" data-name="Rectangle 2848" width="3.009" height="5.995" transform="translate(61.515 151.56)" fill="#ebebeb"/>
      <rect id="Rectangle_2849" data-name="Rectangle 2849" width="3.009" height="5.995" transform="translate(66.845 151.56)" fill="#ebebeb"/>
      <rect id="Rectangle_2850" data-name="Rectangle 2850" width="3.009" height="5.995" transform="translate(72.176 151.56)" fill="#ebebeb"/>
      <rect id="Rectangle_2851" data-name="Rectangle 2851" width="3.009" height="5.995" transform="translate(50.854 161.297)" fill="#ebebeb"/>
      <rect id="Rectangle_2852" data-name="Rectangle 2852" width="3.009" height="5.995" transform="translate(56.184 161.297)" fill="#ebebeb"/>
      <rect id="Rectangle_2853" data-name="Rectangle 2853" width="3.009" height="5.995" transform="translate(61.515 161.297)" fill="#ebebeb"/>
      <rect id="Rectangle_2854" data-name="Rectangle 2854" width="3.009" height="5.995" transform="translate(66.845 161.297)" fill="#ebebeb"/>
      <rect id="Rectangle_2855" data-name="Rectangle 2855" width="3.009" height="5.995" transform="translate(72.176 161.297)" fill="#ebebeb"/>
      <rect id="Rectangle_2856" data-name="Rectangle 2856" width="3.009" height="5.995" transform="translate(50.854 171.042)" fill="#ebebeb"/>
      <rect id="Rectangle_2857" data-name="Rectangle 2857" width="3.009" height="5.995" transform="translate(56.184 171.042)" fill="#ebebeb"/>
      <rect id="Rectangle_2858" data-name="Rectangle 2858" width="3.009" height="5.995" transform="translate(61.515 171.042)" fill="#ebebeb"/>
      <rect id="Rectangle_2859" data-name="Rectangle 2859" width="3.009" height="5.995" transform="translate(66.845 171.042)" fill="#ebebeb"/>
      <rect id="Rectangle_2860" data-name="Rectangle 2860" width="3.009" height="5.995" transform="translate(72.176 171.042)" fill="#ebebeb"/>
      <rect id="Rectangle_2861" data-name="Rectangle 2861" width="3.009" height="5.995" transform="translate(50.854 180.786)" fill="#ebebeb"/>
      <rect id="Rectangle_2862" data-name="Rectangle 2862" width="3.009" height="5.995" transform="translate(56.184 180.786)" fill="#ebebeb"/>
      <rect id="Rectangle_2863" data-name="Rectangle 2863" width="3.009" height="5.995" transform="translate(61.515 180.786)" fill="#ebebeb"/>
      <rect id="Rectangle_2864" data-name="Rectangle 2864" width="3.009" height="5.995" transform="translate(66.845 180.786)" fill="#ebebeb"/>
      <rect id="Rectangle_2865" data-name="Rectangle 2865" width="3.009" height="5.995" transform="translate(72.176 180.786)" fill="#ebebeb"/>
      <rect id="Rectangle_2866" data-name="Rectangle 2866" width="3.009" height="5.995" transform="translate(50.854 190.531)" fill="#ebebeb"/>
      <rect id="Rectangle_2867" data-name="Rectangle 2867" width="3.009" height="5.995" transform="translate(56.184 190.531)" fill="#ebebeb"/>
      <rect id="Rectangle_2868" data-name="Rectangle 2868" width="3.009" height="5.995" transform="translate(61.515 190.531)" fill="#ebebeb"/>
      <rect id="Rectangle_2869" data-name="Rectangle 2869" width="3.009" height="5.995" transform="translate(66.845 190.531)" fill="#ebebeb"/>
      <rect id="Rectangle_2870" data-name="Rectangle 2870" width="3.009" height="5.995" transform="translate(72.176 190.531)" fill="#ebebeb"/>
      <rect id="Rectangle_2871" data-name="Rectangle 2871" width="3.009" height="5.995" transform="translate(50.854 200.276)" fill="#ebebeb"/>
      <rect id="Rectangle_2872" data-name="Rectangle 2872" width="3.009" height="5.995" transform="translate(56.184 200.276)" fill="#ebebeb"/>
      <rect id="Rectangle_2873" data-name="Rectangle 2873" width="3.009" height="5.995" transform="translate(61.515 200.276)" fill="#ebebeb"/>
      <rect id="Rectangle_2874" data-name="Rectangle 2874" width="3.009" height="5.995" transform="translate(66.845 200.276)" fill="#ebebeb"/>
      <rect id="Rectangle_2875" data-name="Rectangle 2875" width="3.009" height="5.995" transform="translate(72.176 200.276)" fill="#ebebeb"/>
      <rect id="Rectangle_2876" data-name="Rectangle 2876" width="3.009" height="5.995" transform="translate(50.854 210.02)" fill="#ebebeb"/>
      <rect id="Rectangle_2877" data-name="Rectangle 2877" width="3.009" height="5.995" transform="translate(56.184 210.02)" fill="#ebebeb"/>
      <rect id="Rectangle_2878" data-name="Rectangle 2878" width="3.009" height="5.995" transform="translate(61.515 210.02)" fill="#ebebeb"/>
      <rect id="Rectangle_2879" data-name="Rectangle 2879" width="3.009" height="5.995" transform="translate(66.845 210.02)" fill="#ebebeb"/>
      <rect id="Rectangle_2880" data-name="Rectangle 2880" width="3.009" height="5.995" transform="translate(72.176 210.02)" fill="#ebebeb"/>
      <rect id="Rectangle_2881" data-name="Rectangle 2881" width="3.009" height="5.995" transform="translate(50.854 219.757)" fill="#ebebeb"/>
      <rect id="Rectangle_2882" data-name="Rectangle 2882" width="3.009" height="5.995" transform="translate(56.184 219.757)" fill="#ebebeb"/>
      <rect id="Rectangle_2883" data-name="Rectangle 2883" width="3.009" height="5.995" transform="translate(61.515 219.757)" fill="#ebebeb"/>
      <rect id="Rectangle_2884" data-name="Rectangle 2884" width="3.009" height="5.995" transform="translate(66.845 219.757)" fill="#ebebeb"/>
      <rect id="Rectangle_2885" data-name="Rectangle 2885" width="3.009" height="5.995" transform="translate(72.176 219.757)" fill="#ebebeb"/>
      <rect id="Rectangle_2886" data-name="Rectangle 2886" width="3.009" height="5.995" transform="translate(50.854 229.502)" fill="#ebebeb"/>
      <rect id="Rectangle_2887" data-name="Rectangle 2887" width="3.009" height="5.995" transform="translate(56.184 229.502)" fill="#ebebeb"/>
      <rect id="Rectangle_2888" data-name="Rectangle 2888" width="3.009" height="5.995" transform="translate(61.515 229.502)" fill="#ebebeb"/>
      <rect id="Rectangle_2889" data-name="Rectangle 2889" width="3.009" height="5.995" transform="translate(66.845 229.502)" fill="#ebebeb"/>
      <rect id="Rectangle_2890" data-name="Rectangle 2890" width="3.009" height="5.995" transform="translate(72.176 229.502)" fill="#ebebeb"/>
      <rect id="Rectangle_2891" data-name="Rectangle 2891" width="3.009" height="17.534" transform="translate(50.854 239.246)" fill="#ebebeb"/>
      <rect id="Rectangle_2892" data-name="Rectangle 2892" width="3.009" height="17.534" transform="translate(56.184 239.246)" fill="#ebebeb"/>
      <rect id="Rectangle_2893" data-name="Rectangle 2893" width="3.009" height="17.534" transform="translate(61.515 239.246)" fill="#ebebeb"/>
      <rect id="Rectangle_2894" data-name="Rectangle 2894" width="3.009" height="17.534" transform="translate(66.845 239.246)" fill="#ebebeb"/>
      <rect id="Rectangle_2895" data-name="Rectangle 2895" width="3.009" height="17.534" transform="translate(72.176 239.246)" fill="#ebebeb"/>
      <rect id="Rectangle_2896" data-name="Rectangle 2896" width="19.069" height="152.507" transform="translate(77.873 104.273)" fill="#dbdbdb"/>
      <rect id="Rectangle_2897" data-name="Rectangle 2897" width="19.894" height="3.039" transform="translate(77.873 101.234)" fill="#c7c7c7"/>
      <rect id="Rectangle_2898" data-name="Rectangle 2898" width="3.009" height="148.032" transform="translate(80.553 108.748)" fill="#c7c7c7"/>
      <rect id="Rectangle_2899" data-name="Rectangle 2899" width="3.009" height="148.032" transform="translate(85.884 108.748)" fill="#c7c7c7"/>
      <rect id="Rectangle_2900" data-name="Rectangle 2900" width="3.009" height="148.032" transform="translate(91.214 108.748)" fill="#c7c7c7"/>
      <rect id="Rectangle_2901" data-name="Rectangle 2901" width="3.009" height="5.995" transform="translate(80.553 112.582)" fill="#dbdbdb"/>
      <rect id="Rectangle_2902" data-name="Rectangle 2902" width="3.009" height="5.995" transform="translate(85.884 112.582)" fill="#dbdbdb"/>
      <rect id="Rectangle_2903" data-name="Rectangle 2903" width="3.009" height="5.995" transform="translate(91.214 112.582)" fill="#dbdbdb"/>
      <rect id="Rectangle_2904" data-name="Rectangle 2904" width="3.009" height="5.995" transform="translate(80.553 122.327)" fill="#dbdbdb"/>
      <rect id="Rectangle_2905" data-name="Rectangle 2905" width="3.009" height="5.995" transform="translate(85.884 122.327)" fill="#dbdbdb"/>
      <rect id="Rectangle_2906" data-name="Rectangle 2906" width="3.009" height="5.995" transform="translate(91.214 122.327)" fill="#dbdbdb"/>
      <rect id="Rectangle_2907" data-name="Rectangle 2907" width="3.009" height="5.995" transform="translate(80.553 132.071)" fill="#dbdbdb"/>
      <rect id="Rectangle_2908" data-name="Rectangle 2908" width="3.009" height="5.995" transform="translate(85.884 132.071)" fill="#dbdbdb"/>
      <rect id="Rectangle_2909" data-name="Rectangle 2909" width="3.009" height="5.995" transform="translate(91.214 132.071)" fill="#dbdbdb"/>
      <rect id="Rectangle_2910" data-name="Rectangle 2910" width="3.009" height="5.995" transform="translate(80.553 141.816)" fill="#dbdbdb"/>
      <rect id="Rectangle_2911" data-name="Rectangle 2911" width="3.009" height="5.995" transform="translate(85.884 141.816)" fill="#dbdbdb"/>
      <rect id="Rectangle_2912" data-name="Rectangle 2912" width="3.009" height="5.995" transform="translate(91.214 141.816)" fill="#dbdbdb"/>
      <rect id="Rectangle_2913" data-name="Rectangle 2913" width="3.009" height="5.995" transform="translate(80.553 151.56)" fill="#dbdbdb"/>
      <rect id="Rectangle_2914" data-name="Rectangle 2914" width="3.009" height="5.995" transform="translate(85.884 151.56)" fill="#dbdbdb"/>
      <rect id="Rectangle_2915" data-name="Rectangle 2915" width="3.009" height="5.995" transform="translate(91.214 151.56)" fill="#dbdbdb"/>
      <rect id="Rectangle_2916" data-name="Rectangle 2916" width="3.009" height="5.995" transform="translate(80.553 161.297)" fill="#dbdbdb"/>
      <rect id="Rectangle_2917" data-name="Rectangle 2917" width="3.009" height="5.995" transform="translate(85.884 161.297)" fill="#dbdbdb"/>
      <rect id="Rectangle_2918" data-name="Rectangle 2918" width="3.009" height="5.995" transform="translate(91.214 161.297)" fill="#dbdbdb"/>
      <rect id="Rectangle_2919" data-name="Rectangle 2919" width="3.009" height="5.995" transform="translate(80.553 171.042)" fill="#dbdbdb"/>
      <rect id="Rectangle_2920" data-name="Rectangle 2920" width="3.009" height="5.995" transform="translate(85.884 171.042)" fill="#dbdbdb"/>
      <rect id="Rectangle_2921" data-name="Rectangle 2921" width="3.009" height="5.995" transform="translate(91.214 171.042)" fill="#dbdbdb"/>
      <rect id="Rectangle_2922" data-name="Rectangle 2922" width="3.009" height="5.995" transform="translate(80.553 180.786)" fill="#dbdbdb"/>
      <rect id="Rectangle_2923" data-name="Rectangle 2923" width="3.009" height="5.995" transform="translate(85.884 180.786)" fill="#dbdbdb"/>
      <rect id="Rectangle_2924" data-name="Rectangle 2924" width="3.009" height="5.995" transform="translate(91.214 180.786)" fill="#dbdbdb"/>
      <rect id="Rectangle_2925" data-name="Rectangle 2925" width="3.009" height="5.995" transform="translate(80.553 190.531)" fill="#dbdbdb"/>
      <rect id="Rectangle_2926" data-name="Rectangle 2926" width="3.009" height="5.995" transform="translate(85.884 190.531)" fill="#dbdbdb"/>
      <rect id="Rectangle_2927" data-name="Rectangle 2927" width="3.009" height="5.995" transform="translate(91.214 190.531)" fill="#dbdbdb"/>
      <rect id="Rectangle_2928" data-name="Rectangle 2928" width="3.009" height="5.995" transform="translate(80.553 200.276)" fill="#dbdbdb"/>
      <rect id="Rectangle_2929" data-name="Rectangle 2929" width="3.009" height="5.995" transform="translate(85.884 200.276)" fill="#dbdbdb"/>
      <rect id="Rectangle_2930" data-name="Rectangle 2930" width="3.009" height="5.995" transform="translate(91.214 200.276)" fill="#dbdbdb"/>
      <rect id="Rectangle_2931" data-name="Rectangle 2931" width="3.009" height="5.995" transform="translate(80.553 210.02)" fill="#dbdbdb"/>
      <rect id="Rectangle_2932" data-name="Rectangle 2932" width="3.009" height="5.995" transform="translate(85.884 210.02)" fill="#dbdbdb"/>
      <rect id="Rectangle_2933" data-name="Rectangle 2933" width="3.009" height="5.995" transform="translate(91.214 210.02)" fill="#dbdbdb"/>
      <rect id="Rectangle_2934" data-name="Rectangle 2934" width="3.009" height="5.995" transform="translate(80.553 219.757)" fill="#dbdbdb"/>
      <rect id="Rectangle_2935" data-name="Rectangle 2935" width="3.009" height="5.995" transform="translate(85.884 219.757)" fill="#dbdbdb"/>
      <rect id="Rectangle_2936" data-name="Rectangle 2936" width="3.009" height="5.995" transform="translate(91.214 219.757)" fill="#dbdbdb"/>
      <rect id="Rectangle_2937" data-name="Rectangle 2937" width="3.009" height="5.995" transform="translate(80.553 229.502)" fill="#dbdbdb"/>
      <rect id="Rectangle_2938" data-name="Rectangle 2938" width="3.009" height="5.995" transform="translate(85.884 229.502)" fill="#dbdbdb"/>
      <rect id="Rectangle_2939" data-name="Rectangle 2939" width="3.009" height="5.995" transform="translate(91.214 229.502)" fill="#dbdbdb"/>
      <rect id="Rectangle_2940" data-name="Rectangle 2940" width="3.009" height="17.534" transform="translate(80.553 239.246)" fill="#dbdbdb"/>
      <rect id="Rectangle_2941" data-name="Rectangle 2941" width="3.009" height="17.534" transform="translate(85.884 239.246)" fill="#dbdbdb"/>
      <rect id="Rectangle_2942" data-name="Rectangle 2942" width="3.009" height="17.534" transform="translate(91.214 239.246)" fill="#dbdbdb"/>
      <rect id="Rectangle_2943" data-name="Rectangle 2943" width="28.172" height="106.831" transform="translate(6.598 149.949)" fill="#ebebeb"/>
      <rect id="Rectangle_2944" data-name="Rectangle 2944" width="24.163" height="7.087" transform="translate(10.608 142.862)" fill="#c7c7c7"/>
      <rect id="Rectangle_2945" data-name="Rectangle 2945" width="21.994" height="79.866" transform="translate(9.683 153.645)" fill="#dbdbdb"/>
      <rect id="Rectangle_2946" data-name="Rectangle 2946" width="21.994" height="1.886" transform="translate(9.683 161.267)" fill="#fff"/>
      <rect id="Rectangle_2947" data-name="Rectangle 2947" width="21.994" height="1.886" transform="translate(9.683 169.087)" fill="#fff"/>
      <rect id="Rectangle_2948" data-name="Rectangle 2948" width="21.994" height="1.886" transform="translate(9.683 176.899)" fill="#fff"/>
      <rect id="Rectangle_2949" data-name="Rectangle 2949" width="21.994" height="1.886" transform="translate(9.683 184.719)" fill="#fff"/>
      <rect id="Rectangle_2950" data-name="Rectangle 2950" width="21.994" height="1.886" transform="translate(9.683 192.539)" fill="#fff"/>
      <rect id="Rectangle_2951" data-name="Rectangle 2951" width="21.994" height="1.886" transform="translate(9.683 200.352)" fill="#fff"/>
      <rect id="Rectangle_2952" data-name="Rectangle 2952" width="21.994" height="1.886" transform="translate(9.683 208.172)" fill="#fff"/>
      <rect id="Rectangle_2953" data-name="Rectangle 2953" width="21.994" height="1.886" transform="translate(9.683 215.992)" fill="#fff"/>
      <rect id="Rectangle_2954" data-name="Rectangle 2954" width="21.994" height="1.886" transform="translate(9.683 223.805)" fill="#fff"/>
      <rect id="Rectangle_2955" data-name="Rectangle 2955" width="21.994" height="1.886" transform="translate(9.683 231.625)" fill="#fff"/>
      <rect id="Rectangle_2956" data-name="Rectangle 2956" width="17.641" height="106.831" transform="translate(34.77 149.949)" fill="#dbdbdb"/>
      <rect id="Rectangle_2957" data-name="Rectangle 2957" width="14.999" height="7.087" transform="translate(34.77 142.862)" fill="#a6a6a6"/>
      <rect id="Rectangle_2958" data-name="Rectangle 2958" width="13.563" height="79.866" transform="translate(37.199 153.645)" fill="#c7c7c7"/>
      <rect id="Rectangle_2959" data-name="Rectangle 2959" width="13.563" height="1.886" transform="translate(37.199 161.267)" fill="#fff"/>
      <rect id="Rectangle_2960" data-name="Rectangle 2960" width="13.563" height="1.886" transform="translate(37.199 169.087)" fill="#fff"/>
      <rect id="Rectangle_2961" data-name="Rectangle 2961" width="13.563" height="1.886" transform="translate(37.199 176.899)" fill="#fff"/>
      <rect id="Rectangle_2962" data-name="Rectangle 2962" width="13.563" height="1.886" transform="translate(37.199 184.719)" fill="#fff"/>
      <rect id="Rectangle_2963" data-name="Rectangle 2963" width="13.563" height="1.886" transform="translate(37.199 192.539)" fill="#fff"/>
      <rect id="Rectangle_2964" data-name="Rectangle 2964" width="13.563" height="1.886" transform="translate(37.199 200.352)" fill="#fff"/>
      <rect id="Rectangle_2965" data-name="Rectangle 2965" width="13.563" height="1.886" transform="translate(37.199 208.172)" fill="#fff"/>
      <rect id="Rectangle_2966" data-name="Rectangle 2966" width="13.563" height="1.886" transform="translate(37.199 215.992)" fill="#fff"/>
      <rect id="Rectangle_2967" data-name="Rectangle 2967" width="13.563" height="1.886" transform="translate(37.199 223.805)" fill="#fff"/>
      <rect id="Rectangle_2968" data-name="Rectangle 2968" width="13.563" height="1.886" transform="translate(37.199 231.625)" fill="#fff"/>
      <rect id="Rectangle_2969" data-name="Rectangle 2969" width="15.045" height="17.771" transform="translate(258.308 151.751)" fill="#dbdbdb"/>
      <rect id="Rectangle_2970" data-name="Rectangle 2970" width="9.538" height="18.428" transform="translate(273.352 151.751)" fill="#c7c7c7"/>
      <rect id="Rectangle_2971" data-name="Rectangle 2971" width="9.47" height="10.577" transform="translate(274.055 159.594)" fill="#dbdbdb"/>
      <rect id="Rectangle_2972" data-name="Rectangle 2972" width="5.903" height="10.577" transform="translate(283.524 159.594)" fill="#c7c7c7"/>
      <rect id="Rectangle_2973" data-name="Rectangle 2973" width="24.331" height="88.419" transform="translate(252.534 168.369)" fill="#ebebeb"/>
      <rect id="Rectangle_2974" data-name="Rectangle 2974" width="7.652" height="3.123" transform="translate(255.314 172.164)" fill="#fff"/>
      <rect id="Rectangle_2975" data-name="Rectangle 2975" width="7.652" height="3.123" transform="translate(265.104 172.164)" fill="#fff"/>
      <rect id="Rectangle_2976" data-name="Rectangle 2976" width="7.652" height="3.123" transform="translate(255.314 177.472)" fill="#fff"/>
      <rect id="Rectangle_2977" data-name="Rectangle 2977" width="7.652" height="3.123" transform="translate(265.104 177.472)" fill="#fff"/>
      <rect id="Rectangle_2978" data-name="Rectangle 2978" width="7.652" height="3.123" transform="translate(255.314 182.78)" fill="#fff"/>
      <rect id="Rectangle_2979" data-name="Rectangle 2979" width="7.652" height="3.123" transform="translate(265.104 182.78)" fill="#fff"/>
      <rect id="Rectangle_2980" data-name="Rectangle 2980" width="7.652" height="3.123" transform="translate(255.314 188.087)" fill="#fff"/>
      <rect id="Rectangle_2981" data-name="Rectangle 2981" width="7.652" height="3.123" transform="translate(265.104 188.087)" fill="#fff"/>
      <rect id="Rectangle_2982" data-name="Rectangle 2982" width="7.652" height="3.123" transform="translate(255.314 193.395)" fill="#fff"/>
      <rect id="Rectangle_2983" data-name="Rectangle 2983" width="7.652" height="3.123" transform="translate(265.104 193.395)" fill="#fff"/>
      <rect id="Rectangle_2984" data-name="Rectangle 2984" width="7.652" height="3.123" transform="translate(255.314 198.702)" fill="#fff"/>
      <rect id="Rectangle_2985" data-name="Rectangle 2985" width="7.652" height="3.123" transform="translate(265.104 198.702)" fill="#fff"/>
      <rect id="Rectangle_2986" data-name="Rectangle 2986" width="7.652" height="3.123" transform="translate(255.314 204.01)" fill="#fff"/>
      <rect id="Rectangle_2987" data-name="Rectangle 2987" width="7.652" height="3.123" transform="translate(265.104 204.01)" fill="#fff"/>
      <rect id="Rectangle_2988" data-name="Rectangle 2988" width="7.652" height="3.123" transform="translate(255.314 209.318)" fill="#fff"/>
      <rect id="Rectangle_2989" data-name="Rectangle 2989" width="7.652" height="3.123" transform="translate(265.104 209.318)" fill="#fff"/>
      <rect id="Rectangle_2990" data-name="Rectangle 2990" width="7.652" height="3.123" transform="translate(255.314 214.625)" fill="#fff"/>
      <rect id="Rectangle_2991" data-name="Rectangle 2991" width="7.652" height="3.123" transform="translate(265.104 214.625)" fill="#fff"/>
      <rect id="Rectangle_2992" data-name="Rectangle 2992" width="7.652" height="3.123" transform="translate(255.314 219.933)" fill="#fff"/>
      <rect id="Rectangle_2993" data-name="Rectangle 2993" width="7.652" height="3.123" transform="translate(265.104 219.933)" fill="#fff"/>
      <rect id="Rectangle_2994" data-name="Rectangle 2994" width="7.652" height="3.123" transform="translate(255.314 225.233)" fill="#fff"/>
      <rect id="Rectangle_2995" data-name="Rectangle 2995" width="7.652" height="3.123" transform="translate(265.104 225.233)" fill="#fff"/>
      <rect id="Rectangle_2996" data-name="Rectangle 2996" width="7.652" height="3.123" transform="translate(255.314 230.54)" fill="#fff"/>
      <rect id="Rectangle_2997" data-name="Rectangle 2997" width="7.652" height="3.123" transform="translate(265.104 230.54)" fill="#fff"/>
      <rect id="Rectangle_2998" data-name="Rectangle 2998" width="7.652" height="3.123" transform="translate(255.314 235.848)" fill="#fff"/>
      <rect id="Rectangle_2999" data-name="Rectangle 2999" width="7.652" height="3.123" transform="translate(265.104 235.848)" fill="#fff"/>
      <rect id="Rectangle_3000" data-name="Rectangle 3000" width="7.652" height="3.123" transform="translate(255.314 241.155)" fill="#fff"/>
      <rect id="Rectangle_3001" data-name="Rectangle 3001" width="7.652" height="3.123" transform="translate(265.104 241.155)" fill="#fff"/>
      <rect id="Rectangle_3002" data-name="Rectangle 3002" width="19.711" height="88.419" transform="translate(276.865 168.369)" fill="#c7c7c7"/>
      <rect id="Rectangle_3003" data-name="Rectangle 3003" width="6.277" height="3.123" transform="translate(294.598 244.286) rotate(180)" fill="#ebebeb"/>
      <rect id="Rectangle_3004" data-name="Rectangle 3004" width="6.277" height="3.123" transform="translate(286.564 244.286) rotate(180)" fill="#ebebeb"/>
      <rect id="Rectangle_3005" data-name="Rectangle 3005" width="6.277" height="3.123" transform="translate(294.598 238.979) rotate(180)" fill="#ebebeb"/>
      <rect id="Rectangle_3006" data-name="Rectangle 3006" width="6.277" height="3.123" transform="translate(286.564 238.979) rotate(180)" fill="#ebebeb"/>
      <rect id="Rectangle_3007" data-name="Rectangle 3007" width="6.277" height="3.123" transform="translate(294.598 233.671) rotate(180)" fill="#ebebeb"/>
      <rect id="Rectangle_3008" data-name="Rectangle 3008" width="6.277" height="3.123" transform="translate(286.564 233.671) rotate(180)" fill="#ebebeb"/>
      <rect id="Rectangle_3009" data-name="Rectangle 3009" width="6.277" height="3.123" transform="translate(294.598 228.364) rotate(180)" fill="#ebebeb"/>
      <rect id="Rectangle_3010" data-name="Rectangle 3010" width="6.277" height="3.123" transform="translate(286.564 228.364) rotate(180)" fill="#ebebeb"/>
      <rect id="Rectangle_3011" data-name="Rectangle 3011" width="6.277" height="3.123" transform="translate(294.598 223.049) rotate(180)" fill="#ebebeb"/>
      <rect id="Rectangle_3012" data-name="Rectangle 3012" width="6.277" height="3.123" transform="translate(286.564 223.049) rotate(180)" fill="#ebebeb"/>
      <rect id="Rectangle_3013" data-name="Rectangle 3013" width="6.277" height="3.123" transform="translate(294.598 217.749) rotate(180)" fill="#ebebeb"/>
      <rect id="Rectangle_3014" data-name="Rectangle 3014" width="6.277" height="3.123" transform="translate(286.564 217.749) rotate(180)" fill="#ebebeb"/>
      <rect id="Rectangle_3015" data-name="Rectangle 3015" width="6.277" height="3.123" transform="translate(294.598 212.441) rotate(180)" fill="#ebebeb"/>
      <rect id="Rectangle_3016" data-name="Rectangle 3016" width="6.277" height="3.123" transform="translate(286.564 212.441) rotate(180)" fill="#ebebeb"/>
      <rect id="Rectangle_3017" data-name="Rectangle 3017" width="6.277" height="3.123" transform="translate(294.598 207.133) rotate(180)" fill="#ebebeb"/>
      <rect id="Rectangle_3018" data-name="Rectangle 3018" width="6.277" height="3.123" transform="translate(286.564 207.133) rotate(180)" fill="#ebebeb"/>
      <rect id="Rectangle_3019" data-name="Rectangle 3019" width="6.277" height="3.123" transform="translate(294.598 201.826) rotate(180)" fill="#ebebeb"/>
      <rect id="Rectangle_3020" data-name="Rectangle 3020" width="6.277" height="3.123" transform="translate(286.564 201.826) rotate(180)" fill="#ebebeb"/>
      <rect id="Rectangle_3021" data-name="Rectangle 3021" width="6.277" height="3.123" transform="translate(294.598 196.518) rotate(180)" fill="#ebebeb"/>
      <rect id="Rectangle_3022" data-name="Rectangle 3022" width="6.277" height="3.123" transform="translate(286.564 196.518) rotate(180)" fill="#ebebeb"/>
      <rect id="Rectangle_3023" data-name="Rectangle 3023" width="6.277" height="3.123" transform="translate(294.598 191.211) rotate(180)" fill="#ebebeb"/>
      <rect id="Rectangle_3024" data-name="Rectangle 3024" width="6.277" height="3.123" transform="translate(286.564 191.211) rotate(180)" fill="#ebebeb"/>
      <rect id="Rectangle_3025" data-name="Rectangle 3025" width="6.277" height="3.123" transform="translate(294.598 185.911) rotate(180)" fill="#ebebeb"/>
      <rect id="Rectangle_3026" data-name="Rectangle 3026" width="6.277" height="3.123" transform="translate(286.564 185.911) rotate(180)" fill="#ebebeb"/>
      <rect id="Rectangle_3027" data-name="Rectangle 3027" width="6.277" height="3.123" transform="translate(294.598 180.603) rotate(180)" fill="#ebebeb"/>
      <rect id="Rectangle_3028" data-name="Rectangle 3028" width="6.277" height="3.123" transform="translate(286.564 180.603) rotate(180)" fill="#ebebeb"/>
      <rect id="Rectangle_3029" data-name="Rectangle 3029" width="6.277" height="3.123" transform="translate(294.598 175.295) rotate(180)" fill="#ebebeb"/>
      <rect id="Rectangle_3030" data-name="Rectangle 3030" width="6.277" height="3.123" transform="translate(286.564 175.295) rotate(180)" fill="#ebebeb"/>
      <rect id="Rectangle_3031" data-name="Rectangle 3031" width="15.045" height="17.771" transform="translate(95.651 151.751)" fill="#dbdbdb"/>
      <rect id="Rectangle_3032" data-name="Rectangle 3032" width="9.538" height="18.428" transform="translate(110.696 151.751)" fill="#c7c7c7"/>
      <rect id="Rectangle_3033" data-name="Rectangle 3033" width="9.47" height="10.577" transform="translate(111.406 159.594)" fill="#dbdbdb"/>
      <rect id="Rectangle_3034" data-name="Rectangle 3034" width="5.903" height="10.577" transform="translate(120.868 159.594)" fill="#c7c7c7"/>
      <rect id="Rectangle_3035" data-name="Rectangle 3035" width="24.331" height="88.419" transform="translate(89.878 168.369)" fill="#ebebeb"/>
      <rect id="Rectangle_3036" data-name="Rectangle 3036" width="7.652" height="3.123" transform="translate(92.657 172.164)" fill="#fff"/>
      <rect id="Rectangle_3037" data-name="Rectangle 3037" width="7.652" height="3.123" transform="translate(102.448 172.164)" fill="#fff"/>
      <rect id="Rectangle_3038" data-name="Rectangle 3038" width="7.652" height="3.123" transform="translate(92.657 177.472)" fill="#fff"/>
      <rect id="Rectangle_3039" data-name="Rectangle 3039" width="7.652" height="3.123" transform="translate(102.448 177.472)" fill="#fff"/>
      <rect id="Rectangle_3040" data-name="Rectangle 3040" width="7.652" height="3.123" transform="translate(92.657 182.78)" fill="#fff"/>
      <rect id="Rectangle_3041" data-name="Rectangle 3041" width="7.652" height="3.123" transform="translate(102.448 182.78)" fill="#fff"/>
      <rect id="Rectangle_3042" data-name="Rectangle 3042" width="7.652" height="3.123" transform="translate(92.657 188.087)" fill="#fff"/>
      <rect id="Rectangle_3043" data-name="Rectangle 3043" width="7.652" height="3.123" transform="translate(102.448 188.087)" fill="#fff"/>
      <rect id="Rectangle_3044" data-name="Rectangle 3044" width="7.652" height="3.123" transform="translate(92.657 193.395)" fill="#fff"/>
      <rect id="Rectangle_3045" data-name="Rectangle 3045" width="7.652" height="3.123" transform="translate(102.448 193.395)" fill="#fff"/>
      <rect id="Rectangle_3046" data-name="Rectangle 3046" width="7.652" height="3.123" transform="translate(92.657 198.702)" fill="#fff"/>
      <rect id="Rectangle_3047" data-name="Rectangle 3047" width="7.652" height="3.123" transform="translate(102.448 198.702)" fill="#fff"/>
      <rect id="Rectangle_3048" data-name="Rectangle 3048" width="7.652" height="3.123" transform="translate(92.657 204.01)" fill="#fff"/>
      <rect id="Rectangle_3049" data-name="Rectangle 3049" width="7.652" height="3.123" transform="translate(102.448 204.01)" fill="#fff"/>
      <rect id="Rectangle_3050" data-name="Rectangle 3050" width="7.652" height="3.123" transform="translate(92.657 209.318)" fill="#fff"/>
      <rect id="Rectangle_3051" data-name="Rectangle 3051" width="7.652" height="3.123" transform="translate(102.448 209.318)" fill="#fff"/>
      <rect id="Rectangle_3052" data-name="Rectangle 3052" width="7.652" height="3.123" transform="translate(92.657 214.625)" fill="#fff"/>
      <rect id="Rectangle_3053" data-name="Rectangle 3053" width="7.652" height="3.123" transform="translate(102.448 214.625)" fill="#fff"/>
      <rect id="Rectangle_3054" data-name="Rectangle 3054" width="7.652" height="3.123" transform="translate(92.657 219.933)" fill="#fff"/>
      <rect id="Rectangle_3055" data-name="Rectangle 3055" width="7.652" height="3.123" transform="translate(102.448 219.933)" fill="#fff"/>
      <rect id="Rectangle_3056" data-name="Rectangle 3056" width="7.652" height="3.123" transform="translate(92.657 225.233)" fill="#fff"/>
      <rect id="Rectangle_3057" data-name="Rectangle 3057" width="7.652" height="3.123" transform="translate(102.448 225.233)" fill="#fff"/>
      <rect id="Rectangle_3058" data-name="Rectangle 3058" width="7.652" height="3.123" transform="translate(92.657 230.54)" fill="#fff"/>
      <rect id="Rectangle_3059" data-name="Rectangle 3059" width="7.652" height="3.123" transform="translate(102.448 230.54)" fill="#fff"/>
      <rect id="Rectangle_3060" data-name="Rectangle 3060" width="7.652" height="3.123" transform="translate(92.657 235.848)" fill="#fff"/>
      <rect id="Rectangle_3061" data-name="Rectangle 3061" width="7.652" height="3.123" transform="translate(102.448 235.848)" fill="#fff"/>
      <rect id="Rectangle_3062" data-name="Rectangle 3062" width="7.652" height="3.123" transform="translate(92.657 241.155)" fill="#fff"/>
      <rect id="Rectangle_3063" data-name="Rectangle 3063" width="7.652" height="3.123" transform="translate(102.448 241.155)" fill="#fff"/>
      <rect id="Rectangle_3064" data-name="Rectangle 3064" width="19.711" height="88.419" transform="translate(114.209 168.369)" fill="#c7c7c7"/>
      <rect id="Rectangle_3065" data-name="Rectangle 3065" width="6.277" height="3.123" transform="translate(131.941 244.286) rotate(180)" fill="#ebebeb"/>
      <rect id="Rectangle_3066" data-name="Rectangle 3066" width="6.277" height="3.123" transform="translate(123.907 244.286) rotate(180)" fill="#ebebeb"/>
      <rect id="Rectangle_3067" data-name="Rectangle 3067" width="6.277" height="3.123" transform="translate(131.941 238.979) rotate(180)" fill="#ebebeb"/>
      <rect id="Rectangle_3068" data-name="Rectangle 3068" width="6.277" height="3.123" transform="translate(123.907 238.979) rotate(180)" fill="#ebebeb"/>
      <rect id="Rectangle_3069" data-name="Rectangle 3069" width="6.277" height="3.123" transform="translate(131.941 233.671) rotate(180)" fill="#ebebeb"/>
      <rect id="Rectangle_3070" data-name="Rectangle 3070" width="6.277" height="3.123" transform="translate(123.907 233.671) rotate(180)" fill="#ebebeb"/>
      <rect id="Rectangle_3071" data-name="Rectangle 3071" width="6.277" height="3.123" transform="translate(131.941 228.364) rotate(180)" fill="#ebebeb"/>
      <rect id="Rectangle_3072" data-name="Rectangle 3072" width="6.277" height="3.123" transform="translate(123.907 228.364) rotate(180)" fill="#ebebeb"/>
      <rect id="Rectangle_3073" data-name="Rectangle 3073" width="6.277" height="3.123" transform="translate(131.941 223.049) rotate(180)" fill="#ebebeb"/>
      <rect id="Rectangle_3074" data-name="Rectangle 3074" width="6.277" height="3.123" transform="translate(123.907 223.049) rotate(180)" fill="#ebebeb"/>
      <rect id="Rectangle_3075" data-name="Rectangle 3075" width="6.277" height="3.123" transform="translate(131.941 217.749) rotate(180)" fill="#ebebeb"/>
      <rect id="Rectangle_3076" data-name="Rectangle 3076" width="6.277" height="3.123" transform="translate(123.907 217.749) rotate(180)" fill="#ebebeb"/>
      <rect id="Rectangle_3077" data-name="Rectangle 3077" width="6.277" height="3.123" transform="translate(131.941 212.441) rotate(180)" fill="#ebebeb"/>
      <rect id="Rectangle_3078" data-name="Rectangle 3078" width="6.277" height="3.123" transform="translate(123.907 212.441) rotate(180)" fill="#ebebeb"/>
      <rect id="Rectangle_3079" data-name="Rectangle 3079" width="6.277" height="3.123" transform="translate(131.941 207.133) rotate(180)" fill="#ebebeb"/>
      <rect id="Rectangle_3080" data-name="Rectangle 3080" width="6.277" height="3.123" transform="translate(123.907 207.133) rotate(180)" fill="#ebebeb"/>
      <rect id="Rectangle_3081" data-name="Rectangle 3081" width="6.277" height="3.123" transform="translate(131.941 201.826) rotate(180)" fill="#ebebeb"/>
      <rect id="Rectangle_3082" data-name="Rectangle 3082" width="6.277" height="3.123" transform="translate(123.907 201.826) rotate(180)" fill="#ebebeb"/>
      <rect id="Rectangle_3083" data-name="Rectangle 3083" width="6.277" height="3.123" transform="translate(131.941 196.518) rotate(180)" fill="#ebebeb"/>
      <rect id="Rectangle_3084" data-name="Rectangle 3084" width="6.277" height="3.123" transform="translate(123.907 196.518) rotate(180)" fill="#ebebeb"/>
      <rect id="Rectangle_3085" data-name="Rectangle 3085" width="6.277" height="3.123" transform="translate(131.941 191.211) rotate(180)" fill="#ebebeb"/>
      <rect id="Rectangle_3086" data-name="Rectangle 3086" width="6.277" height="3.123" transform="translate(123.907 191.211) rotate(180)" fill="#ebebeb"/>
      <rect id="Rectangle_3087" data-name="Rectangle 3087" width="6.277" height="3.123" transform="translate(131.941 185.911) rotate(180)" fill="#ebebeb"/>
      <rect id="Rectangle_3088" data-name="Rectangle 3088" width="6.277" height="3.123" transform="translate(123.907 185.911) rotate(180)" fill="#ebebeb"/>
      <rect id="Rectangle_3089" data-name="Rectangle 3089" width="6.277" height="3.123" transform="translate(131.941 180.603) rotate(180)" fill="#ebebeb"/>
      <rect id="Rectangle_3090" data-name="Rectangle 3090" width="6.277" height="3.123" transform="translate(123.907 180.603) rotate(180)" fill="#ebebeb"/>
      <rect id="Rectangle_3091" data-name="Rectangle 3091" width="6.277" height="3.123" transform="translate(131.941 175.295) rotate(180)" fill="#ebebeb"/>
      <rect id="Rectangle_3092" data-name="Rectangle 3092" width="6.277" height="3.123" transform="translate(123.907 175.295) rotate(180)" fill="#ebebeb"/>
    </g>
    <g id="freepik--Shadow--inject-251" transform="translate(71.017 335.031)">
      <ellipse id="Ellipse_469" data-name="Ellipse 469" cx="131.483" cy="13.135" rx="131.483" ry="13.135" fill="#ebebeb"/>
    </g>
    <g id="freepik--Building--inject-251" transform="translate(247.977 242.266)">
      <rect id="Rectangle_3093" data-name="Rectangle 3093" width="28.692" height="57.612" transform="translate(0 9.722)" fill="#37474f"/>
      <rect id="Rectangle_3094" data-name="Rectangle 3094" width="5.078" height="3.528" transform="translate(4.513 14.708)" fill="#455a64"/>
      <rect id="Rectangle_3095" data-name="Rectangle 3095" width="5.078" height="3.528" transform="translate(4.513 22.246)" fill="#455a64"/>
      <rect id="Rectangle_3096" data-name="Rectangle 3096" width="5.078" height="3.528" transform="translate(4.513 29.784)" fill="#455a64"/>
      <rect id="Rectangle_3097" data-name="Rectangle 3097" width="5.078" height="3.528" transform="translate(4.513 37.329)" fill="#455a64"/>
      <rect id="Rectangle_3098" data-name="Rectangle 3098" width="5.078" height="3.528" transform="translate(4.513 44.866)" fill="#455a64"/>
      <rect id="Rectangle_3099" data-name="Rectangle 3099" width="5.078" height="3.528" transform="translate(4.513 52.404)" fill="#455a64"/>
      <rect id="Rectangle_3100" data-name="Rectangle 3100" width="5.078" height="3.528" transform="translate(4.513 59.941)" fill="#455a64"/>
      <rect id="Rectangle_3101" data-name="Rectangle 3101" width="5.078" height="3.528" transform="translate(11.814 14.708)" fill="#455a64"/>
      <rect id="Rectangle_3102" data-name="Rectangle 3102" width="5.078" height="3.528" transform="translate(11.814 22.246)" fill="#455a64"/>
      <rect id="Rectangle_3103" data-name="Rectangle 3103" width="5.078" height="3.528" transform="translate(11.814 29.784)" fill="#455a64"/>
      <rect id="Rectangle_3104" data-name="Rectangle 3104" width="5.078" height="3.528" transform="translate(11.814 37.329)" fill="#455a64"/>
      <rect id="Rectangle_3105" data-name="Rectangle 3105" width="5.078" height="3.528" transform="translate(11.814 44.866)" fill="#455a64"/>
      <rect id="Rectangle_3106" data-name="Rectangle 3106" width="5.078" height="3.528" transform="translate(11.814 52.404)" fill="#455a64"/>
      <rect id="Rectangle_3107" data-name="Rectangle 3107" width="5.078" height="3.528" transform="translate(11.814 59.941)" fill="#455a64"/>
      <rect id="Rectangle_3108" data-name="Rectangle 3108" width="5.078" height="3.528" transform="translate(19.107 14.708)" fill="#455a64"/>
      <rect id="Rectangle_3109" data-name="Rectangle 3109" width="5.078" height="3.528" transform="translate(19.107 22.246)" fill="#455a64"/>
      <rect id="Rectangle_3110" data-name="Rectangle 3110" width="5.078" height="3.528" transform="translate(19.107 29.784)" fill="#455a64"/>
      <rect id="Rectangle_3111" data-name="Rectangle 3111" width="5.078" height="3.528" transform="translate(19.107 37.329)" fill="#455a64"/>
      <rect id="Rectangle_3112" data-name="Rectangle 3112" width="5.078" height="3.528" transform="translate(19.107 44.866)" fill="#455a64"/>
      <rect id="Rectangle_3113" data-name="Rectangle 3113" width="5.078" height="3.528" transform="translate(19.107 52.404)" fill="#455a64"/>
      <rect id="Rectangle_3114" data-name="Rectangle 3114" width="5.078" height="3.528" transform="translate(19.107 59.941)" fill="#455a64"/>
      <rect id="Rectangle_3115" data-name="Rectangle 3115" width="19.107" height="6.003" transform="translate(9.592 3.719)" fill="#455a64"/>
      <rect id="Rectangle_3116" data-name="Rectangle 3116" width="12.112" height="3.719" transform="translate(16.58)" fill="#37474f"/>
      <rect id="Rectangle_3117" data-name="Rectangle 3117" width="20.131" height="57.612" transform="translate(28.692 9.722)" fill="#263238"/>
      <rect id="Rectangle_3118" data-name="Rectangle 3118" width="4.132" height="3.528" transform="translate(46.76 62.904) rotate(180)" fill="#37474f"/>
      <rect id="Rectangle_3119" data-name="Rectangle 3119" width="4.132" height="3.528" transform="translate(46.76 55.375) rotate(180)" fill="#37474f"/>
      <rect id="Rectangle_3120" data-name="Rectangle 3120" width="4.132" height="3.528" transform="translate(46.76 47.837) rotate(180)" fill="#37474f"/>
      <rect id="Rectangle_3121" data-name="Rectangle 3121" width="4.132" height="3.528" transform="translate(46.76 40.292) rotate(180)" fill="#37474f"/>
      <rect id="Rectangle_3122" data-name="Rectangle 3122" width="4.132" height="3.528" transform="translate(46.76 32.754) rotate(180)" fill="#37474f"/>
      <rect id="Rectangle_3123" data-name="Rectangle 3123" width="4.132" height="3.528" transform="translate(46.76 25.209) rotate(180)" fill="#37474f"/>
      <rect id="Rectangle_3124" data-name="Rectangle 3124" width="4.132" height="3.528" transform="translate(46.76 17.679) rotate(180)" fill="#37474f"/>
      <rect id="Rectangle_3125" data-name="Rectangle 3125" width="4.132" height="3.528" transform="translate(40.819 62.904) rotate(180)" fill="#37474f"/>
      <rect id="Rectangle_3126" data-name="Rectangle 3126" width="4.132" height="3.528" transform="translate(40.819 55.375) rotate(180)" fill="#37474f"/>
      <rect id="Rectangle_3127" data-name="Rectangle 3127" width="4.132" height="3.528" transform="translate(40.819 47.837) rotate(180)" fill="#37474f"/>
      <rect id="Rectangle_3128" data-name="Rectangle 3128" width="4.132" height="3.528" transform="translate(40.819 40.292) rotate(180)" fill="#37474f"/>
      <rect id="Rectangle_3129" data-name="Rectangle 3129" width="4.132" height="3.528" transform="translate(40.819 32.754) rotate(180)" fill="#37474f"/>
      <rect id="Rectangle_3130" data-name="Rectangle 3130" width="4.132" height="3.528" transform="translate(40.819 25.209) rotate(180)" fill="#37474f"/>
      <rect id="Rectangle_3131" data-name="Rectangle 3131" width="4.132" height="3.528" transform="translate(40.819 17.679) rotate(180)" fill="#37474f"/>
      <rect id="Rectangle_3132" data-name="Rectangle 3132" width="4.132" height="3.528" transform="translate(34.893 62.904) rotate(180)" fill="#37474f"/>
      <rect id="Rectangle_3133" data-name="Rectangle 3133" width="4.132" height="3.528" transform="translate(34.893 55.375) rotate(180)" fill="#37474f"/>
      <rect id="Rectangle_3134" data-name="Rectangle 3134" width="4.132" height="3.528" transform="translate(34.893 47.837) rotate(180)" fill="#37474f"/>
      <rect id="Rectangle_3135" data-name="Rectangle 3135" width="4.132" height="3.528" transform="translate(34.893 40.292) rotate(180)" fill="#37474f"/>
      <rect id="Rectangle_3136" data-name="Rectangle 3136" width="4.132" height="3.528" transform="translate(34.893 32.754) rotate(180)" fill="#37474f"/>
      <rect id="Rectangle_3137" data-name="Rectangle 3137" width="4.132" height="3.528" transform="translate(34.893 25.209) rotate(180)" fill="#37474f"/>
      <rect id="Rectangle_3138" data-name="Rectangle 3138" width="4.132" height="3.528" transform="translate(34.893 17.679) rotate(180)" fill="#37474f"/>
      <rect id="Rectangle_3139" data-name="Rectangle 3139" width="17.084" height="6.003" transform="translate(28.692 3.719)" fill="#37474f"/>
      <rect id="Rectangle_3140" data-name="Rectangle 3140" width="9.256" height="3.719" transform="translate(28.692)" fill="#263238"/>
    </g>
    <g id="freepik--Location--inject-251" transform="translate(212.358 60.808)">
      <path id="Path_7741" data-name="Path 7741" d="M327.391,97.46H335.1a31.208,31.208,0,0,0,0,62.408h-7.713a31.208,31.208,0,0,1,0-62.408Z" transform="translate(-270.885 -71.357)" fill="#9676ff"/>
      <g id="Group_2458" data-name="Group 2458" transform="translate(25.775 26.103)" opacity="0.1">
        <path id="Path_7742" data-name="Path 7742" d="M327.391,97.46H335.1a31.208,31.208,0,0,0,0,62.408h-7.713a31.208,31.208,0,0,1,0-62.408Z" transform="translate(-296.66 -97.46)"/>
      </g>
      <path id="Path_7743" data-name="Path 7743" d="M344.613,240.324H336.9c31.2-36.344,60.415-76.185,56.123-120.173-2.8-28.493-22.147-56.871-56.123-56.871h7.713c33.984,0,53.328,28.378,56.115,56.871C405.059,164.139,375.84,203.981,344.613,240.324Z" transform="translate(-280.394 -63.28)" fill="#9676ff"/>
      <g id="Group_2459" data-name="Group 2459" transform="translate(56.506)" opacity="0.1">
        <path id="Path_7744" data-name="Path 7744" d="M344.613,240.324H336.9c31.2-36.344,60.415-76.185,56.123-120.173-2.8-28.493-22.147-56.871-56.123-56.871h7.713c33.984,0,53.328,28.378,56.115,56.871C405.059,164.139,375.84,203.981,344.613,240.324Z" transform="translate(-336.9 -63.28)"/>
      </g>
      <path id="Path_7745" data-name="Path 7745" d="M375.53,120.154c4.3,43.988-24.919,83.829-56.115,120.181-31.158-36.351-60.377-76.193-56.085-120.181,2.8-28.493,22.147-56.864,56.085-56.864S372.742,91.661,375.53,120.154Zm-56.115,31.639a31.208,31.208,0,1,0-30.731-31.212,30.975,30.975,0,0,0,30.731,31.212" transform="translate(-262.909 -63.282)" fill="#9676ff"/>
    </g>
    <g id="freepik--Floor--inject-251" transform="translate(50.298 309.6)">
      <path id="Path_7746" data-name="Path 7746" d="M50.88,393.582,88.9,393.4l38.016-.069,76.032-.13,76.032.13,38.016.069,38.016.183-38.016.191-38.016.069-76.032.122-76.032-.122L88.9,393.773Z" transform="translate(-50.743 -390.038)" fill="#263238"/>
      <rect id="Rectangle_3141" data-name="Rectangle 3141" width="304.403" height="3.543" transform="translate(0 0)" fill="#c7c7c7"/>
      <path id="Path_7747" data-name="Path 7747" d="M62.18,389.06a10.355,10.355,0,0,1,0,3.543A9.867,9.867,0,0,1,62.18,389.06Z" transform="translate(-53.375 -389.06)" fill="#263238"/>
      <path id="Path_7748" data-name="Path 7748" d="M75.593,389.06a10.356,10.356,0,0,1,0,3.543A10.355,10.355,0,0,1,75.593,389.06Z" transform="translate(-56.547 -389.06)" fill="#263238"/>
      <path id="Path_7749" data-name="Path 7749" d="M89,389.06a10.356,10.356,0,0,1,0,3.543A10.355,10.355,0,0,1,89,389.06Z" transform="translate(-59.716 -389.06)" fill="#263238"/>
      <path id="Path_7750" data-name="Path 7750" d="M102.413,389.06a10.356,10.356,0,0,1,0,3.543A10.355,10.355,0,0,1,102.413,389.06Z" transform="translate(-62.885 -389.06)" fill="#263238"/>
      <path id="Path_7751" data-name="Path 7751" d="M115.83,389.06a10.356,10.356,0,0,1,0,3.543A9.867,9.867,0,0,1,115.83,389.06Z" transform="translate(-66.054 -389.06)" fill="#263238"/>
      <path id="Path_7752" data-name="Path 7752" d="M129.243,389.06a10.355,10.355,0,0,1,0,3.543A10.355,10.355,0,0,1,129.243,389.06Z" transform="translate(-69.225 -389.06)" fill="#263238"/>
      <path id="Path_7753" data-name="Path 7753" d="M142.653,389.06a10.356,10.356,0,0,1,0,3.543,10.355,10.355,0,0,1,0-3.543Z" transform="translate(-72.394 -389.06)" fill="#263238"/>
      <path id="Path_7754" data-name="Path 7754" d="M156.063,389.06a10.355,10.355,0,0,1,0,3.543A10.355,10.355,0,0,1,156.063,389.06Z" transform="translate(-75.563 -389.06)" fill="#263238"/>
      <path id="Path_7755" data-name="Path 7755" d="M169.48,389.06a10.355,10.355,0,0,1,0,3.543A9.867,9.867,0,0,1,169.48,389.06Z" transform="translate(-78.732 -389.06)" fill="#263238"/>
      <path id="Path_7756" data-name="Path 7756" d="M182.893,389.06a10.355,10.355,0,0,1,0,3.543A10.356,10.356,0,0,1,182.893,389.06Z" transform="translate(-81.904 -389.06)" fill="#263238"/>
      <path id="Path_7757" data-name="Path 7757" d="M196.3,389.06a10.356,10.356,0,0,1,0,3.543A10.357,10.357,0,0,1,196.3,389.06Z" transform="translate(-85.073 -389.06)" fill="#263238"/>
      <path id="Path_7758" data-name="Path 7758" d="M209.713,389.06a10.356,10.356,0,0,1,0,3.543A10.355,10.355,0,0,1,209.713,389.06Z" transform="translate(-88.242 -389.06)" fill="#263238"/>
      <path id="Path_7759" data-name="Path 7759" d="M223.13,389.06a10.355,10.355,0,0,1,0,3.543A9.867,9.867,0,0,1,223.13,389.06Z" transform="translate(-91.411 -389.06)" fill="#263238"/>
      <path id="Path_7760" data-name="Path 7760" d="M236.543,389.06a10.355,10.355,0,0,1,0,3.543,10.355,10.355,0,0,1,0-3.543Z" transform="translate(-94.582 -389.06)" fill="#263238"/>
      <path id="Path_7761" data-name="Path 7761" d="M249.953,389.06a10.356,10.356,0,0,1,0,3.543A10.354,10.354,0,0,1,249.953,389.06Z" transform="translate(-97.751 -389.06)" fill="#263238"/>
      <path id="Path_7762" data-name="Path 7762" d="M263.363,389.06a10.353,10.353,0,0,1,0,3.543A10.356,10.356,0,0,1,263.363,389.06Z" transform="translate(-100.92 -389.06)" fill="#263238"/>
      <path id="Path_7763" data-name="Path 7763" d="M276.78,389.06a10.357,10.357,0,0,1,0,3.543A9.867,9.867,0,0,1,276.78,389.06Z" transform="translate(-104.089 -389.06)" fill="#263238"/>
      <path id="Path_7764" data-name="Path 7764" d="M290.193,389.06a10.354,10.354,0,0,1,0,3.544,10.354,10.354,0,0,1,0-3.544Z" transform="translate(-107.26 -389.06)" fill="#263238"/>
      <path id="Path_7765" data-name="Path 7765" d="M303.6,389.06a10.353,10.353,0,0,1,0,3.543A10.357,10.357,0,0,1,303.6,389.06Z" transform="translate(-110.43 -389.06)" fill="#263238"/>
      <path id="Path_7766" data-name="Path 7766" d="M317.013,389.06a10.356,10.356,0,0,1,0,3.544A10.354,10.354,0,0,1,317.013,389.06Z" transform="translate(-113.599 -389.06)" fill="#263238"/>
      <path id="Path_7767" data-name="Path 7767" d="M330.423,389.06a9.865,9.865,0,0,1,0,3.543A10.357,10.357,0,0,1,330.423,389.06Z" transform="translate(-116.768 -389.06)" fill="#263238"/>
      <path id="Path_7768" data-name="Path 7768" d="M343.843,389.06a10.357,10.357,0,0,1,0,3.544A10.354,10.354,0,0,1,343.843,389.06Z" transform="translate(-119.939 -389.06)" fill="#263238"/>
      <path id="Path_7769" data-name="Path 7769" d="M357.253,389.06a10.354,10.354,0,0,1,0,3.543A10.354,10.354,0,0,1,357.253,389.06Z" transform="translate(-123.108 -389.06)" fill="#263238"/>
      <path id="Path_7770" data-name="Path 7770" d="M370.663,389.06a10.354,10.354,0,0,1,0,3.543A10.354,10.354,0,0,1,370.663,389.06Z" transform="translate(-126.277 -389.06)" fill="#263238"/>
      <path id="Path_7771" data-name="Path 7771" d="M384.073,389.06a9.867,9.867,0,0,1,0,3.543A10.354,10.354,0,0,1,384.073,389.06Z" transform="translate(-129.446 -389.06)" fill="#263238"/>
      <path id="Path_7772" data-name="Path 7772" d="M397.493,389.06a10.356,10.356,0,0,1,0,3.543A10.354,10.354,0,0,1,397.493,389.06Z" transform="translate(-132.617 -389.06)" fill="#263238"/>
      <path id="Path_7773" data-name="Path 7773" d="M410.952,389.06a10.356,10.356,0,0,1,0,3.544,8.641,8.641,0,0,1-.153-1.772A9.258,9.258,0,0,1,410.952,389.06Z" transform="translate(-135.798 -389.06)" fill="#263238"/>
      <path id="Path_7774" data-name="Path 7774" d="M424.313,389.06a10.357,10.357,0,0,1,0,3.543A10.354,10.354,0,0,1,424.313,389.06Z" transform="translate(-138.955 -389.06)" fill="#263238"/>
      <path id="Path_7775" data-name="Path 7775" d="M437.723,389.06a9.867,9.867,0,0,1,0,3.543A10.354,10.354,0,0,1,437.723,389.06Z" transform="translate(-142.125 -389.06)" fill="#263238"/>
    </g>
    <g id="freepik--Plants--inject-251" transform="translate(52.925 302.368)">
      <path id="Path_7776" data-name="Path 7776" d="M87.251,386.86H70.45s0-2.5,1.688-3.162a2.291,2.291,0,0,1,2.635.634s.672-4.582,3.75-4.582,4.567,3.948,4.567,3.948a2.36,2.36,0,0,1,2.4-.978C87.182,382.95,87.251,386.86,87.251,386.86Z" transform="translate(-57.994 -379.628)" fill="#37474f"/>
      <path id="Path_7777" data-name="Path 7777" d="M440.555,386.822s-.512-2.4-1.527-2.772a1.459,1.459,0,0,0-1.65.71s-.244-2.291-1.7-2.978a2.2,2.2,0,0,0-2.551.718s-1.115-2.91-3.116-2.91S427,383.844,427,383.844s-1.176-1.268-2.383-.55-1.207,3.528-1.207,3.528Z" transform="translate(-141.405 -379.59)" fill="#37474f"/>
      <path id="Path_7778" data-name="Path 7778" d="M235.282,386.822s-.512-2.4-1.527-2.772a1.466,1.466,0,0,0-1.657.71s-.237-2.291-1.7-2.978a2.2,2.2,0,0,0-2.551.718s-1.123-2.91-3.116-2.91-3.009,4.254-3.009,4.254-1.176-1.268-2.383-.55-1.214,3.528-1.214,3.528Z" transform="translate(-92.894 -379.59)" fill="#37474f"/>
      <path id="Path_7779" data-name="Path 7779" d="M69.62,387.481H54.14s.512-2.184,1.527-2.337a1.527,1.527,0,0,1,1.527.855s-.046-3.055,1.871-3.559,3.521,2.169,3.521,2.169a3.819,3.819,0,0,1,2.841-1.436c1.642.1,2.054,2.635,2.054,2.635S68.963,384.93,69.62,387.481Z" transform="translate(-54.14 -380.249)" fill="#455a64"/>
      <path id="Path_7780" data-name="Path 7780" d="M217.69,387.481H202.21s.512-2.184,1.527-2.337a1.527,1.527,0,0,1,1.527.855s-.046-3.055,1.871-3.559,3.528,2.169,3.528,2.169a3.819,3.819,0,0,1,2.841-1.436c1.634.1,2.054,2.635,2.054,2.635S217.033,384.93,217.69,387.481Z" transform="translate(-89.132 -380.249)" fill="#455a64"/>
      <path id="Path_7781" data-name="Path 7781" d="M421.9,387.812H412.38s0-1.413.962-1.787a1.268,1.268,0,0,1,1.489.351s.382-2.6,2.123-2.6,2.574,2.245,2.574,2.245a1.344,1.344,0,0,1,1.359-.558C421.857,385.6,421.9,387.812,421.9,387.812Z" transform="translate(-138.799 -380.58)" fill="#455a64"/>
      <path id="Path_7782" data-name="Path 7782" d="M269.523,387.812H260s0-1.413.955-1.787a1.275,1.275,0,0,1,1.527.351s.382-2.6,2.123-2.6,2.574,2.245,2.574,2.245a1.344,1.344,0,0,1,1.359-.558C269.485,385.6,269.523,387.812,269.523,387.812Z" transform="translate(-102.789 -380.58)" fill="#455a64"/>
    </g>
    <g id="freepik--Character--inject-251" transform="translate(82.602 71.181)">
      <path id="Path_7783" data-name="Path 7783" d="M203.6,427.07c-1.779.573-52.557-.076-54.473-1.329-.764-.466-1.077-7.866-1.222-16.8v-.283c-.038-1.848-.061-3.75-.069-5.674v-.764L150.3,375.88l33.969.328-3.345,26.1-.046,1.039-.2,5.4v.557s19.329,8.935,21.291,10.539S205.383,426.5,203.6,427.07Z" transform="translate(-105.96 -147.526)" fill="#dd6a57"/>
      <path id="Path_7784" data-name="Path 7784" d="M203.6,435.22c-1.779.573-52.557-.076-54.473-1.329-.764-.466-1.077-7.866-1.222-16.8v-.283c-.038-1.848-.061-3.75-.069-5.674v-.764l33.083.084-.046,1.039-.2,5.4v.557s19.329,8.935,21.291,10.539S205.383,434.647,203.6,435.22Z" transform="translate(-105.96 -155.677)" fill="#ebebeb"/>
      <path id="Path_7785" data-name="Path 7785" d="M203.626,437.2c-.916.3-14.716.267-28.2,0-2.711-.053-5.407-.115-7.98-.183-9.615-.26-17.565-.657-18.328-1.138s-1.069-7.637-1.222-16.45v-.664h.076l32.724.053v.565s19.321,8.935,21.284,10.531S205.405,436.63,203.626,437.2Z" transform="translate(-105.974 -157.66)" fill="#9676ff"/>
      <path id="Path_7786" data-name="Path 7786" d="M204.163,440.141c-8.553-.321-43.095-.8-51.579-.466-.069,0-.069.053,0,.053,8.469.5,43.018.7,51.579.55C204.346,440.278,204.346,440.148,204.163,440.141Z" transform="translate(-107.069 -162.575)" fill="#263238"/>
      <path id="Path_7787" data-name="Path 7787" d="M192.466,418.913c-3.36-.672-7.484-.206-10.088,2.161-.1.092,0,.237.137.2a47.741,47.741,0,0,1,9.928-1.932.214.214,0,1,0,.023-.428Z" transform="translate(-114.112 -157.63)" fill="#263238"/>
      <path id="Path_7788" data-name="Path 7788" d="M195.625,420.913c-3.36-.672-7.484-.206-10.088,2.161-.107.092,0,.229.137.2a47.64,47.64,0,0,1,9.928-1.932.214.214,0,1,0,.023-.428Z" transform="translate(-114.858 -158.102)" fill="#263238"/>
      <path id="Path_7789" data-name="Path 7789" d="M198.785,422.853c-3.36-.672-7.484-.206-10.088,2.161-.107.092,0,.229.137.2a47.187,47.187,0,0,1,9.928-1.932.214.214,0,1,0,.023-.428Z" transform="translate(-115.605 -158.561)" fill="#263238"/>
      <path id="Path_7790" data-name="Path 7790" d="M175.481,437.2c-2.711-.053-5.407-.115-7.98-.183-9.615-.26-17.565-.657-18.328-1.138s-1.069-7.637-1.222-16.45v-.664h.038C152.456,421.906,168.256,432.422,175.481,437.2Z" transform="translate(-105.986 -157.66)" fill="#263238"/>
      <path id="Path_7791" data-name="Path 7791" d="M176.938,363.531H140.365s7.347-85.418,7.056-86.907c-.367-1.909-2.528-10.554-5.4-21.849-.9-3.536-1.879-7.324-2.887-11.257-2.726-10.623-5.735-22.238-8.355-32.342-3.933-15.136-7.011-26.9-7.011-26.9h31s3.612,11.455,8.171,26.347c7.423,24.209,17.336,57.528,18.328,65.631C182.848,289.332,176.938,363.531,176.938,363.531Z" transform="translate(-100.272 -102.248)" fill="#455a64"/>
      <path id="Path_7792" data-name="Path 7792" d="M181.1,410.742c-5.59-.115-3.986-.16-9.569-.214-2.734,0-20.7-.183-23.254.244-.053,0-.053.1,0,.115,2.558.42,20.52.26,23.254.229,5.583-.054,3.979-.1,9.569-.214a.084.084,0,0,0,0-.16Z" transform="translate(-106.054 -155.705)" fill="#263238"/>
      <path id="Path_7793" data-name="Path 7793" d="M156.252,273.8c-1.2-5.285-2.994-10.462-4.582-15.655q-4.765-15.808-9.577-31.609-2.39-7.9-4.826-15.793-1.222-3.986-2.467-7.965c-.817-2.6-1.741-5.17-2.474-7.79-.3-1.062-.466-.481-.084.878.764,2.726,1.527,5.453,2.329,8.171q2.367,8.087,4.765,16.16,4.758,16.037,9.6,32.113,2.413,8.049,4.842,16.091a65.368,65.368,0,0,1,1.978,7.79,35.741,35.741,0,0,1,.328,8.324c-.351,5.6-1,11.18-1.527,16.763s-1.031,11.188-1.527,16.8q-1.527,16.686-3.055,33.4-.2,2.115-.359,4.238c-.038.473.68.435.726,0,1.207-11,2.123-22.047,3.154-33.075s2.054-21.941,3.055-32.907c.252-2.757.55-5.514.55-8.286A34.053,34.053,0,0,0,156.252,273.8Z" transform="translate(-102.221 -104.649)" fill="#263238"/>
      <path id="Path_7794" data-name="Path 7794" d="M151.247,184.27c-2.146,16.648-6.239,47.86-9.225,70.5-7-27.431-18.252-70.5-18.252-70.5Z" transform="translate(-100.272 -102.245)" fill="#263238"/>
      <path id="Path_7795" data-name="Path 7795" d="M151.985,427.779c-1.779.58-52.557.122-54.481-1.13-.764-.458-1.1-7.858-1.283-16.8v-.283c0-1.848-.069-3.75-.084-5.674v-.764c-.122-12.929.81-26.347.81-26.347l33.19.214-.924,26.095v1.039l-.183,5.4v.557s19.359,8.866,21.33,10.462S153.764,427.206,151.985,427.779Z" transform="translate(-93.739 -147.739)" fill="#dd6a57"/>
      <path id="Path_7796" data-name="Path 7796" d="M151.988,435.92c-1.779.58-52.557.122-54.481-1.13-.764-.458-1.1-7.858-1.283-16.8v-.283c0-1.848-.069-3.75-.084-5.674v-.764l33.075-.038v1.039l-.183,5.4v.557s19.359,8.866,21.33,10.463S153.767,435.347,151.988,435.92Z" transform="translate(-93.742 -155.88)" fill="#ebebeb"/>
      <path id="Path_7797" data-name="Path 7797" d="M152.014,437.9c-1.779.58-52.557.122-54.481-1.13-.764-.458-1.1-7.858-1.283-16.8v-.283l32.77-.069v.557s19.359,8.866,21.33,10.462S153.793,437.33,152.014,437.9Z" transform="translate(-93.768 -157.863)" fill="#9676ff"/>
      <path id="Path_7798" data-name="Path 7798" d="M152.561,440.867c-8.561-.283-43.1-.641-51.587-.275-.069,0-.069.054,0,.054,8.477.473,43.026.55,51.587.367C152.736,440.981,152.744,440.867,152.561,440.867Z" transform="translate(-94.872 -162.782)" fill="#263238"/>
      <path id="Path_7799" data-name="Path 7799" d="M140.788,419.686c-3.36-.664-7.484-.183-10.081,2.192-.1.092,0,.237.137.2a47.745,47.745,0,0,1,9.928-1.97.214.214,0,0,0,.015-.42Z" transform="translate(-101.901 -157.814)" fill="#263238"/>
      <path id="Path_7800" data-name="Path 7800" d="M143.958,421.627c-3.368-.657-7.492-.176-10.088,2.2-.1.092.038.237.145.2a47.568,47.568,0,0,1,9.928-1.97.214.214,0,0,0,.015-.428Z" transform="translate(-102.65 -158.274)" fill="#263238"/>
      <path id="Path_7801" data-name="Path 7801" d="M147.118,423.577c-3.36-.657-7.484-.176-10.081,2.2-.1.092,0,.229.137.2A47.246,47.246,0,0,1,147.1,424a.214.214,0,1,0,.015-.428Z" transform="translate(-103.397 -158.735)" fill="#263238"/>
      <path id="Path_7802" data-name="Path 7802" d="M146.5,184.27s-.718,14.831-4.109,26.576c-.267.97-.565,1.924-.886,2.841a55.183,55.183,0,0,0-8.927,4.582s-.359,11.929-.71,25.2c-.389,14.877-.764,31.471-.718,34.984.321,13.166-1.627,85.532-1.627,85.532L93,364.216s6.591-80.843,6.545-85.67c-.076-7.751,1.756-42,3.177-67,.863-15.4,1.573-27.271,1.573-27.271Z" transform="translate(-93 -102.245)" fill="#455a64"/>
      <path id="Path_7803" data-name="Path 7803" d="M129.013,411.125c-5.583-.092-3.979-.145-9.569-.168-2.734,0-20.7-.092-23.246.344-.053,0-.053.1,0,.115,2.558.412,20.52.176,23.254.13,5.583-.076,3.979-.115,9.561-.252a.084.084,0,1,0,0-.168Z" transform="translate(-93.746 -155.814)" fill="#263238"/>
      <path id="Path_7804" data-name="Path 7804" d="M108.934,191.179c-.672,20.4-1.375,40.8-2.291,61.186s-2.138,40.918-3.818,61.324c-.955,11.4-1.848,27.439-3.055,38.818,0,.076.107.107.115,0,2.658-20.238,4.139-45.256,5.445-65.623s2.184-40.75,2.871-61.14c.4-11.539.687-23.071,1.031-34.61C109.194,191.011,108.942,191.011,108.934,191.179Z" transform="translate(-94.6 -103.847)" fill="#263238"/>
      <path id="Path_7805" data-name="Path 7805" d="M155.25,221.625a67.72,67.72,0,0,0-10.447,5.483c-.13.076,0,.283.107.214,3.528-1.718,7.133-3.368,10.554-5.277a.237.237,0,0,0-.214-.42Z" transform="translate(-105.229 -111.069)" fill="#263238"/>
      <path id="Path_7806" data-name="Path 7806" d="M156.709,205.139c-.244,1.3-.557,2.589-.84,3.88s-.451,2.444-.764,3.643a6.262,6.262,0,0,1-1.7,3.055c-.473.435-.993.832-1.527,1.237l-.848.649.092-.527c.092-.489.176-.985.252-1.474.183-1.1.359-2.192.527-3.291.328-2.154.634-4.338,1.084-6.468a.071.071,0,0,0-.137-.038c-.535,2.115-1.13,4.208-1.6,6.346-.229,1.046-1.046,6.209-1.084,6.575s-.069.764-.076,1.138a4.222,4.222,0,0,0,0,1.161c0,.092.13.076.176,0h0a4.322,4.322,0,0,0,.328-1.123,11.17,11.17,0,0,0,.244-1.115,3.836,3.836,0,0,1,.061-.412c.512-.313.985-.718,1.459-1.062s1.039-.764,1.527-1.146a5.781,5.781,0,0,0,1.856-2.894,21.841,21.841,0,0,0,.611-3.719c.16-1.466.283-2.94.489-4.406C156.884,205.086,156.724,205.017,156.709,205.139Z" transform="translate(-106.481 -107.161)" fill="#263238"/>
      <path id="Path_7807" data-name="Path 7807" d="M145.479,131.843c2.024,5.651,9.164,18.328,20.115,28.31,4.238,3.857,35.771,1.321,38.894.107,2.184-.855,6.262-16.748,3.964-18.183-4.307-2.7-32.495,3.521-33.694,2.887a142.014,142.014,0,0,1-21.788-16.839C147.266,122.487,142.111,122.434,145.479,131.843Z" transform="translate(-105.149 -88.063)" fill="#dd6a57"/>
      <path id="Path_7808" data-name="Path 7808" d="M153.385,148.427l17.885-7.1s-16.037-13.8-21.918-16.526c-6.606-3.055-6.728.978-4.406,7.5S153.385,148.427,153.385,148.427Z" transform="translate(-104.952 -87.946)" fill="#37474f"/>
      <path id="Path_7809" data-name="Path 7809" d="M170.279,143.91c-.657.145-6.262,2.291-7.469,2.765s-6.178,2.436-7.385,3.055a.046.046,0,0,0,0,.092c1.3-.367,6.308-2.291,7.553-2.8s6.743-2.7,7.316-3.055C170.363,143.979,170.363,143.9,170.279,143.91Z" transform="translate(-107.742 -92.708)" fill="#263238"/>
      <path id="Path_7810" data-name="Path 7810" d="M160.3,145.69l-6.873,2.742s-6.109-9.615-8.4-16.129c-1.7-4.765-2.085-8.217.4-8.523Z" transform="translate(-104.972 -87.951)" fill="#263238"/>
      <path id="Path_7811" data-name="Path 7811" d="M102.388,185.5c.115.13,50.693.458,51.167-.053.649-.764-10.585-55.573-15.755-62.362-1.107-1.451-8.08-3.429-12.127-.13-8.6,7-16.037,31.036-17.794,38.291C105.007,173.2,101.968,185.026,102.388,185.5Z" transform="translate(-95.209 -87.331)" fill="#9676ff"/>
      <path id="Path_7812" data-name="Path 7812" d="M145.09,123.975H132c.214-.2.428-.382.641-.557a5,5,0,0,1,.4-.3H144.3a2.223,2.223,0,0,1,.473.428A4.147,4.147,0,0,1,145.09,123.975Z" transform="translate(-102.216 -87.795)" opacity="0.1"/>
      <path id="Path_7813" data-name="Path 7813" d="M145.624,127.193H129.09c.237-.3.473-.588.718-.863H145.25C145.372,126.6,145.494,126.887,145.624,127.193Z" transform="translate(-101.529 -88.553)" opacity="0.1"/>
      <path id="Path_7814" data-name="Path 7814" d="M146.038,130.413H126.77c.2-.3.389-.58.588-.863h18.328Z" transform="translate(-100.98 -89.314)" opacity="0.1"/>
      <path id="Path_7815" data-name="Path 7815" d="M146.389,133.623H124.8c.168-.29.336-.58.512-.863h20.8A6,6,0,0,1,146.389,133.623Z" transform="translate(-100.515 -90.073)" opacity="0.1"/>
      <path id="Path_7816" data-name="Path 7816" d="M146.743,136.843H123c.153-.29.3-.58.458-.863h22.987A6.071,6.071,0,0,1,146.743,136.843Z" transform="translate(-100.09 -90.834)" opacity="0.1"/>
      <path id="Path_7817" data-name="Path 7817" d="M147.067,140.063H121.43c.137-.29.275-.58.42-.863h25Z" transform="translate(-99.719 -91.595)" opacity="0.1"/>
      <path id="Path_7818" data-name="Path 7818" d="M147.493,143.273H120l.389-.863h26.859A3.765,3.765,0,0,0,147.493,143.273Z" transform="translate(-99.381 -92.353)" opacity="0.1"/>
      <path id="Path_7819" data-name="Path 7819" d="M147.778,146.493H118.56l.367-.863h28.623Z" transform="translate(-99.04 -93.114)" opacity="0.1"/>
      <path id="Path_7820" data-name="Path 7820" d="M148.12,149.733H117.26c.107-.29.221-.573.344-.863h30.3C147.968,149.137,148.044,149.428,148.12,149.733Z" transform="translate(-98.733 -93.88)" opacity="0.1"/>
      <path id="Path_7821" data-name="Path 7821" d="M148.449,152.923H116c.107-.29.214-.573.328-.863H148.22C148.3,152.35,148.38,152.633,148.449,152.923Z" transform="translate(-98.435 -94.634)" opacity="0.1"/>
      <path id="Path_7822" data-name="Path 7822" d="M148.8,156.143H114.85c.1-.29.206-.573.313-.863h33.4C148.651,155.57,148.719,155.83,148.8,156.143Z" transform="translate(-98.164 -95.395)" opacity="0.1"/>
      <path id="Path_7823" data-name="Path 7823" d="M149.129,159.355H113.74c.092-.283.191-.573.3-.855h34.885Z" transform="translate(-97.901 -96.156)" opacity="0.1"/>
      <path id="Path_7824" data-name="Path 7824" d="M149.467,162.573H112.68l.275-.863H149.26Z" transform="translate(-97.651 -96.914)" opacity="0.1"/>
      <path id="Path_7825" data-name="Path 7825" d="M149.8,165.793H111.68c.084-.283.168-.573.26-.863h37.672C149.673,165.22,149.742,165.51,149.8,165.793Z" transform="translate(-97.414 -97.675)" opacity="0.1"/>
      <path id="Path_7826" data-name="Path 7826" d="M150.154,169.005H110.74l.244-.855h38.948C150.016,168.44,150.085,168.723,150.154,169.005Z" transform="translate(-97.192 -98.436)" opacity="0.1"/>
      <path id="Path_7827" data-name="Path 7827" d="M150.5,172.223H109.87c.069-.267.145-.557.221-.863h40.215C150.368,171.65,150.444,171.933,150.5,172.223Z" transform="translate(-96.987 -99.195)" opacity="0.1"/>
      <path id="Path_7828" data-name="Path 7828" d="M150.863,175.443H109.09l.206-.863h41.376C150.734,174.9,150.795,175.16,150.863,175.443Z" transform="translate(-96.802 -99.956)" opacity="0.1"/>
      <path id="Path_7829" data-name="Path 7829" d="M151.214,178.655h-42.9l.206-.855H151.03Z" transform="translate(-96.618 -100.717)" opacity="0.1"/>
      <path id="Path_7830" data-name="Path 7830" d="M151.549,181.873H107.53l.206-.863h43.629C151.419,181.3,151.5,181.583,151.549,181.873Z" transform="translate(-96.434 -101.475)" opacity="0.1"/>
      <path id="Path_7831" data-name="Path 7831" d="M151.884,185.093H106.75l.206-.863h44.752C151.769,184.52,151.83,184.818,151.884,185.093Z" transform="translate(-96.249 -102.236)" opacity="0.1"/>
      <path id="Path_7832" data-name="Path 7832" d="M152.21,188.3H106l.206-.863h45.821C152.1,187.73,152.157,188.02,152.21,188.3Z" transform="translate(-96.072 -102.995)" opacity="0.1"/>
      <path id="Path_7833" data-name="Path 7833" d="M152.508,191.523H105.16c.076-.283.145-.573.214-.863h46.944C152.386,190.92,152.455,191.24,152.508,191.523Z" transform="translate(-95.874 -103.756)" opacity="0.1"/>
      <path id="Path_7834" data-name="Path 7834" d="M152.815,194.733H104.42c.069-.283.13-.565.206-.863h48.02C152.7,194.176,152.761,194.458,152.815,194.733Z" transform="translate(-95.699 -104.514)" opacity="0.1"/>
      <path id="Path_7835" data-name="Path 7835" d="M153.1,197.953H103.67c.061-.283.13-.565.2-.863h49.067C152.989,197.388,153.042,197.67,153.1,197.953Z" transform="translate(-95.522 -105.275)" opacity="0.1"/>
      <path id="Path_7836" data-name="Path 7836" d="M153.4,201.173H103c.053-.267.115-.557.191-.863H153.25A3.92,3.92,0,0,0,153.4,201.173Z" transform="translate(-95.363 -106.036)" opacity="0.1"/>
      <path id="Path_7837" data-name="Path 7837" d="M153.577,204.393H102.41a5.8,5.8,0,0,1,.13-.863h50.953C153.523,203.889,153.554,204.171,153.577,204.393Z" transform="translate(-95.224 -106.797)" opacity="0.1"/>
      <path id="Path_7838" data-name="Path 7838" d="M151.97,187l8.087-34.572,3.192-31,16.77,4.452,14.021-2.81,12.532,5.361,17.847-4.04-12.074,32.739-5.086,33.151-13.494,3.345L180.2,187.8l-13.754,4.5Z" transform="translate(-106.936 -87.395)" fill="#ebebeb"/>
      <path id="Path_7839" data-name="Path 7839" d="M170.92,192.808,184.5,126.39l14.021-2.81-13.846,64.73Z" transform="translate(-111.414 -87.903)" fill="#dbdbdb"/>
      <path id="Path_7840" data-name="Path 7840" d="M206.7,194.545l12.807-65.2,17.847-4.04L225.28,158.049,220.194,191.2Z" transform="translate(-119.869 -88.312)" fill="#dbdbdb"/>
      <path id="Path_7841" data-name="Path 7841" d="M236.261,144.71c.557,3.284,3,7.866,2.619,10.31a2.849,2.849,0,0,1-2.337,2.459s2.031,1.848,1.314,4.009c-.367,1.115-2.474,1.527-2.474,1.527a3.391,3.391,0,0,1,.809,3.437c-.6,1.527-2.619,1.665-2.619,1.665s.809,2.184-.3,3.513c-2.238,2.7-15.594-1.069-16.266-6.575-.313-2.566,2.894-1.466,2.894-1.466s-4.238-2.7-3.528-5.476,4.8-1.092,4.8-1.092-4.086-2.65-3.055-5.453,4.872-.535,4.872-.535-2.406-2.849-1.123-4.819c2.1-3.246,7.583,3.116,10.692,3.253l1.6-4.7Z" transform="translate(-122.137 -92.897)" fill="#dd6a57"/>
      <path id="Path_7842" data-name="Path 7842" d="M242.485,148.244c-.26-3.162,2.154-3.818,2.757-6.8.672-3.337-3.429-3.574-5.995,1.8l-1.657,4.865Z" transform="translate(-127.169 -91.558)" fill="#dd6a57"/>
      <path id="Path_7843" data-name="Path 7843" d="M234.307,173.9a.038.038,0,0,1,0,.076,24.14,24.14,0,0,1-13.532-4.712c-.122-.1,0-.336.137-.26A49.372,49.372,0,0,0,234.307,173.9Z" transform="translate(-123.184 -98.635)" fill="#263238"/>
      <path id="Path_7844" data-name="Path 7844" d="M236.873,166.776c.053,0,0,.1,0,.092a22.521,22.521,0,0,1-14.441-6.056c-.13-.13-.122-.382.046-.244C225.243,162.943,232.467,165.929,236.873,166.776Z" transform="translate(-123.566 -96.635)" fill="#263238"/>
      <path id="Path_7845" data-name="Path 7845" d="M224.75,152.473c3.887,3.559,8.515,5.514,13.563,6.873.061,0,0,.115,0,.115a20.619,20.619,0,0,1-8.133-2.291,13.838,13.838,0,0,1-5.529-4.529C224.575,152.526,224.666,152.4,224.75,152.473Z" transform="translate(-124.105 -94.726)" fill="#263238"/>
      <path id="Path_7846" data-name="Path 7846" d="M116.8,128.447c-8.9,9.867-26.164,35.343-22.842,42.1,4.468,9.1,21.421,22.681,27.493,24.9,2.619.955,13.891-18.031,11.455-19.772-2.9-2.085-19.031-13.563-18.871-14.64s5.231-13.479,8-24.438C125.264,123.926,121.7,123.025,116.8,128.447Z" transform="translate(-93.128 -88.31)" fill="#dd6a57"/>
      <path id="Path_7847" data-name="Path 7847" d="M130.448,187.567s8.194-2.207,13.616-3.406c3.055-.664,8.316-1.336,10.76-.809,3.658.764,18.458,6.43,17.168,10.05-1.168,3.276-13.265-3.185-13.265-3.185s12.784,5.437,10.653,9.118-14.831-5.43-14.831-5.43,12.983,5.88,10.21,9.332c-2.115,2.612-14.082-5-14.082-5s11.142,5.14,9.088,7.912c-2.291,3.055-13.746-3.261-13.746-3.261-6.43,6.178-12.219,7.339-16.037,6.239C129.058,208.851,130.448,187.567,130.448,187.567Z" transform="translate(-101.665 -101.984)" fill="#dd6a57"/>
      <path id="Path_7848" data-name="Path 7848" d="M162.073,189.559c1.527.588,3.055,1.168,4.536,1.886s2.91,1.489,4.307,2.337a27.867,27.867,0,0,1,5.109,3.818,59.832,59.832,0,0,0-9.63-5.773c-1.474-.718-2.887-1.527-4.353-2.23C162,189.6,162,189.544,162.073,189.559Z" transform="translate(-109.31 -103.495)" fill="#263238"/>
      <path id="Path_7849" data-name="Path 7849" d="M158.548,196.44c1.917.832,3.818,1.581,5.728,2.5s3.566,1.94,5.346,2.978c.145.084.053.13-.092.053-1.84-.962-3.62-1.711-5.468-2.658s-3.673-1.955-5.552-2.826Z" transform="translate(-108.481 -105.121)" fill="#263238"/>
      <path id="Path_7850" data-name="Path 7850" d="M154.456,201.8a46.287,46.287,0,0,1,8.462,4.49c.13.084,0,.137-.13.061-2.787-1.527-4.956-2.787-8.4-4.452C154.365,201.875,154.4,201.776,154.456,201.8Z" transform="translate(-107.505 -106.387)" fill="#263238"/>
      <path id="Path_7851" data-name="Path 7851" d="M120.328,149.644l-18.878-3.765s13.3-16.473,18.573-20.215c5.941-4.208,6.8-.252,5.689,6.583S120.328,149.644,120.328,149.644Z" transform="translate(-94.997 -87.987)" fill="#37474f"/>
      <path id="Path_7852" data-name="Path 7852" d="M121.534,152.328c-.634-.229-6.507-1.451-7.79-1.688s-6.514-1.252-7.858-1.39a.046.046,0,0,0,0,.092c1.291.382,6.568,1.428,7.866,1.7s7.14,1.352,7.8,1.382C121.579,152.419,121.579,152.343,121.534,152.328Z" transform="translate(-96.034 -93.97)" fill="#263238"/>
      <path id="Path_7853" data-name="Path 7853" d="M138.631,118.687c-4.162-.466-9.164,3.1-5.453,7.919s7.637,5.758,9.836,5.086c2.6-.817,3.574-6.109,2.933-8.569S142.182,119.084,138.631,118.687Z" transform="translate(-102.188 -86.737)" fill="#455a64"/>
      <path id="Path_7854" data-name="Path 7854" d="M142.476,127.867c-1.741.26-6.873-2.925-8.79-6.361-.13-.237.764-9.745.725-11.646,0-.389,11.959,2.757,11.959,2.757a30.173,30.173,0,0,0-1.069,7.316,4.182,4.182,0,0,0,.092.764v.13C145.668,122.323,145.027,127.524,142.476,127.867Z" transform="translate(-102.612 -84.653)" fill="#dd6a57"/>
      <path id="Path_7855" data-name="Path 7855" d="M135.64,109.94c.481,2.879,2.413,10.936,9.011,11.012a7.636,7.636,0,0,0,1.222-.084v-.13a4.967,4.967,0,0,1-.084-.764,30.348,30.348,0,0,1,1.062-7.316S138.29,110.4,135.64,109.94Z" transform="translate(-103.077 -84.68)" fill="#263238"/>
      <path id="Path_7856" data-name="Path 7856" d="M157.54,85.74s3.6,2.406,3.536,6.529-1.795,8.126-2.176,8.263S157.54,85.74,157.54,85.74Z" transform="translate(-108.252 -78.961)" fill="#263238"/>
      <path id="Path_7857" data-name="Path 7857" d="M135.618,87.32c-2.138,3.872-2.482,16.289-.107,19.573,3.452,4.765,10.356,6.613,14.724,2.184,4.231-4.3,4.391-20.49,1.619-23.605C147.769,80.882,138.772,81.608,135.618,87.32Z" transform="translate(-102.658 -78.189)" fill="#dd6a57"/>
      <path id="Path_7858" data-name="Path 7858" d="M149.12,101.76s-.061,0-.061.076c0,.832-.145,1.795-.909,2.047v.046C149.082,103.83,149.257,102.554,149.12,101.76Z" transform="translate(-106.033 -82.747)" fill="#263238"/>
      <path id="Path_7859" data-name="Path 7859" d="M148.134,100.588c-1.336-.145-1.527,2.543-.29,2.681S149.295,100.71,148.134,100.588Z" transform="translate(-105.765 -82.469)" fill="#263238"/>
      <path id="Path_7860" data-name="Path 7860" d="M155.417,102.115c0-.038.061,0,.061.076-.092.832-.046,1.8.687,2.131v.046C155.241,104.17,155.2,102.887,155.417,102.115Z" transform="translate(-107.725 -82.827)" fill="#263238"/>
      <path id="Path_7861" data-name="Path 7861" d="M156.23,101.05c1.344,0,1.26,2.688,0,2.7S155.077,101.05,156.23,101.05Z" transform="translate(-107.728 -82.579)" fill="#263238"/>
      <path id="Path_7862" data-name="Path 7862" d="M146.781,98.843a8.858,8.858,0,0,0,1.069-.29,1.787,1.787,0,0,0,1.031-.5.573.573,0,0,0-.038-.695,1.405,1.405,0,0,0-1.413-.252,2.077,2.077,0,0,0-1.26.817.6.6,0,0,0,.611.924Z" transform="translate(-105.542 -81.625)" fill="#263238"/>
      <path id="Path_7863" data-name="Path 7863" d="M157.341,98a9.927,9.927,0,0,1-1.046-.351,1.8,1.8,0,0,1-1-.565.573.573,0,0,1,.076-.695,1.428,1.428,0,0,1,1.428-.168,2.093,2.093,0,0,1,1.207.886.6.6,0,0,1-.664.894Z" transform="translate(-107.702 -81.41)" fill="#263238"/>
      <path id="Path_7864" data-name="Path 7864" d="M147.365,111.545c.183.214.367.5.664.542a2.222,2.222,0,0,0,.916-.145s.053,0,0,.046a1.115,1.115,0,0,1-1.092.374.894.894,0,0,1-.6-.764C147.273,111.53,147.342,111.515,147.365,111.545Z" transform="translate(-105.82 -85.056)" fill="#263238"/>
      <path id="Path_7865" data-name="Path 7865" d="M148.777,105.645a2.887,2.887,0,0,0,1.81,1.405,3.772,3.772,0,0,0,1.016.115.848.848,0,0,0,.2,0h.183a.214.214,0,0,0,.183-.176h0V106.9h0v-.076c.069-.641.076-1.627.076-1.627.221.137,1.382.764,1.39.428a42.912,42.912,0,0,0-.489-8.675.076.076,0,1,0-.153,0c-.137,2.681.191,5.346.1,8.057a5.093,5.093,0,0,0-1.314-.5,17.087,17.087,0,0,0,0,2.176,3.948,3.948,0,0,1-2.879-1.123C148.807,105.523,148.738,105.576,148.777,105.645Z" transform="translate(-106.179 -81.591)" fill="#263238"/>
      <path id="Path_7866" data-name="Path 7866" d="M151.1,109.531a3.391,3.391,0,0,1-1.428.947,1.474,1.474,0,0,1-.924,0c-.657-.221-.626-.832-.466-1.344a3.589,3.589,0,0,1,.359-.764,4.322,4.322,0,0,0,2.459,1.161Z" transform="translate(-106.041 -84.309)" fill="#263238"/>
      <path id="Path_7867" data-name="Path 7867" d="M149.69,110.714a1.474,1.474,0,0,1-.924,0c-.657-.221-.626-.832-.466-1.344A1.527,1.527,0,0,1,149.69,110.714Z" transform="translate(-106.046 -84.545)" fill="#ff9cbd"/>
      <path id="Path_7868" data-name="Path 7868" d="M133.574,97.679c1.482.5,3.3-3.956,3.818-5.667.458-1.527,1.062-6.323,1.146-6.652s6.407,4.414,10.2,3.4,6.369-4.338,6.461-5.911-4.5-5.674-8.53-5.972-9.622,4.72-9.622,4.72a18.6,18.6,0,0,0,1.856-2.337,4.333,4.333,0,0,0-3.215,2.65s.573-2.291.374-2.375-2.291,1.909-1.848,3.437c0,0-2.39,1.978-2.658,4.2S131.833,97.106,133.574,97.679Z" transform="translate(-102.095 -76.863)" fill="#263238"/>
      <path id="Path_7869" data-name="Path 7869" d="M153.176,90.17a12.677,12.677,0,0,1-3.582,1.191,8.577,8.577,0,0,1-4.04-.764,12.776,12.776,0,0,1-3.513-2.184c-.916-.764-1.734-1.749-2.719-2.459-.252-.183-.55.176-.4.4a13.464,13.464,0,0,0,6.713,5.178,7.774,7.774,0,0,0,7.56-1.359S153.191,90.162,153.176,90.17Z" transform="translate(-103.842 -79)" fill="#263238"/>
      <path id="Path_7870" data-name="Path 7870" d="M145.48,105.307a3.7,3.7,0,1,1,4.277-3.979h0a3.711,3.711,0,0,1-3.36,4.009A3.658,3.658,0,0,1,145.48,105.307Zm1.107-6.812a3.444,3.444,0,0,0-.764,0,3.207,3.207,0,1,0,.764,0Z" transform="translate(-104.669 -81.85)" fill="#9676ff"/>
      <path id="Path_7871" data-name="Path 7871" d="M156.813,105.71c-1.4-.229-2.428-1.863-2.345-3.818a4.376,4.376,0,0,1,.894-2.551,2.291,2.291,0,0,1,3.933.176,4.444,4.444,0,0,1,.672,2.612c-.092,2.039-1.4,3.643-2.917,3.574Zm.764-6.873h-.191a1.955,1.955,0,0,0-1.611.832,3.979,3.979,0,0,0-.764,2.291c-.076,1.756.871,3.238,2.115,3.291s2.291-1.336,2.4-3.055a3.88,3.88,0,0,0-.588-2.291,2.024,2.024,0,0,0-1.39-1.069Z" transform="translate(-107.525 -81.931)" fill="#9676ff"/>
      <path id="Path_7872" data-name="Path 7872" d="M151.758,102.631l-.3-.4c.58-.443,1.9-1.023,2.757,0l-.374.321C153.079,101.638,151.811,102.585,151.758,102.631Z" transform="translate(-106.815 -82.724)" fill="#9676ff"/>
      <path id="Path_7873" data-name="Path 7873" d="M131.068,102.715l-.428-.244c.115-.2,1.153-1.955,2.291-2.085a68.772,68.772,0,0,1,7.186.664l-.069.489a62.772,62.772,0,0,0-7.056-.664C132.228,100.958,131.343,102.233,131.068,102.715Z" transform="translate(-101.895 -82.418)" fill="#9676ff"/>
      <path id="Path_7874" data-name="Path 7874" d="M135.258,101.106s-1.97-4.4-3.918-3.765-.978,6.644.939,7.8a2.146,2.146,0,0,0,3.055-.588Z" transform="translate(-101.809 -81.688)" fill="#dd6a57"/>
      <path id="Path_7875" data-name="Path 7875" d="M132.084,99.6s-.046.038,0,.053a5.4,5.4,0,0,1,2.115,3.818,1.184,1.184,0,0,0-1.68-.649v.092a1.321,1.321,0,0,1,1.336.718,6.745,6.745,0,0,1,.458,1.283c.046.145.29.115.267,0h0C134.978,103.029,134.031,100.165,132.084,99.6Z" transform="translate(-102.231 -82.236)" fill="#263238"/>
    </g>
  </g>
</svg>
