<svg xmlns="http://www.w3.org/2000/svg" width="299.875" height="288.144" viewBox="0 0 299.875 288.144">
  <g id="Push_notifications-pana" data-name="Push notifications-pana" transform="translate(-22.74 -39.59)">
    <g id="freepik--background-complete--inject-186" transform="translate(44.267 39.59)">
      <rect id="Rectangle_2721" data-name="Rectangle 2721" width="59.025" height="97.711" transform="translate(1.961)" fill="#e0e0e0"/>
      <rect id="Rectangle_2722" data-name="Rectangle 2722" width="59.025" height="97.711" fill="#ebebeb"/>
      <rect id="Rectangle_2723" data-name="Rectangle 2723" width="54.004" height="93.743" transform="translate(2.514 1.981)" fill="#fafafa"/>
      <rect id="Rectangle_2724" data-name="Rectangle 2724" width="33.204" height="69.382" transform="translate(12.797 14.164)" fill="#ebebeb"/>
      <path id="Path_7618" data-name="Path 7618" d="M74.21,115.265c-.08-6.482,5.748-12.811,12.164-13.711,3.061-.433,6.315.173,9.176-1,5.1-2.094,6.729-8.876,11.864-10.883l.233,50.149H74.21Z" transform="translate(-61.412 -56.273)" fill="#e0e0e0"/>
      <rect id="Rectangle_2725" data-name="Rectangle 2725" width="56.611" height="59.012" transform="translate(221.737 3.661)" fill="#e0e0e0"/>
      <rect id="Rectangle_2726" data-name="Rectangle 2726" width="56.611" height="59.012" transform="translate(217.902 3.661)" fill="#fafafa"/>
      <path id="Path_7619" data-name="Path 7619" d="M438.385,104.1H381.74V45.05h56.645Zm-56.611-.033h56.578V45.083H381.773Z" transform="translate(-163.858 -41.409)" fill="#e0e0e0"/>
      <rect id="Rectangle_2727" data-name="Rectangle 2727" width="41.393" height="43.147" transform="translate(225.511 11.59)" fill="#fafafa"/>
      <path id="Path_7620" data-name="Path 7620" d="M389.406,122.1a6.515,6.515,0,0,1-1.02,1.187c-.667.7-1.594,1.641-2.634,2.668s-2,1.941-2.7,2.587a6.42,6.42,0,0,1-1.2,1,6.79,6.79,0,0,1,1.02-1.187c.667-.667,1.587-1.641,2.634-2.668s2-1.947,2.708-2.594A6.55,6.55,0,0,1,389.406,122.1Z" transform="translate(-163.894 -67.076)" fill="#e0e0e0"/>
      <path id="Path_7621" data-name="Path 7621" d="M455.25,121.94a7.09,7.09,0,0,1,1.187,1.02c.667.667,1.64,1.594,2.668,2.667s1.934,2,2.587,2.708a6.286,6.286,0,0,1,.994,1.194,6.667,6.667,0,0,1-1.18-1.014c-.7-.667-1.647-1.594-2.668-2.668s-1.947-2-2.594-2.708A6.3,6.3,0,0,1,455.25,121.94Z" transform="translate(-188.346 -67.023)" fill="#e0e0e0"/>
      <path id="Path_7622" data-name="Path 7622" d="M455.08,53.436a6.515,6.515,0,0,1,1.02-1.187c.667-.667,1.587-1.647,2.627-2.668s2-1.941,2.708-2.594A6.918,6.918,0,0,1,462.629,46a6.67,6.67,0,0,1-1.014,1.18c-.667.7-1.594,1.647-2.668,2.668s-2,1.947-2.708,2.594A7.4,7.4,0,0,1,455.08,53.436Z" transform="translate(-188.289 -41.725)" fill="#e0e0e0"/>
      <path id="Path_7623" data-name="Path 7623" d="M389.282,53.529a6.515,6.515,0,0,1-1.187-1.02c-.7-.667-1.641-1.587-2.668-2.628s-1.941-2-2.588-2.708a6.81,6.81,0,0,1-1-1.194,6.536,6.536,0,0,1,1.187,1.014c.667.667,1.64,1.594,2.668,2.667s1.947,2,2.594,2.708A6.575,6.575,0,0,1,389.282,53.529Z" transform="translate(-163.891 -41.719)" fill="#e0e0e0"/>
      <path id="Path_7624" data-name="Path 7624" d="M434.38,100.027a1.274,1.274,0,0,1,0-.207c0-.147,0-.347,0-.607V96.886c0-2.041,0-5.015-.04-8.789,0-7.562-.047-18.326-.08-31.217l.16.16H393.147l.18-.187V100l-.16-.153,29.889.08,8.389.04h3a.968.968,0,0,1-.187,0h-2.794l-8.356.04-30.01.08h-.16V56.7h41.626v.2c-.04,12.937-.067,23.734-.087,31.343,0,3.761,0,6.722-.04,8.756V99.88C434.44,100.02,434.38,100.034,434.38,100.027Z" transform="translate(-167.589 -45.29)" fill="#e0e0e0"/>
      <rect id="Rectangle_2728" data-name="Rectangle 2728" width="13.811" height="13.811" transform="translate(239.302 26.262)" fill="#ebebeb"/>
      <path id="Path_7625" data-name="Path 7625" d="M342.942,447.158c-1.174-1.007-3.8-4.2-1.774-7.923.74-1.334,2.321-2.041,3.741-2.668a16.009,16.009,0,0,0,4.108-2.127c2.227-1.894,2.841-5.035,4.321-7.562,1.694-2.9,4.862-5.075,8.209-4.922,3.828.173,7.022,3.3,8.469,6.869s1.5,7.529,1.534,11.384c0,2.127-.08,4.528-1.647,5.969-1.44,1.334-3.608,1.334-5.568,1.28l-20.933-.667" transform="translate(-150.094 -166.962)" fill="#f5f5f5"/>
      <path id="Path_7626" data-name="Path 7626" d="M376.747,373.43H321.69l9.916,59.132a6.6,6.6,0,0,0,4.7,5.268l.193.053c.16.04.32.093.487.127a6.938,6.938,0,0,0,1.12.127v.06l.267-.047h24.541a6.931,6.931,0,0,0,1.334-.133,6.629,6.629,0,0,0,5.568-5.782l4.782-40.746.213-1.621h0l1.887-16.132Zm-10.39,37.725h-5.648L361.283,394h6.542Zm2-17.159h5.415l-2,17.159h-4.862ZM352.22,430.181l-.313-14.918h8.143l-.5,14.911Zm-8.783-14.918h7.9l.347,14.911h-7.116Zm.614,14.911h-6.629c-.634-4-1.454-9.256-2.341-14.911h7.809Zm-.934-19.019L341.783,394h9.07l.387,17.159Zm8.669,0L351.393,394h9.336l-.567,17.159Zm-.487-21.28-.367-15.892h10.457l-.527,15.892Zm-.547,0h-9.29l-1.234-15.892h10.163Zm-9.843,0h-9.83c-.347-2.194-.667-4.268-.974-6.142-1.027-6.422-1.414-8.843-1.627-9.75h11.2Zm.32,4.121,1.34,17.159h-8.136c-.273-1.741-.547-3.5-.827-5.262-.634-4.055-1.274-8.1-1.874-11.9ZM333.9,411.155h-5.335L325.685,394h5.488C332.02,399.292,332.947,405.193,333.9,411.155Zm.667,4.115c.814,5.162,1.607,10.25,2.341,14.911H331.8l-2.567-14.918Zm25.548,14.911.5-14.911h5.435l-1.274,14.911Zm1.334-40.306.527-15.892h7.6l-1.334,15.892Zm-33.457-15.892c.22,1.147,1.22,7.4,2.567,15.892h-5.528l-2.667-15.892Zm41.58,56.2h-4.255l1.26-14.918h4.728Zm4.728-40.306h-5.542l1.334-15.892h6.049Z" transform="translate(-143.854 -150.8)" fill="#e0e0e0"/>
    </g>
    <g id="freepik--Floor--inject-186" transform="translate(22.74 327.388)">
      <path id="Path_7627" data-name="Path 7627" d="M308.5,471.323c0,.1-63.974.173-142.872.173s-142.885-.073-142.885-.173,63.96-.173,142.885-.173S308.5,471.23,308.5,471.323Z" transform="translate(-22.74 -471.15)" fill="#263238"/>
    </g>
    <g id="freepik--Character--inject-186" transform="translate(27.691 122.12)">
      <path id="Path_7628" data-name="Path 7628" d="M104.427,219.924a19.806,19.806,0,0,0-3.148-1.44,3.361,3.361,0,0,1-2.161-2.507c-.14-1.707,1.741-2.994,1.854-4.668.153-2.407-3.1-3.721-3.574-6.082-.393-1.961,1.267-3.808,1.2-5.809s-1.8-3.488-2.587-5.335c-1.841-4.255,1.547-9.743-1.02-13.6a19.252,19.252,0,0,0-2.6-2.667,4.314,4.314,0,0,1-1.54-3.274l-4.815-2.187c-1.614-2.467-5.275-2.561-8-1.507s-5.168,2.941-8,3.648c-1.387.34-1.187-1.714-2.587-1.427a7.4,7.4,0,0,0-4.668,4.315c-.56,1.914-.954,4.035-1.634,5.915-.754,2.074-2.974,3.521-3.188,5.722-.24,2.561,2.407,4.668,2.414,7.229,0,2.768-3.054,5.248-2.081,7.842.56,1.48,2.267,2.274,2.868,3.741.82,2-.814,4.255-.667,6.435s1.961,3.781,3.675,5.088a77.3,77.3,0,0,0,21.627,11.884,25.625,25.625,0,0,0,10.5,1.727c3.561-.32,7.142-2,9.01-5.082C106.828,225.379,106.814,221.638,104.427,219.924Z" transform="translate(-39.416 -165.631)" fill="#263238"/>
      <path id="Path_7629" data-name="Path 7629" d="M92.846,171.045a10.163,10.163,0,0,0-17.1-4.668,21.87,21.87,0,0,1-3.054,3.128c-1.374.927-1.574.667-3.108,1.26s-4.355,4.882-4.308,6.535l-.767,7.242c.06,1.694,2.241,2.668,3.841,2.094a7.341,7.341,0,0,0,3.521-3.521c.854-1.467,1.634-3.054,3.034-3.995,2.3-1.62,5.422-1.06,8.176-.5s5.949.967,8.1-.847C93.039,176.18,93.439,173.4,92.846,171.045Z" transform="translate(-41.606 -163.346)" fill="#263238"/>
      <path id="Path_7630" data-name="Path 7630" d="M96.654,185.379c-.313-4.715-3.448-10.49-8.143-10L73.84,179.117a2.761,2.761,0,0,0-2.461,2.808l1.647,35.344H72.92s6,12.637,15.658,9.59c1.921-.607.173-5.375.56-7.536h.093v-.74a23.194,23.194,0,0,0,.06-4.855h0v-4s6-1.014,7.249-8.869C97.2,197.022,96.994,190.614,96.654,185.379Z" transform="translate(-43.894 -167.344)" fill="#ffbe9d"/>
      <path id="Path_7631" data-name="Path 7631" d="M106.454,199.015a1.007,1.007,0,0,1-.974,1.02.967.967,0,0,1-1.04-.907,1.014,1.014,0,0,1,.974-1.02.96.96,0,0,1,1.04.907Z" transform="translate(-54.908 -174.925)" fill="#263238"/>
      <path id="Path_7632" data-name="Path 7632" d="M105.182,194.864c-.12.133-.887-.427-2-.427s-1.874.554-2,.42.067-.3.413-.547a2.781,2.781,0,0,1,1.6-.5,2.668,2.668,0,0,1,1.567.507C105.128,194.6,105.248,194.8,105.182,194.864Z" transform="translate(-53.809 -173.495)" fill="#263238"/>
      <path id="Path_7633" data-name="Path 7633" d="M91.087,199.545a1,1,0,0,1-.967,1.014.96.96,0,0,1-1.04-.907,1,1,0,0,1,.967-1.014.96.96,0,0,1,1.04.907Z" transform="translate(-49.791 -175.102)" fill="#263238"/>
      <path id="Path_7634" data-name="Path 7634" d="M89.2,195.2c-.12.133-.887-.433-2-.427s-1.874.554-2,.42.067-.3.413-.553a2.814,2.814,0,0,1,1.6-.493,2.668,2.668,0,0,1,1.567.5C89.148,194.91,89.262,195.144,89.2,195.2Z" transform="translate(-48.485 -173.608)" fill="#263238"/>
      <path id="Path_7635" data-name="Path 7635" d="M96.885,203.266a6.941,6.941,0,0,1,1.761-.327c.273,0,.54-.08.587-.273a1.467,1.467,0,0,0-.187-.82c-.267-.667-.54-1.367-.827-2.107a32.3,32.3,0,0,1-1.847-5.508,32.438,32.438,0,0,1,2.287,5.335c.273.74.54,1.447.787,2.121a1.6,1.6,0,0,1,.147,1.087.7.7,0,0,1-.453.407,2.233,2.233,0,0,1-.467.067A7.282,7.282,0,0,1,96.885,203.266Z" transform="translate(-52.214 -173.634)" fill="#263238"/>
      <path id="Path_7636" data-name="Path 7636" d="M93.06,225.611a20.006,20.006,0,0,1-10.53-2.781s2.561,5.388,10.423,4.668Z" transform="translate(-47.609 -183.162)" fill="#eb996e"/>
      <path id="Path_7637" data-name="Path 7637" d="M94.856,211.33A1.947,1.947,0,0,0,93.1,210.6a1.774,1.774,0,0,0-1.227.667,1.127,1.127,0,0,0-.087,1.294,1.334,1.334,0,0,0,1.427.353,4.074,4.074,0,0,0,1.38-.827,1.187,1.187,0,0,0,.307-.327.353.353,0,0,0,0-.4" transform="translate(-50.638 -179.084)" fill="#eb996e"/>
      <path id="Path_7638" data-name="Path 7638" d="M92.282,208.91c.173,0,.18,1.167,1.187,2s2.261.7,2.274.867-.28.227-.807.24a2.954,2.954,0,0,1-1.9-.667,2.561,2.561,0,0,1-.92-1.674C92.069,209.2,92.2,208.9,92.282,208.91Z" transform="translate(-50.799 -178.525)" fill="#263238"/>
      <path id="Path_7639" data-name="Path 7639" d="M89.527,192.479c-.107.3-1.194.16-2.461.313s-2.3.507-2.474.247c-.073-.127.107-.407.52-.667a4.1,4.1,0,0,1,1.827-.667,4.181,4.181,0,0,1,1.927.227C89.3,192.113,89.527,192.339,89.527,192.479Z" transform="translate(-48.29 -172.784)" fill="#263238"/>
      <path id="Path_7640" data-name="Path 7640" d="M104.747,190.14c-.187.247-.934,0-1.834,0s-1.654.173-1.834-.087c-.073-.127.047-.373.373-.607a2.668,2.668,0,0,1,2.961.087C104.727,189.767,104.834,190.02,104.747,190.14Z" transform="translate(-53.781 -171.906)" fill="#263238"/>
      <path id="Path_7641" data-name="Path 7641" d="M86.2,171.984l-.667-.854A50.5,50.5,0,0,0,72.312,174.5a10.84,10.84,0,0,0-4.561,2.921c-1.587,1.941-1.841,4.621-2,7.122-.667,9.536-1.26,19.339,1.741,28.429a5.053,5.053,0,0,1,3.474-1.941,15.32,15.32,0,0,0,4-.967,5.408,5.408,0,0,0,2.668-3.441,6.449,6.449,0,0,0-.487-4.375c-.727-1.514-2-2.974-1.707-4.621s2.307-2.708,2.774-4.4c.807-2.928-3.334-5.555-2.474-8.476a4.1,4.1,0,0,1,2.221-2.374c1-.5,2.1-.78,3.114-1.254A9.19,9.19,0,0,0,86.2,171.984Z" transform="translate(-41.839 -165.939)" fill="#263238"/>
      <path id="Path_7642" data-name="Path 7642" d="M151.57,262.23l-9.19,14.3a3.674,3.674,0,0,0,3.228,1.6c2.214-.093,5.255-5.615,5.615-6.729s-.127-2.194.2-2.941a9.2,9.2,0,0,0,.2-2.788C151.576,265.791,153.61,263.07,151.57,262.23Z" transform="translate(-67.546 -196.287)" fill="#ffbe9d"/>
      <path id="Path_7643" data-name="Path 7643" d="M138.57,271.493l4.788-18.933a2.174,2.174,0,0,1,1.02-1.334l6.956-3.968a.96.96,0,0,1,1.247.273h0a.96.96,0,0,1,.153.794l-5.068,19.926Z" transform="translate(-66.277 -191.259)" fill="#263238"/>
      <path id="Path_7644" data-name="Path 7644" d="M130.6,292.695l11.117-20.533-4.188-5.422L121.88,278.61l4.1,11.284Z" transform="translate(-60.717 -197.789)" fill="#9676ff"/>
      <path id="Path_7645" data-name="Path 7645" d="M150.717,274.023a4.8,4.8,0,0,0,.213-.847,6.315,6.315,0,0,0-.233-2.374v-.093a1.28,1.28,0,0,0,.14-1.054,2.041,2.041,0,0,0-.78-.967l-.12-.08.08-.127,1.26-1.881a2.42,2.42,0,0,0,.293-.487.667.667,0,0,0-.04-.493,2.361,2.361,0,0,0-.774-.88l-.16-.113.127-.147c.34-.387.72-.774,1.1-1.167a24.839,24.839,0,0,0,1.834-2.114,6.369,6.369,0,0,0,.667-1.087,1.654,1.654,0,0,0,.167-.547c0-.173-.067-.267-.167-.287h-.04a1.233,1.233,0,0,0-.627.1,6.912,6.912,0,0,0-.667.287c-.407.22-.787.447-1.134.667-.667.453-1.3.88-1.787,1.234l-1.14.827a1.879,1.879,0,0,1-.42.28,1.9,1.9,0,0,1,.36-.353c.247-.22.614-.527,1.087-.907s1.06-.82,1.754-1.294c.353-.24.727-.48,1.147-.714a5.6,5.6,0,0,1,.667-.313,1.334,1.334,0,0,1,.834-.113h-.04a.547.547,0,0,1,.467.614,1.934,1.934,0,0,1-.187.667,6.459,6.459,0,0,1-.707,1.154,22.875,22.875,0,0,1-1.854,2.154c-.38.393-.76.78-1.1,1.16v-.26a2.667,2.667,0,0,1,.894,1.04,1.014,1.014,0,0,1,.04.727,2.532,2.532,0,0,1-.333.553c-.453.667-.887,1.294-1.294,1.881v-.213a2.308,2.308,0,0,1,.867,1.134,1.54,1.54,0,0,1-.18,1.26v-.093a5.928,5.928,0,0,1,.127,2.454,2.407,2.407,0,0,1-.207.634C150.771,273.963,150.731,274.03,150.717,274.023Z" transform="translate(-69.588 -195.196)" fill="#eb996e"/>
      <path id="Path_7646" data-name="Path 7646" d="M154.5,247.72a2.821,2.821,0,0,1-.574.4c-.38.24-.934.58-1.627.994l-2.434,1.46-1.44.834a6.668,6.668,0,0,0-1.454.954,2.975,2.975,0,0,0-.734,1.5c-.147.56-.287,1.094-.42,1.614l-.727,2.728c-.213.774-.393,1.4-.527,1.827a2.736,2.736,0,0,1-.233.667,2.421,2.421,0,0,1,.107-.667c.087-.44.233-1.074.413-1.854s.413-1.734.667-2.748q.187-.78.4-1.621a3.334,3.334,0,0,1,.814-1.667,7.442,7.442,0,0,1,1.534-1l1.454-.814,2.467-1.334c.707-.387,1.28-.667,1.681-.894a2.614,2.614,0,0,1,.634-.38Z" transform="translate(-68.196 -191.453)" fill="#455a64"/>
      <path id="Path_7647" data-name="Path 7647" d="M152.6,257.1c-.173.413-.193.8-.047.86s.407-.22.58-.634.193-.794.047-.86S152.771,256.692,152.6,257.1Z" transform="translate(-70.902 -194.363)" fill="#fff"/>
      <path id="Path_7648" data-name="Path 7648" d="M100.75,240.21h0a19.34,19.34,0,0,1,10.95,9.97l14.925,31.757,12.857,5.215-11.337,3.261-10.07-7.4Z" transform="translate(-53.678 -188.951)" fill="#9676ff"/>
      <path id="Path_7649" data-name="Path 7649" d="M117.932,287.161l-5.415,4.175-27.022-27.8-15.445-27.9,1.787-5.188,11.944,4.975,4.275,6.322.954-8,.767,1.074,1.247,3.381s11.724,9.756,14.258,17.486c2.081,6.475,1.447,19.813,2.748,23.414Z" transform="translate(-43.451 -185.7)" fill="#fafafa"/>
      <path id="Path_7650" data-name="Path 7650" d="M59.658,236.311c-.18.54-11.55,5.108-12.09,9.09s8.169,34.764,8.169,34.764l13.811,12.2h35.471L93.769,271.3a53.5,53.5,0,0,0-9.11-12.377c-3.334-3.374-7.336-7.549-9.43-10.036-2.247-2.7-11.777-15.338-11.777-15.338Z" transform="translate(-35.954 -186.733)" fill="#9676ff"/>
      <path id="Path_7651" data-name="Path 7651" d="M76.38,239.29a14.072,14.072,0,0,1,2,.9c1.22.6,2.894,1.44,4.735,2.394l2.094,1.094-.24.16a15.151,15.151,0,0,1,.22-3.721,5.114,5.114,0,0,1,.393-1.407,14.489,14.489,0,0,1-.187,1.44,18.232,18.232,0,0,0-.1,3.661v.293l-.26-.133L82.969,242.9c-1.841-.954-3.494-1.834-4.668-2.487A14.575,14.575,0,0,1,76.38,239.29Z" transform="translate(-45.56 -188.452)" fill="#263238"/>
      <path id="Path_7652" data-name="Path 7652" d="M110.461,270.074a6.716,6.716,0,0,1-.567-.9l-1.447-2.514c-1.214-2.127-2.908-5.055-4.815-8.263s-3.688-6.082-4.975-8.163l-1.527-2.467a6.436,6.436,0,0,1-.52-.927,5.648,5.648,0,0,1,.667.854c.393.56.947,1.38,1.621,2.407,1.334,2.047,3.148,4.908,5.068,8.123s3.568,6.162,4.728,8.316c.587,1.08,1.047,1.954,1.334,2.567a6.5,6.5,0,0,1,.433.967Z" transform="translate(-52.299 -191.16)" fill="#263238"/>
      <g id="Group_2449" data-name="Group 2449" transform="translate(51.907 86.128)" opacity="0.3">
        <path id="Path_7653" data-name="Path 7653" d="M108.794,306.744a18.5,18.5,0,0,0,6.229.307,5.936,5.936,0,0,0,4.708-3.674,3.908,3.908,0,0,1,.767-1.781c.794-.734,2.061-.28,3.134-.38a3.928,3.928,0,0,0,2.854-2,11.557,11.557,0,0,0,1.194-3.394,5.148,5.148,0,0,0,.213-1.767,1.774,1.774,0,0,0-.92-1.434c-.814-.367-1.734.167-2.454.667A188.073,188.073,0,0,0,108,307.264" transform="translate(-108 -292.498)"/>
      </g>
      <path id="Path_7654" data-name="Path 7654" d="M126.338,272.1s2.034-4.668,3.114-5.335,6.475-3.795,6.475-3.795l-.667,2.567,5.275-3.661c.667-.434,4.408-3.855,5.075-2.521.487.96-2.587,3.494-3,4.061-1.027,1.407-.667,1.28-.667,1.28s1.114.667.554,1.667a22.384,22.384,0,0,1-1.507,2.214s1.467.52.614,2.427a5.121,5.121,0,0,1,.147,2.447c-.24,1.427-2.814,4.128-2.814,4.128l-12.871,6.109-5.175-8.776Z" transform="translate(-60.387 -195.228)" fill="#ffbe9d"/>
      <path id="Path_7655" data-name="Path 7655" d="M71.652,258.328l8.229,17.566,18.279-7.922s7.569,4.415,6.522,9.243L88.211,290.7a14.711,14.711,0,0,1-11.13,3.234h0A14.725,14.725,0,0,1,66.564,287.4l-11.9-18.086L48,258.441a10.15,10.15,0,0,1,.28-11.25,8.2,8.2,0,0,1,2.347-2.207C53.607,243.177,62.436,242.39,71.652,258.328Z" transform="translate(-35.584 -190.231)" fill="#9676ff"/>
      <path id="Path_7656" data-name="Path 7656" d="M142.172,267a15.384,15.384,0,0,1-2.668,1.847,16.185,16.185,0,0,1-2.854,1.567A31.407,31.407,0,0,1,142.172,267Z" transform="translate(-65.637 -197.876)" fill="#eb996e"/>
      <path id="Path_7657" data-name="Path 7657" d="M150.135,266.74a18.3,18.3,0,0,1-2.394,2.587,19.753,19.753,0,0,1-2.621,2.354,19.179,19.179,0,0,1,2.394-2.587,19.659,19.659,0,0,1,2.621-2.354Z" transform="translate(-68.459 -197.789)" fill="#eb996e"/>
      <path id="Path_7658" data-name="Path 7658" d="M150.364,272.68a5.755,5.755,0,0,1-1.12,1.567c-.667.807-1.334,1.42-1.374,1.334A5.848,5.848,0,0,1,149,274.007,5.762,5.762,0,0,1,150.364,272.68Z" transform="translate(-69.375 -199.768)" fill="#eb996e"/>
      <path id="Path_7659" data-name="Path 7659" d="M151.327,276.677c.073.06-.213.487-.574,1.007s-.667.934-.754.887.113-.54.487-1.074S151.24,276.617,151.327,276.677Z" transform="translate(-70.078 -201.097)" fill="#eb996e"/>
      <path id="Path_7660" data-name="Path 7660" d="M91.332,293.558s0-.033.08-.08l.26-.22,1.034-.834,3.948-3.121,14.1-11.03-.06.113a6.9,6.9,0,0,0-.513-2.668,11.2,11.2,0,0,0-1.514-2.474,19.339,19.339,0,0,0-4.668-4h.153l-9.45,4.108-8.829,3.775-.147.06-.073-.14c-2.421-4.768-4.668-9.25-6.922-13.144-1.127-1.954-2.241-3.761-3.294-5.448s-2-3.248-2.994-4.595a16.972,16.972,0,0,0-5.682-5.268c-.393-.233-.76-.413-1.08-.567s-.58-.28-.807-.373l-.493-.22a.85.85,0,0,1-.167-.08,16.291,16.291,0,0,1,5.388,3.1,19.339,19.339,0,0,1,3.021,3.334c1,1.334,2,2.908,3.034,4.588s2.194,3.481,3.334,5.435c2.294,3.895,4.541,8.376,6.976,13.137l-.22-.08,8.8-3.828,9.45-4.1.08-.033.073.047a19.634,19.634,0,0,1,4.748,4.095,11.9,11.9,0,0,1,1.554,2.554,7.482,7.482,0,0,1,.527,2.828v.067l-.06.047-14.164,10.9-4,3.054-1.06.8-.28.2Z" transform="translate(-41.506 -191.33)" fill="#263238"/>
      <path id="Path_7661" data-name="Path 7661" d="M94.924,297.135c-.1-.04.407-1.294.667-2.914s.267-2.974.373-2.981a6.889,6.889,0,0,1,0,3.041,6.789,6.789,0,0,1-1.04,2.854Z" transform="translate(-51.733 -205.951)" fill="#263238"/>
      <path id="Path_7662" data-name="Path 7662" d="M239.82,377.45l9.556,11.97s15.378-5.689,17.339-3.648l-22.534,19.386L228.53,387.153Z" transform="translate(-96.245 -234.669)" fill="#9676ff"/>
      <g id="Group_2450" data-name="Group 2450" transform="translate(145.133 159.273)" opacity="0.6">
        <path id="Path_7663" data-name="Path 7663" d="M247.985,402.674a1.207,1.207,0,0,0,.267,1.594,1.167,1.167,0,0,0,1.587-.247,1.287,1.287,0,0,0-.293-1.694,1.214,1.214,0,0,0-1.621.447" transform="translate(-247.796 -402.18)" fill="#fff"/>
      </g>
      <g id="Group_2451" data-name="Group 2451" transform="translate(146.43 150.611)" opacity="0.6">
        <path id="Path_7664" data-name="Path 7664" d="M251.247,409.07l-1.507-1.881L271.92,389.3s1.38-.427,1.874.38Z" transform="translate(-249.74 -389.191)" fill="#fff"/>
      </g>
      <path id="Path_7665" data-name="Path 7665" d="M259.559,394.75c.093.113-.413.667-.667,1.454s-.127,1.534-.267,1.574-.52-.734-.213-1.721S259.5,394.63,259.559,394.75Z" transform="translate(-106.16 -240.426)" fill="#263238"/>
      <path id="Path_7666" data-name="Path 7666" d="M264.66,393.173c.113.087-.2.667-.173,1.474s.34,1.367.227,1.46-.72-.473-.734-1.454S264.567,393.053,264.66,393.173Z" transform="translate(-108.054 -239.902)" fill="#263238"/>
      <path id="Path_7667" data-name="Path 7667" d="M270.144,394.383c-.08.107-.707-.313-.947-1.154s.08-1.527.2-1.48.087.667.287,1.334S270.244,394.276,270.144,394.383Z" transform="translate(-109.763 -239.432)" fill="#263238"/>
      <path id="Path_7668" data-name="Path 7668" d="M255.336,390.979c.04.14-.594.427-1.18,1s-.9,1.187-1.04,1.147,0-.84.667-1.507S255.316,390.866,255.336,390.979Z" transform="translate(-104.418 -239.162)" fill="#263238"/>
      <g id="Group_2452" data-name="Group 2452" transform="translate(134.393 145.155)" opacity="0.3">
        <path id="Path_7669" data-name="Path 7669" d="M242.767,381.01l1.7,2.134L233.3,392.56l-1.614-1.854Z" transform="translate(-231.69 -381.01)"/>
      </g>
      <path id="Path_7670" data-name="Path 7670" d="M251.166,387.34c.047.04-.333.48-1.134.96a6.616,6.616,0,0,1-1.487.667,7.877,7.877,0,0,1-.947.213,1.9,1.9,0,0,1-.567,0,.667.667,0,0,1-.554-.547.787.787,0,0,1,.267-.667,1.674,1.674,0,0,1,.473-.307,5.3,5.3,0,0,1,2.534-.574,2.474,2.474,0,0,1,1.454.347c0,.08-.573-.047-1.447,0a6.3,6.3,0,0,0-1.494.3,5.481,5.481,0,0,0-.82.36c-.293.14-.5.313-.467.473,0,.06,0,.073.133.1a1.572,1.572,0,0,0,.42,0,8.73,8.73,0,0,0,.887-.167,8.568,8.568,0,0,0,1.447-.52,9.617,9.617,0,0,1,1.3-.64Z" transform="translate(-102.223 -237.877)" fill="#263238"/>
      <path id="Path_7671" data-name="Path 7671" d="M252.249,385.648a2.533,2.533,0,0,1-1.234-.84,4.788,4.788,0,0,1-1.207-2.3,1.227,1.227,0,0,1,.233-1.187.667.667,0,0,1,.74-.087,2,2,0,0,1,.473.313,3.388,3.388,0,0,1,1.167,2.341c.067.96-.28,1.487-.327,1.461a10.679,10.679,0,0,0,0-1.42,3.335,3.335,0,0,0-.554-1.367,2.873,2.873,0,0,0-.58-.634c-.24-.207-.493-.327-.567-.227a.86.86,0,0,0-.073.714,4.167,4.167,0,0,0,.247.847,5.337,5.337,0,0,0,.747,1.334C251.823,385.268,252.3,385.574,252.249,385.648Z" transform="translate(-103.312 -235.905)" fill="#263238"/>
      <path id="Path_7672" data-name="Path 7672" d="M222.3,432.753l-.594,15.658s15.718,5.862,15.892,8.769l-30.41-.06-.073-24.441Z" transform="translate(-89.113 -253.068)" fill="#9676ff"/>
      <g id="Group_2453" data-name="Group 2453" transform="translate(122.314 193.982)" opacity="0.6">
        <path id="Path_7673" data-name="Path 7673" d="M214.46,454.256a1.24,1.24,0,0,0-.86,1.414,1.207,1.207,0,0,0,1.4.867,1.334,1.334,0,0,0,.9-1.507,1.24,1.24,0,0,0-1.547-.74" transform="translate(-213.579 -454.227)" fill="#fff"/>
      </g>
      <g id="Group_2454" data-name="Group 2454" transform="translate(118.081 201.586)" opacity="0.6">
        <path id="Path_7674" data-name="Path 7674" d="M207.23,468.1l.093-2.467,29.1.98s1.334.593,1.2,1.547Z" transform="translate(-207.23 -465.63)" fill="#fff"/>
      </g>
      <path id="Path_7675" data-name="Path 7675" d="M228.352,455.932c0,.147-.747.213-1.48.667s-1.12,1.094-1.26,1.034.087-.914.987-1.474A1.715,1.715,0,0,1,228.352,455.932Z" transform="translate(-95.26 -260.768)" fill="#263238"/>
      <path id="Path_7676" data-name="Path 7676" d="M233.51,457.975c0,.14-.614.393-1.12,1.02s-.667,1.294-.8,1.287-.24-.847.407-1.614S233.5,457.855,233.51,457.975Z" transform="translate(-97.23 -261.477)" fill="#263238"/>
      <path id="Path_7677" data-name="Path 7677" d="M237.132,462.481c-.133,0-.34-.714.047-1.527s1.074-1.134,1.14-1.007-.373.553-.667,1.227S237.279,462.467,237.132,462.481Z" transform="translate(-99.052 -262.142)" fill="#263238"/>
      <path id="Path_7678" data-name="Path 7678" d="M227.771,450.412c-.067.133-.747-.073-1.587,0s-1.494.32-1.567.193.553-.667,1.54-.707S227.845,450.292,227.771,450.412Z" transform="translate(-94.939 -258.803)" fill="#263238"/>
      <g id="Group_2455" data-name="Group 2455" transform="translate(118.014 182.787)" opacity="0.3">
        <path id="Path_7679" data-name="Path 7679" d="M222.188,437.44l-.1,2.788-14.945-.16-.013-2.521Z" transform="translate(-207.13 -437.44)"/>
      </g>
      <path id="Path_7680" data-name="Path 7680" d="M227.136,444.7a2.788,2.788,0,0,1-1.52,0,6.991,6.991,0,0,1-2.467-.96,1.74,1.74,0,0,1-.46-.36.667.667,0,0,1-.067-.787.834.834,0,0,1,.667-.34,2,2,0,0,1,.567.08,5.389,5.389,0,0,1,2.354,1.254c.7.667.94,1.207.887,1.234s-.407-.413-1.12-.954a6.3,6.3,0,0,0-1.334-.767,5.13,5.13,0,0,0-.874-.273c-.32-.087-.594-.087-.667.053s-.033.08.033.173a1.5,1.5,0,0,0,.34.26,6.638,6.638,0,0,0,.8.46,8.209,8.209,0,0,0,1.474.567A11.3,11.3,0,0,1,227.136,444.7Z" transform="translate(-94.244 -256.256)" fill="#263238"/>
      <path id="Path_7681" data-name="Path 7681" d="M228.948,443.828a2.387,2.387,0,0,1-.4-1.467,5.028,5.028,0,0,1,.6-2.594,1.267,1.267,0,0,1,.974-.767.713.713,0,0,1,.667.427,2.246,2.246,0,0,1,.16.56,3.474,3.474,0,0,1-.667,2.594c-.6.787-1.22.967-1.234.914a6.4,6.4,0,0,0,.927-1.114,3.5,3.5,0,0,0,.487-1.434,3.268,3.268,0,0,0,0-.88c-.047-.32-.167-.58-.287-.547a1.132,1.132,0,0,0-.54.493,5.024,5.024,0,0,0-.373.827,5.334,5.334,0,0,0-.3,1.521C228.848,443.255,229.028,443.808,228.948,443.828Z" transform="translate(-96.249 -255.173)" fill="#263238"/>
      <path id="Path_7682" data-name="Path 7682" d="M206.77,321.75l30.089,39.986-14.078,12.09L208.3,354.88Z" transform="translate(-88.996 -216.114)" fill="#263238"/>
      <path id="Path_7683" data-name="Path 7683" d="M111.23,317.344s48.415-14.751,52.85-14.565,12.851,16.2,12.851,16.2l-13.591-.493c-3.488,8.556-9.93,17.339-17.185,26.235l-27.789-1.294Z" transform="translate(-57.169 -209.794)" fill="#263238"/>
      <path id="Path_7684" data-name="Path 7684" d="M159.42,307.138c0,.093-4.948,1.654-11.11,3.488s-11.184,3.241-11.21,3.148,4.942-1.654,11.11-3.481S159.394,307.044,159.42,307.138Z" transform="translate(-65.787 -211.245)" fill="#263238"/>
      <path id="Path_7685" data-name="Path 7685" d="M179.062,325.94h13.591a16.005,16.005,0,0,1,15.078,10.67h0a24.674,24.674,0,0,1,1.374,9.376l-1.06,55.351H189.752l-.333-17.672L187.1,350.074l-15.838.667-8.976-.56Z" transform="translate(-74.179 -217.51)" fill="#263238"/>
      <path id="Path_7686" data-name="Path 7686" d="M179.465,325.53a8.987,8.987,0,0,1-.26,1.167,29.147,29.147,0,0,1-.96,3.121,31.455,31.455,0,0,1-2,4.4,35.188,35.188,0,0,1-3.334,4.928,89.442,89.442,0,0,1-7.389,7.809l-2.347,2.261a7.332,7.332,0,0,1-.894.794,8.983,8.983,0,0,1,.794-.894c.527-.56,1.334-1.334,2.274-2.334a106.156,106.156,0,0,0,7.289-7.856,35.832,35.832,0,0,0,5.375-9.2c.48-1.28.847-2.334,1.06-3.068a7.436,7.436,0,0,1,.393-1.134Z" transform="translate(-74.175 -217.374)" fill="#455a64"/>
      <path id="Path_7687" data-name="Path 7687" d="M204.585,326.21a24.269,24.269,0,0,1-2.474-.12c-1.52-.087-3.628-.147-5.949-.1s-4.428.187-5.955.287a19.5,19.5,0,0,1-2.467.127,2.668,2.668,0,0,1,.667-.14c.42-.067,1.034-.147,1.794-.233,1.52-.16,3.628-.34,6-.387a51.751,51.751,0,0,1,6,.207c.76.067,1.374.153,1.8.22A2.739,2.739,0,0,1,204.585,326.21Z" transform="translate(-82.657 -217.406)" fill="#455a64"/>
      <path id="Path_7688" data-name="Path 7688" d="M201.92,401.138a2.573,2.573,0,0,1-.053-.46c0-.34-.04-.774-.073-1.334-.053-1.194-.127-2.848-.213-4.868-.18-4.108-.427-9.783-.82-16.045s-.86-11.93-1.2-16.005c-.167-2-.3-3.668-.393-4.855-.04-.547-.067-.987-.093-1.334a1.906,1.906,0,0,1,0-.467,3.553,3.553,0,0,1,.073.46l.16,1.334c.127,1.18.293,2.828.507,4.842.4,4.095.9,9.763,1.3,16.005s.6,11.95.72,16.065c.04,2,.08,3.674.107,4.868v1.334A2.053,2.053,0,0,1,201.92,401.138Z" transform="translate(-86.427 -227.447)" fill="#263238"/>
      <path id="Path_7689" data-name="Path 7689" d="M232.192,352.84c.1,0,.033,12.671-.14,28.3s-.4,28.3-.493,28.3-.033-12.671.147-28.3S232.1,352.84,232.192,352.84Z" transform="translate(-97.239 -226.471)" fill="#455a64"/>
      <path id="Path_7690" data-name="Path 7690" d="M206.5,349.74a31.968,31.968,0,0,0-3.908,1.841,32.283,32.283,0,0,0-3.408,2.668,3.668,3.668,0,0,1,.8-1.007,12.671,12.671,0,0,1,5.255-3.221,3.768,3.768,0,0,1,1.26-.28Z" transform="translate(-86.468 -225.438)" fill="#263238"/>
      <g id="Group_2456" data-name="Group 2456" transform="translate(88.111 109.04)" opacity="0.3">
        <path id="Path_7691" data-name="Path 7691" d="M162.29,350.459a15.941,15.941,0,0,0,10.9-2.421,14.671,14.671,0,0,0,6.4-8.669c.407-1.594.527-3.248.934-4.842A7.269,7.269,0,0,1,183,330.346c1.547-1.154,5.335-1.887,6.5-3.434,0-.227-4.521.293-6.035.38-1.654.087-4.421.507-4.361.313a41.075,41.075,0,0,1-1.6,4.715c-3.294,5.662-10.53,14-15.211,18.166" transform="translate(-162.29 -326.855)"/>
      </g>
      <path id="Path_7692" data-name="Path 7692" d="M49.16,420.94,54.308,454.6h5.1L56.9,421.073Z" transform="translate(-36.493 -249.157)" fill="#263238"/>
      <path id="Path_7693" data-name="Path 7693" d="M184.95,421.073V454.6h5.388l2.007-33.657Z" transform="translate(-81.727 -249.157)" fill="#263238"/>
      <path id="Path_7694" data-name="Path 7694" d="M41.919,265s-7.209.287-9.416,3.334c-3.888,5.335-1.7,9.95-1.921,11.524s12.251,89.135,12.251,89.135h5.135l92.789.86,4.481-10.823-2.147-29.283-24.814.107s-10.163-29.169-19.046-31.116c-6-1.334-20.146-.854-28.676-.413a11.87,11.87,0,0,1-10.583-5.408Z" transform="translate(-30.165 -197.21)" fill="#455a64"/>
      <path id="Path_7695" data-name="Path 7695" d="M126.687,366.551s-.513.067-1.5.113-2.441.08-4.321.093c-3.768.053-9.23.067-16.005.06-13.611,0-32.584-.113-54.017-.3H50.7v-.133c-.387-1.834-.78-3.721-1.18-5.635s-.78-3.875-1.174-5.842c-4.668-23.754-7.389-45.521-8.856-61.306-.74-7.889-1.18-14.291-1.46-18.719-.12-2.2-.22-3.915-.28-5.095,0-.573-.047-1.014-.067-1.334a2.472,2.472,0,0,1,0-.453,3.316,3.316,0,0,0,.047.453c.047.3.053.754.093,1.334.08,1.174.2,2.888.347,5.088.32,4.421.8,10.817,1.567,18.706,1.487,15.765,4.228,37.512,8.883,61.253q.587,2.954,1.174,5.835t1.18,5.635l-.167-.133,54.017.42,16.005.04h4.321c.493,0,.86-.04,1.114-.04Z" transform="translate(-32.667 -198.209)" fill="#263238"/>
      <path id="Path_7696" data-name="Path 7696" d="M167.425,401.926a1.647,1.647,0,0,1,.04-.42c.047-.307.1-.7.173-1.18s.187-1.14.267-1.874.213-1.56.273-2.487.18-1.927.22-3.021.073-2.247.093-3.474a74.085,74.085,0,0,0-.467-7.949,76.48,76.48,0,0,0-1.374-7.842c-.56-2.387-1.16-4.508-1.741-6.275-.26-.887-.56-1.667-.8-2.367s-.46-1.294-.667-1.774l-.413-1.12a1.593,1.593,0,0,1-.12-.4,2.087,2.087,0,0,1,.187.373l.473,1.094a16.946,16.946,0,0,1,.667,1.761c.213.694.574,1.474.854,2.361.607,1.754,1.24,3.881,1.821,6.275a73.105,73.105,0,0,1,1.407,7.876,71.145,71.145,0,0,1,.44,8c0,1.234-.04,2.4-.127,3.494s-.16,2.107-.26,3.028-.227,1.761-.333,2.487-.213,1.334-.32,1.867-.18.867-.24,1.174a2,2,0,0,1-.053.393Z" transform="translate(-74.385 -229.436)" fill="#263238"/>
      <path id="Path_7697" data-name="Path 7697" d="M67.69,323.295a2.494,2.494,0,0,1,.373-.313c.287-.22.667-.5,1.12-.86l.82-.607c.307-.207.667-.407,1.034-.634a22.919,22.919,0,0,1,2.581-1.44l1.547-.727c.534-.267,1.127-.46,1.721-.707s1.214-.5,1.867-.707l2-.667a58.146,58.146,0,0,1,9.236-1.921,67.01,67.01,0,0,1,9.4-.574c1.447,0,2.821.093,4.108.14a33.869,33.869,0,0,1,3.561.353,47.6,47.6,0,0,1,5.095.94l1.334.373a3.13,3.13,0,0,1,.467.153,2.52,2.52,0,0,1-.487-.087l-1.374-.313c-1.187-.247-2.928-.573-5.095-.82-1.08-.14-2.274-.207-3.548-.313a38.836,38.836,0,0,0-4.095-.107,70.9,70.9,0,0,0-9.336.594,60.268,60.268,0,0,0-9.17,1.881l-2,.62c-.667.2-1.26.467-1.861.667s-1.187.427-1.721.667-1.054.493-1.547.727A25.166,25.166,0,0,0,71.131,321c-.373.213-.727.407-1.047.6l-.827.587-1.154.8a2.858,2.858,0,0,1-.413.307Z" transform="translate(-42.665 -213.578)" fill="#263238"/>
      <path id="Path_7698" data-name="Path 7698" d="M114.723,335a.611.611,0,0,1-.067.22c-.067.147-.113.353-.227.634a8.737,8.737,0,0,1-1.367,2.181,11.243,11.243,0,0,1-3.208,2.521,16.008,16.008,0,0,1-2.361.98,16.287,16.287,0,0,1-2.814.574,23.077,23.077,0,0,1-6.535-.373c-2.327-.414-4.748-1.087-7.336-1.7a32.578,32.578,0,0,0-8.149-1.08,15.426,15.426,0,0,0-4.268.667,13.218,13.218,0,0,0-3.961,2,23.147,23.147,0,0,0-5.788,6.6c-1.527,2.421-2.734,4.922-4,7.236a36.207,36.207,0,0,1-4.175,6.222,15.465,15.465,0,0,1-5.128,4.048,13.037,13.037,0,0,1-5.255,1.287,9.823,9.823,0,0,1-4-.747,7.913,7.913,0,0,1-1.334-.714c-.347-.26-.667-.487-.854-.667l-.46-.487c-.107-.113-.153-.173-.153-.173a1.773,1.773,0,0,1,.173.147l.487.46c.22.187.52.4.86.667a8.25,8.25,0,0,0,1.334.667,9.77,9.77,0,0,0,3.941.667,13.058,13.058,0,0,0,5.155-1.267,15.338,15.338,0,0,0,5.022-4,36.259,36.259,0,0,0,4.108-6.215c1.274-2.307,2.481-4.815,4-7.262a23.4,23.4,0,0,1,5.875-6.669,13.765,13.765,0,0,1,4.055-2.054,15.958,15.958,0,0,1,4.368-.667A32.754,32.754,0,0,1,90.9,339.8c2.567.627,4.982,1.334,7.282,1.734a23.454,23.454,0,0,0,6.469.407,15.884,15.884,0,0,0,2.768-.54,15.7,15.7,0,0,0,2.341-.94,11.337,11.337,0,0,0,3.194-2.434A9.909,9.909,0,0,0,114.723,335Z" transform="translate(-34.534 -220.528)" fill="#fff"/>
      <path id="Path_7699" data-name="Path 7699" d="M149.789,395.775l-.293.073-.86.173a10.953,10.953,0,0,0-1.334.42,7.149,7.149,0,0,0-.834.36,8.07,8.07,0,0,0-.92.473,23.153,23.153,0,0,0-4.275,3.168c-1.547,1.4-3.2,3.114-5.228,4.8a18.96,18.96,0,0,1-3.428,2.327,14.273,14.273,0,0,1-2.034.88l-1.1.3a10.7,10.7,0,0,1-1.14.193,14.157,14.157,0,0,1-4.808-.24,20.326,20.326,0,0,1-4.788-1.781,41.867,41.867,0,0,1-8.849-6.382,75.481,75.481,0,0,0-9-7.429,22.807,22.807,0,0,0-5.262-2.621,15.051,15.051,0,0,0-5.615-.78,16.539,16.539,0,0,0-5.335,1.28,33.025,33.025,0,0,0-4.7,2.461c-2.948,1.821-5.628,3.768-8.356,5.255a34.311,34.311,0,0,1-20.42,3.841,27.09,27.09,0,0,1-4.481-.9,2.39,2.39,0,0,1,.3.047l.86.187c.754.16,1.881.367,3.334.533a34.731,34.731,0,0,0,12.317-.847,34.011,34.011,0,0,0,7.949-3.128c2.667-1.487,5.375-3.434,8.329-5.275a33.242,33.242,0,0,1,4.741-2.494A16.906,16.906,0,0,1,90,389.339a15.3,15.3,0,0,1,5.742.794,22.58,22.58,0,0,1,5.335,2.668,74.385,74.385,0,0,1,9.036,7.462,41.694,41.694,0,0,0,8.769,6.349,19.819,19.819,0,0,0,4.715,1.834,13.73,13.73,0,0,0,4.7.253,10.318,10.318,0,0,0,1.12-.187l1.08-.28a14.758,14.758,0,0,0,2-.86,18.286,18.286,0,0,0,3.394-2.281c2-1.661,3.694-3.334,5.255-4.748a22.856,22.856,0,0,1,4.315-3.188,7.608,7.608,0,0,1,.94-.46,5.889,5.889,0,0,1,.847-.353,13.026,13.026,0,0,1,1.38-.393l.867-.14Z" transform="translate(-35.683 -238.623)" fill="#fff"/>
      <path id="Path_7700" data-name="Path 7700" d="M53.525,289.72a3.215,3.215,0,0,1-.18.84,11.479,11.479,0,0,1-.894,2.181,12.824,12.824,0,0,1-13,6.8,11.278,11.278,0,0,1-2.294-.513,3.376,3.376,0,0,1-.8-.333,22.4,22.4,0,0,0,3.121.607,13.078,13.078,0,0,0,12.771-6.669A23.337,23.337,0,0,0,53.525,289.72Z" transform="translate(-32.229 -205.444)" fill="#fff"/>
    </g>
    <g id="freepik--Notifications--inject-186" transform="translate(126.82 118.468)">
      <rect id="Rectangle_2729" data-name="Rectangle 2729" width="135.336" height="43.387" rx="6.94" transform="translate(0.16 0.3)" fill="#fff"/>
      <path id="Path_7701" data-name="Path 7701" d="M309.645,201.557a8.59,8.59,0,0,0,.894-.107,4.568,4.568,0,0,0,2.294-1.22,4.4,4.4,0,0,0,1.067-1.594,5.455,5.455,0,0,0,.327-2.294v-32.05a10.724,10.724,0,0,0-.16-2.668,4.5,4.5,0,0,0-3.955-3.334c-.94-.04-1.934,0-2.921,0l-123.586.053a4.461,4.461,0,0,0-2.087.52,4.508,4.508,0,0,0-1.6,1.427,4.568,4.568,0,0,0-.747,2c-.06.707,0,1.48,0,2.214v32.57a4.548,4.548,0,0,0,.52,1.934A4.5,4.5,0,0,0,182.8,201.3a13.546,13.546,0,0,0,2,.073h18.139l55.544.04,37.445.053,10.183.033H295.934l-37.445.053-55.544.04H184.832a13,13,0,0,1-2.087-.08,4.781,4.781,0,0,1-3.935-4.541c0-.714,0-1.407,0-2.114V164.385c0-.754,0-1.467.033-2.254a4.813,4.813,0,0,1,4.775-4.261l123.552.053h2.941a4.748,4.748,0,0,1,4.155,3.5,4.854,4.854,0,0,1,.16,1.38v33.384a5.436,5.436,0,0,1-.347,2.327,4.668,4.668,0,0,1-3.434,2.814,4.788,4.788,0,0,1-.667.073Z" transform="translate(-178.81 -157.87)" fill="#263238"/>
      <path id="Path_7702" data-name="Path 7702" d="M367.286,169.907a.167.167,0,0,1-.12-.287l3.334-3.194a.173.173,0,0,1,.24,0,.167.167,0,0,1,0,.233l-3.334,3.194a.16.16,0,0,1-.12.053Z" transform="translate(-241.54 -160.704)" fill="#263238"/>
      <path id="Path_7703" data-name="Path 7703" d="M370.619,169.917a.147.147,0,0,1-.113-.047l-3.3-3.221a.16.16,0,0,1,0-.233.167.167,0,0,1,.233,0l3.334,3.228a.167.167,0,0,1,0,.233A.16.16,0,0,1,370.619,169.917Z" transform="translate(-241.552 -160.701)" fill="#263238"/>
      <path id="Path_7704" data-name="Path 7704" d="M213.1,193.383l-1.334-1.927a6.876,6.876,0,0,1-1.26-3.968v-4.335a7.062,7.062,0,0,0-6-6.982V174.1a.954.954,0,0,0-.954-.954h0a.947.947,0,0,0-.947.954v2a7.076,7.076,0,0,0-6.242,7.022v4.488a6.9,6.9,0,0,1-1.474,4.255l-1.167,1.487Z" transform="translate(-183.777 -162.96)" fill="#9676ff"/>
      <path id="Path_7705" data-name="Path 7705" d="M205.874,207.3a3.054,3.054,0,0,0,3.174-.547,2.974,2.974,0,0,0,.8-1.227l-5.648-.04A3.061,3.061,0,0,0,205.874,207.3Z" transform="translate(-187.268 -173.733)" fill="#9676ff"/>
      <path id="Path_7706" data-name="Path 7706" d="M303.175,180.213c0,.093-15.158.173-33.857.173s-33.857-.08-33.857-.173,15.158-.173,33.857-.173S303.175,180.12,303.175,180.213Z" transform="translate(-197.681 -165.255)" fill="#263238"/>
      <path id="Path_7707" data-name="Path 7707" d="M319.083,192.5c0,.093-18.733.173-41.833.173s-41.84-.08-41.84-.173,18.726-.173,41.84-.173S319.083,192.4,319.083,192.5Z" transform="translate(-197.665 -169.349)" fill="#e0e0e0"/>
      <path id="Path_7708" data-name="Path 7708" d="M319.083,199.913c0,.093-18.733.173-41.833.173s-41.84-.08-41.84-.173,18.726-.173,41.84-.173S319.083,199.78,319.083,199.913Z" transform="translate(-197.665 -171.818)" fill="#e0e0e0"/>
      <rect id="Rectangle_2730" data-name="Rectangle 2730" width="92.983" height="29.809" rx="6.94" transform="translate(20.86 50.463)" fill="#fafafa"/>
      <path id="Path_7709" data-name="Path 7709" d="M298.356,263.259a4.145,4.145,0,0,0,.607-.067,4.427,4.427,0,0,0,1.681-.58,4.588,4.588,0,0,0,2.274-3.921v-2.127c0-3.014,0-6.669-.033-10.957v-6.842a6.783,6.783,0,0,0-.147-1.8,4.415,4.415,0,0,0-.807-1.647,4.468,4.468,0,0,0-3.281-1.734l-84.027.04a4.461,4.461,0,0,0-4.321,3.334,5.083,5.083,0,0,0-.14,1.46v20.613a4.862,4.862,0,0,0,.34,1.334,4.5,4.5,0,0,0,4.341,2.708h10.917l37.765.033,25.468.06,6.922.033h-6.922l-25.468.053-37.765.04h-10.89a4.848,4.848,0,0,1-4.668-2.908,5.334,5.334,0,0,1-.36-1.427c-.04-.507,0-.974,0-1.454V238.425a5.335,5.335,0,0,1,.153-1.547,4.8,4.8,0,0,1,4.668-3.608l84.027.06a4.741,4.741,0,0,1,4.295,3.574,6.781,6.781,0,0,1,.147,1.854v19.926a4.6,4.6,0,0,1-.407,1.834,4.715,4.715,0,0,1-1.954,2.147,4.448,4.448,0,0,1-1.707.56,4.24,4.24,0,0,1-.707.033Z" transform="translate(-189.141 -182.987)" fill="#263238"/>
      <path id="Path_7710" data-name="Path 7710" d="M339.395,241.525a.167.167,0,0,1-.12-.053.16.16,0,0,1,0-.233l2.287-2.194a.167.167,0,0,1,.24.233l-2.294,2.194A.153.153,0,0,1,339.395,241.525Z" transform="translate(-232.248 -184.894)" fill="#263238"/>
      <path id="Path_7711" data-name="Path 7711" d="M341.691,241.537a.173.173,0,0,1-.12-.047l-2.267-2.214a.167.167,0,0,1,.233-.233l2.267,2.214a.167.167,0,0,1,0,.233.173.173,0,0,1-.113.047Z" transform="translate(-232.263 -184.9)" fill="#263238"/>
      <path id="Path_7712" data-name="Path 7712" d="M233.461,257.611l-.934-1.334a4.768,4.768,0,0,1-.867-2.728v-2.988a4.855,4.855,0,0,0-4.115-4.795v-1.42a.667.667,0,0,0-.667-.667h0a.667.667,0,0,0-.667.667v1.4a4.855,4.855,0,0,0-4.288,4.822v3.081a4.728,4.728,0,0,1-1.007,2.921l-.807,1.027Z" transform="translate(-192.568 -186.455)" fill="#455a64"/>
      <path id="Path_7713" data-name="Path 7713" d="M228.514,267.21a2.114,2.114,0,0,0,2.181-.373,2,2,0,0,0,.547-.847H227.36a2.127,2.127,0,0,0,1.154,1.22Z" transform="translate(-194.983 -193.887)" fill="#455a64"/>
      <path id="Path_7714" data-name="Path 7714" d="M295.338,248.553c0,.093-10.417.173-23.267.173s-23.261-.08-23.261-.173,10.417-.173,23.261-.173S295.338,248.453,295.338,248.553Z" transform="translate(-202.129 -188.021)" fill="#263238"/>
      <path id="Path_7715" data-name="Path 7715" d="M306.282,256.993c0,.1-12.871.173-28.742.173s-28.749-.073-28.749-.173,12.864-.173,28.749-.173S306.282,256.9,306.282,256.993Z" transform="translate(-202.122 -190.832)" fill="#e0e0e0"/>
      <path id="Path_7716" data-name="Path 7716" d="M306.282,262.053c0,.093-12.871.173-28.742.173s-28.749-.08-28.749-.173,12.864-.173,28.749-.173S306.282,261.96,306.282,262.053Z" transform="translate(-202.122 -192.518)" fill="#e0e0e0"/>
      <rect id="Rectangle_2731" data-name="Rectangle 2731" width="92.282" height="29.583" rx="6.94" transform="translate(21.207 84.907)" fill="#fafafa"/>
      <path id="Path_7717" data-name="Path 7717" d="M298.189,314.693a5.055,5.055,0,0,0,2.267-.64,4.6,4.6,0,0,0,1.9-2.1,4.667,4.667,0,0,0,.393-1.774V290.412a6.42,6.42,0,0,0-.147-1.787,4.382,4.382,0,0,0-.794-1.634,4.468,4.468,0,0,0-3.248-1.747l-83.36.033a4.488,4.488,0,0,0-4.308,3.334,5,5,0,0,0-.153,1.447v20.46a4.742,4.742,0,0,0,.333,1.334,4.488,4.488,0,0,0,4.295,2.714H226.2l37.472.033,25.268.06,6.869.033h0l-6.869.033-25.268.053-37.472.04H215.356a4.848,4.848,0,0,1-4.608-2.914,5.234,5.234,0,0,1-.36-1.42V290.032a5.236,5.236,0,0,1,.167-1.534,4.828,4.828,0,0,1,4.668-3.568l83.36.073A4.7,4.7,0,0,1,302,286.851a4.848,4.848,0,0,1,.834,1.721,7.224,7.224,0,0,1,.147,1.841c0,2.4,0,4.668,0,6.789,0,4.235,0,7.882-.033,10.87v2.107a4.668,4.668,0,0,1-2.374,3.935,4.395,4.395,0,0,1-1.7.553,4.146,4.146,0,0,1-.68.027Z" transform="translate(-189.328 -200.197)" fill="#263238"/>
      <path id="Path_7718" data-name="Path 7718" d="M338.915,293.123a.167.167,0,0,1-.12-.053.16.16,0,0,1,0-.233l2.274-2.181a.173.173,0,0,1,.24,0,.167.167,0,0,1,0,.233l-2.274,2.181A.153.153,0,0,1,338.915,293.123Z" transform="translate(-232.088 -202.088)" fill="#263238"/>
      <path id="Path_7719" data-name="Path 7719" d="M341.212,293.117a.174.174,0,0,1-.12-.047l-2.247-2.214a.167.167,0,1,1,.233-.24l2.247,2.2a.167.167,0,0,1,0,.233.174.174,0,0,1-.113.067Z" transform="translate(-232.104 -202.075)" fill="#263238"/>
      <path id="Path_7720" data-name="Path 7720" d="M233.824,309.091l-.954-1.334a4.668,4.668,0,0,1-.86-2.707V302.1a4.828,4.828,0,0,0-4.088-4.768v-1.407a.667.667,0,0,0-.667-.667h0a.667.667,0,0,0-.667.667v1.387a4.822,4.822,0,0,0-4.248,4.788v3.061a4.708,4.708,0,0,1-1,2.9l-.741,1.027Z" transform="translate(-192.731 -203.638)" fill="#e0e0e0"/>
      <path id="Path_7721" data-name="Path 7721" d="M228.9,318.614a2.107,2.107,0,0,0,2.167-.373,2,2,0,0,0,.54-.84H227.76a2.094,2.094,0,0,0,1.14,1.214Z" transform="translate(-195.116 -211.013)" fill="#e0e0e0"/>
      <path id="Path_7722" data-name="Path 7722" d="M295.215,300.093c0,.1-10.337.173-23.087.173s-23.087-.073-23.087-.173,10.337-.173,23.087-.173S295.215,299.973,295.215,300.093Z" transform="translate(-202.205 -205.19)" fill="#263238"/>
      <path id="Path_7723" data-name="Path 7723" d="M306.1,308.473c0,.1-12.777.173-28.529.173s-28.529-.073-28.529-.173,12.771-.173,28.529-.173S306.1,308.38,306.1,308.473Z" transform="translate(-202.205 -207.982)" fill="#e0e0e0"/>
      <path id="Path_7724" data-name="Path 7724" d="M306.1,313.493c0,.093-12.777.173-28.529.173s-28.529-.08-28.529-.173,12.771-.173,28.529-.173S306.1,313.4,306.1,313.493Z" transform="translate(-202.205 -209.654)" fill="#e0e0e0"/>
    </g>
    <g id="freepik--Plant--inject-186" transform="translate(237.788 191.911)">
      <path id="Path_7725" data-name="Path 7725" d="M431.062,272.73c-6.9,3.581-12.2,9.736-16.005,16.512s-6.262,14.224-8.669,21.607l-2.147,38.085c8.036-13.671,14.485-29.736,16.225-45.488l-5.335-.48c3.588-.547,6.6-3.141,8.509-6.222s2.9-6.629,3.861-10.123l-6.535.96A24.154,24.154,0,0,0,431.062,272.73Z" transform="translate(-364.874 -269.576)" fill="#455a64"/>
      <path id="Path_7726" data-name="Path 7726" d="M431.062,272.73c-6.9,3.581-12.2,9.736-16.005,16.512s-6.262,14.224-8.669,21.607l-2.147,38.085c8.036-13.671,14.485-29.736,16.225-45.488l-5.335-.48c3.588-.547,6.6-3.141,8.509-6.222s2.9-6.629,3.861-10.123l-6.535.96A24.154,24.154,0,0,0,431.062,272.73Z" transform="translate(-364.874 -269.576)" fill="#9676ff"/>
      <g id="Group_2457" data-name="Group 2457" transform="translate(39.366 3.154)" opacity="0.3">
        <path id="Path_7727" data-name="Path 7727" d="M431.062,272.73c-6.9,3.581-12.2,9.736-16.005,16.512s-6.262,14.224-8.669,21.607l-2.147,38.085c8.036-13.671,14.485-29.736,16.225-45.488l-5.335-.48c3.588-.547,6.6-3.141,8.509-6.222s2.9-6.629,3.861-10.123l-6.535.96A24.154,24.154,0,0,0,431.062,272.73Z" transform="translate(-404.24 -272.73)"/>
      </g>
      <path id="Path_7728" data-name="Path 7728" d="M393.832,356.288s-17.439-20.867-17.239-40.793h7.049s-7.656-5.028-7.049-7.849.807-13.484.807-13.484l6.442,1.614s-4.828-2.414-5.435-6.242S379.814,268,379.814,268s7.849,8.256,10.263,16.705,8.756,18.312,6.9,44.074S393.832,356.288,393.832,356.288Z" transform="translate(-355.653 -268)" fill="#9676ff"/>
      <path id="Path_7729" data-name="Path 7729" d="M415.706,369.608s18.893-12.584,23.087-28.642l-5.662-1.54s7.256-2.374,7.382-4.768,2.3-11.017,2.3-11.017l-5.528-.113s4.408-.887,5.735-3.828,3.554-17.619,3.554-17.619-8.116,4.915-11.9,11.184-11.043,12.8-15.185,33.924S415.706,369.608,415.706,369.608Z" transform="translate(-368.691 -279.353)" fill="#9676ff"/>
      <path id="Path_7730" data-name="Path 7730" d="M388.58,295.29a.8.8,0,0,1,.067.213c.04.167.093.38.153.667.133.587.32,1.42.56,2.474s.527,2.394.834,3.928.667,3.281,1.027,5.215c.747,3.868,1.54,8.5,2.347,13.644s1.574,10.823,2.274,16.8,1.214,11.684,1.62,16.879.667,9.883.827,13.818c.093,1.967.14,3.748.187,5.335s.08,2.914.087,4,0,1.934,0,2.534v.667a1.435,1.435,0,0,1,0,.227.732.732,0,0,1,0-.227V380.8c0-.607-.053-1.454-.093-2.541s-.08-2.447-.147-4-.133-3.334-.247-5.335c-.187-3.935-.5-8.616-.9-13.8s-.967-10.89-1.654-16.865-1.467-11.637-2.241-16.785-1.554-9.776-2.267-13.651c-.34-1.934-.667-3.688-.974-5.222s-.547-2.861-.767-3.941-.373-1.894-.493-2.487c-.047-.267-.087-.48-.113-.667A1.148,1.148,0,0,1,388.58,295.29Z" transform="translate(-359.658 -277.091)" fill="#263238"/>
      <path id="Path_7731" data-name="Path 7731" d="M380.968,395.229s-15.958-18.1-20.907-29.043l3.735-1.594a9.7,9.7,0,0,1-7.589-2.487,28.7,28.7,0,0,1-5.162-6.389l4.928-.834a18.326,18.326,0,0,1-10.763-8.343c5.815.96,11.077,4.155,15.412,8.143a77.278,77.278,0,0,1,9.336,10.817,37.019,37.019,0,0,1,3.621,5.962C376.26,377,380.975,388.58,380.968,395.229Z" transform="translate(-345.21 -294.163)" fill="#9676ff"/>
      <path id="Path_7732" data-name="Path 7732" d="M436.939,317.88a.85.85,0,0,1-.073.187l-.24.527c-.233.48-.56,1.154-.967,2-.854,1.741-2.067,4.268-3.528,7.409-2.934,6.275-6.8,15.031-10.61,24.888s-6.842,18.939-8.9,25.555c-1.027,3.334-1.834,6-2.374,7.856-.267.907-.48,1.62-.634,2.134l-.18.553a.884.884,0,0,1-.067.187.853.853,0,0,1,.033-.193c.033-.147.08-.333.14-.567.133-.52.327-1.24.567-2.154.5-1.874,1.267-4.575,2.261-7.889,2-6.669,4.988-15.745,8.8-25.615s7.729-18.619,10.723-24.868c1.494-3.128,2.741-5.642,3.634-7.336.44-.84.78-1.507,1.034-2l.273-.513C436.9,317.96,436.932,317.873,436.939,317.88Z" transform="translate(-366.583 -284.616)" fill="#263238"/>
      <path id="Path_7733" data-name="Path 7733" d="M395.027,415.733a1.2,1.2,0,0,1-.08-.333c-.047-.267-.1-.58-.16-.96-.127-.834-.333-2.041-.627-3.521s-.7-3.228-1.227-5.155-1.2-4-2-6.162-1.707-4.161-2.567-5.955-1.727-3.374-2.487-4.668-1.394-2.347-1.854-3.061l-.513-.827a1.1,1.1,0,0,1-.16-.3,2.028,2.028,0,0,1,.22.26l.573.787c.5.667,1.174,1.714,1.961,3s1.667,2.874,2.567,4.668a61.98,61.98,0,0,1,2.608,6c.82,2.187,1.467,4.275,2,6.209s.894,3.7,1.154,5.195.433,2.708.507,3.548c.04.387.067.707.093.974a1.041,1.041,0,0,1-.007.3Z" transform="translate(-357.915 -306.905)" fill="#263238"/>
      <rect id="Rectangle_2732" data-name="Rectangle 2732" width="34.924" height="7.122" transform="translate(23.247 104.566)" fill="#455a64"/>
      <path id="Path_7734" data-name="Path 7734" d="M385.06,435.48l3.775,23.961h21.1l3.521-23.961Z" transform="translate(-358.485 -323.791)" fill="#455a64"/>
      <path id="Path_7735" data-name="Path 7735" d="M414.479,435.387c0,.107-6.609.187-14.751.187s-14.758-.08-14.758-.187,6.609-.187,14.758-.187S414.479,435.287,414.479,435.387Z" transform="translate(-358.455 -323.698)" fill="#263238"/>
    </g>
  </g>
</svg>
