<svg xmlns="http://www.w3.org/2000/svg" xmlns:xlink="http://www.w3.org/1999/xlink" width="315" height="238.773" viewBox="0 0 315 238.773">
  <defs>
    <linearGradient id="linear-gradient" x1="0.5" y1="1" x2="0.5" gradientUnits="objectBoundingBox">
      <stop offset="0" stop-color="gray" stop-opacity="0.251"/>
      <stop offset="0.54" stop-color="gray" stop-opacity="0.122"/>
      <stop offset="1" stop-color="gray" stop-opacity="0.102"/>
    </linearGradient>
    <linearGradient id="linear-gradient-2" y1="1" y2="0" xlink:href="#linear-gradient"/>
    <linearGradient id="linear-gradient-3" x1="0" y1="0.5" x2="1" y2="0.5" xlink:href="#linear-gradient"/>
    <linearGradient id="linear-gradient-4" x1="2.581" y1="1" x2="2.581" y2="0" xlink:href="#linear-gradient"/>
    <linearGradient id="linear-gradient-5" y1="1" y2="0" xlink:href="#linear-gradient"/>
    <linearGradient id="linear-gradient-6" x1="-25.357" y1="1.001" x2="-25.357" y2="0" xlink:href="#linear-gradient"/>
  </defs>
  <g id="undraw_people_search_wctu" transform="translate(0 0.006)">
    <path id="Path_579" data-name="Path 579" d="M339.373,153.476c-11.075,15.2-7.42,36.887-1.018,54.168,2.144,5.785,4.58,11.9,3.468,18.2-1.358,7.694-7.74,13.459-14.373,16.6a38.087,38.087,0,0,1-37.2-2.4c-9.335-6.223-15.906-16.565-25.422-22.492-15.926-9.915-36.6-5.485-54.327,2.085-12.54,5.355-26.276,12.251-38.5,7.307-8.6-3.479-14.39-12.336-17.437-21.8-1.471-4.571-2.5-9.533-5.431-13.111a20.05,20.05,0,0,0-6.413-4.849c-21.609-11.315-49.4-4.243-70.354-16.868-14.144-8.526-22.947-25.071-26.6-42.466s-2.752-35.756-1.3-53.8c1.035-12.826,2.673-26.531,10.384-36.61C63.013,26.772,76.681,22.538,88.9,24.207s23.182,8.458,32.769,16.562c11.991,10.11,23.023,22.8,37.937,26.641,10.158,2.614,20.95.764,31.51-.054,17.652-1.363,35.241.206,52.723,1.98,16.735,1.7,33.586,3.593,49.436,9.157,11.216,3.938,20.107,11.38,30.667,16.466,6.882,3.315,14.455,4.085,20.933,8.368,7.994,5.276,15.219,14.622,12.874,25.838C355.536,139.827,345.256,145.411,339.373,153.476Z" transform="translate(-43.2 -23.86)" fill="#9676ff" opacity="0.1"/>
    <g id="Group_44" data-name="Group 44" transform="translate(223.408 101.211)" opacity="0.5">
      <path id="Path_580" data-name="Path 580" d="M898.19,524.118s.934-27.654,15.895-43.28a41.918,41.918,0,0,0,11.5-23.9,70.5,70.5,0,0,0,.351-12.891" transform="translate(-879.741 -426.403)" fill="none" stroke="#535461" stroke-miterlimit="10" stroke-width="2"/>
      <path id="Path_581" data-name="Path 581" d="M1000.441,389.415c-1.024,3.089-9.584,10.184-9.584,10.184s-2.622-10.809-1.6-13.895a5.891,5.891,0,1,1,11.182,3.708Z" transform="translate(-944.878 -381.666)" fill="#9676ff"/>
      <path id="Path_582" data-name="Path 582" d="M1007.578,453.4c-2.546,2.037-13.578,3.344-13.578,3.344s3.677-10.5,6.223-12.531a5.89,5.89,0,1,1,7.355,9.188Z" transform="translate(-948.448 -425.48)" fill="#9676ff"/>
      <path id="Path_583" data-name="Path 583" d="M972.321,553.521c-3.219.475-13.411-3.96-13.411-3.96s8.469-7.208,11.689-7.683a5.891,5.891,0,0,1,1.723,11.654Z" transform="translate(-923.284 -496.511)" fill="#9676ff"/>
      <path id="Path_584" data-name="Path 584" d="M926.579,625.813c-3.092,1.013-13.889-1.646-13.889-1.646s7.131-8.534,10.223-9.547a5.891,5.891,0,1,1,3.677,11.193Z" transform="translate(-890.139 -548.51)" fill="#9676ff"/>
      <path id="Path_585" data-name="Path 585" d="M950.13,458.7c1.5,2.885,11.092,8.534,11.092,8.534s.871-11.086-.631-13.974a5.89,5.89,0,0,0-10.45,5.437Z" transform="translate(-916.519 -430.731)" fill="#9676ff"/>
      <path id="Path_586" data-name="Path 586" d="M896.426,539.6c2.3,2.305,13.126,4.829,13.126,4.829s-2.487-10.84-4.781-13.145a5.89,5.89,0,0,0-8.345,8.314Z" transform="translate(-877.245 -487.72)" fill="#9676ff"/>
      <path id="Path_587" data-name="Path 587" d="M859.485,630.139c1.873,2.659,12.121,6.979,12.121,6.979s-.617-11.1-2.492-13.765a5.889,5.889,0,1,0-9.618,6.789Z" transform="translate(-851.137 -553.082)" fill="#9676ff"/>
      <path id="Path_588" data-name="Path 588" d="M875.144,575.629s-8.486-12.345-7-23.96a22.7,22.7,0,0,0-2.682-14.1,38.188,38.188,0,0,0-3.994-5.725" transform="translate(-853.408 -489.359)" fill="none" stroke="#535461" stroke-miterlimit="10" stroke-width="2"/>
      <path id="Path_589" data-name="Path 589" d="M848.87,500.371c.546,1.675-.9,7.519-.9,7.519s-4.619-3.864-5.165-5.536a3.189,3.189,0,1,1,6.062-1.98Z" transform="translate(-839.912 -465.217)" fill="#9676ff"/>
      <path id="Path_590" data-name="Path 590" d="M877.252,522.773c-.45,1.7-4.84,5.825-4.84,5.825s-1.776-5.754-1.327-7.457a3.19,3.19,0,0,1,6.167,1.632Z" transform="translate(-860.251 -479.984)" fill="#9676ff"/>
      <path id="Path_591" data-name="Path 591" d="M892.567,575.379c-1.247,1.242-7.117,2.585-7.117,2.585s1.369-5.864,2.62-7.106a3.19,3.19,0,1,1,4.5,4.526Z" transform="translate(-870.605 -516.675)" fill="#9676ff"/>
      <path id="Path_592" data-name="Path 592" d="M897.591,621.978c-1.021,1.434-6.591,3.745-6.591,3.745s.359-6.011,1.38-7.445a3.189,3.189,0,1,1,5.2,3.694Z" transform="translate(-874.585 -550.383)" fill="#9676ff"/>
      <path id="Path_593" data-name="Path 593" d="M849.306,546.655c1.581.775,7.57.153,7.57.153s-3.188-5.109-4.769-5.881a3.188,3.188,0,0,0-2.8,5.728Z" transform="translate(-843.402 -495.643)" fill="#9676ff"/>
      <path id="Path_594" data-name="Path 594" d="M851.96,599.2c1.743.266,7.27-2.119,7.27-2.119s-4.571-3.921-6.311-4.175a3.189,3.189,0,1,0-.959,6.305Z" transform="translate(-844.645 -533.125)" fill="#9676ff"/>
      <path id="Path_595" data-name="Path 595" d="M865.232,650.588c1.672.566,7.524-.849,7.524-.849s-3.841-4.636-5.513-5.194a3.189,3.189,0,1,0-2.011,6.054Z" transform="translate(-854.539 -570.065)" fill="#9676ff"/>
      <path id="Path_596" data-name="Path 596" d="M848.87,500.371c.546,1.675-.9,7.519-.9,7.519s-4.619-3.864-5.165-5.536a3.189,3.189,0,1,1,6.062-1.98Z" transform="translate(-839.912 -465.217)" fill="#fff" opacity="0.5"/>
      <path id="Path_597" data-name="Path 597" d="M877.252,522.773c-.45,1.7-4.84,5.825-4.84,5.825s-1.776-5.754-1.327-7.457a3.19,3.19,0,0,1,6.167,1.632Z" transform="translate(-860.251 -479.984)" fill="#fff" opacity="0.5"/>
      <path id="Path_598" data-name="Path 598" d="M892.567,575.379c-1.247,1.242-7.117,2.585-7.117,2.585s1.369-5.864,2.62-7.106a3.19,3.19,0,1,1,4.5,4.526Z" transform="translate(-870.605 -516.675)" fill="#fff" opacity="0.5"/>
      <path id="Path_599" data-name="Path 599" d="M897.591,621.978c-1.021,1.434-6.591,3.745-6.591,3.745s.359-6.011,1.38-7.445a3.189,3.189,0,1,1,5.2,3.694Z" transform="translate(-874.585 -550.383)" fill="#fff" opacity="0.5"/>
      <path id="Path_600" data-name="Path 600" d="M849.306,546.655c1.581.775,7.57.153,7.57.153s-3.188-5.109-4.769-5.881a3.188,3.188,0,0,0-2.8,5.728Z" transform="translate(-843.402 -495.643)" fill="#fff" opacity="0.5"/>
      <path id="Path_601" data-name="Path 601" d="M851.96,599.2c1.743.266,7.27-2.119,7.27-2.119s-4.571-3.921-6.311-4.175a3.189,3.189,0,1,0-.959,6.305Z" transform="translate(-844.645 -533.125)" fill="#fff" opacity="0.5"/>
      <path id="Path_602" data-name="Path 602" d="M865.232,650.588c1.672.566,7.524-.849,7.524-.849s-3.841-4.636-5.513-5.194a3.189,3.189,0,1,0-2.011,6.054Z" transform="translate(-854.539 -570.065)" fill="#fff" opacity="0.5"/>
      <path id="Path_603" data-name="Path 603" d="M795.8,687.791h24.138l6.036-36.811H789.77Z" transform="translate(-789.77 -568.048)" fill="#474059"/>
      <path id="Path_604" data-name="Path 604" d="M794.389,650.98l5.638,34.4h20.311l-.4,2.413H795.8L789.77,650.98Z" transform="translate(-789.77 -568.048)" opacity="0.1"/>
    </g>
    <rect id="Rectangle_1182" data-name="Rectangle 1182" width="177.081" height="213.657" transform="translate(56.938 11.11)" fill="url(#linear-gradient)"/>
    <rect id="Rectangle_1183" data-name="Rectangle 1183" width="172.555" height="208.198" transform="translate(59.201 13.843)" fill="#fff"/>
    <rect id="Rectangle_1184" data-name="Rectangle 1184" width="69.588" height="3.395" transform="translate(126.243 37.321)" fill="#c0bccf"/>
    <rect id="Rectangle_1185" data-name="Rectangle 1185" width="69.588" height="3.395" transform="translate(126.243 48.071)" fill="#c0bccf"/>
    <rect id="Rectangle_1186" data-name="Rectangle 1186" width="36.208" height="3.395" transform="translate(142.932 58.82)" fill="#9676ff"/>
    <rect id="Rectangle_1187" data-name="Rectangle 1187" width="69.588" height="3.395" transform="translate(126.243 105.495)" fill="#c0bccf" opacity="0.5"/>
    <rect id="Rectangle_1188" data-name="Rectangle 1188" width="69.588" height="3.395" transform="translate(126.243 116.244)" fill="#c0bccf" opacity="0.5"/>
    <rect id="Rectangle_1189" data-name="Rectangle 1189" width="36.208" height="3.395" transform="translate(142.932 126.994)" fill="#9676ff" opacity="0.5"/>
    <rect id="Rectangle_1190" data-name="Rectangle 1190" width="69.588" height="3.395" transform="translate(126.243 173.668)" fill="#c0bccf" opacity="0.5"/>
    <rect id="Rectangle_1191" data-name="Rectangle 1191" width="69.588" height="3.395" transform="translate(126.243 184.418)" fill="#c0bccf" opacity="0.5"/>
    <rect id="Rectangle_1192" data-name="Rectangle 1192" width="36.208" height="3.395" transform="translate(142.932 195.167)" fill="#9676ff" opacity="0.5"/>
    <g id="Group_45" data-name="Group 45" transform="translate(68.536 98.702)" opacity="0.5">
      <path id="Path_605" data-name="Path 605" d="M323.951,392.034a19.145,19.145,0,0,1-4.631,12.517c-.147.173-.3.342-.455.509q-.116.13-.238.255a18.872,18.872,0,0,1-2.054,1.864l-.051.037a18.8,18.8,0,0,1-3.649,2.24h0a18.959,18.959,0,0,1-2.048.82l-.257.082c-.158.054-.322.1-.484.147l-.065.02a19.329,19.329,0,0,1-10.622,0h-.028c-.283-.082-.566-.167-.826-.26l-.24-.085A18.655,18.655,0,0,1,295.644,409l-.054-.028a19.306,19.306,0,0,1-3.768-2.668l-.093-.088a17.98,17.98,0,0,1-1.644-1.7c-.068-.076-.133-.156-.2-.235-.125-.147-.243-.3-.362-.453a19.236,19.236,0,1,1,34.426-11.8Z" transform="translate(-285.48 -372.798)" fill="#c0bccf"/>
      <path id="Path_606" data-name="Path 606" d="M328.942,409.266l-1.46-.656a5.8,5.8,0,0,0,.028-.668,5.237,5.237,0,0,0,0-.566c-.144-1.488-1.092-2.784-1.762-4.144a11.772,11.772,0,0,1-1.151-3.96c-.178-1.7,0-3.457-.622-5.052a9.116,9.116,0,0,0-2.58-3.312,13.092,13.092,0,0,0-4.144-2.628,7.329,7.329,0,0,0-4.936-.133,10.651,10.651,0,0,0-3.556,2.569A11.949,11.949,0,0,0,306.75,393a9.885,9.885,0,0,0-1.132,3.457,52.864,52.864,0,0,0-.7,5.776c-.11,1.615-.283,3.448-1.663,4.438-.673.484-1.621.755-1.929,1.488a1.522,1.522,0,0,0-.1.693,2.546,2.546,0,0,0,.042.586c.02.113.042.223.071.337a24.8,24.8,0,0,0-1,3.021c-.207.764-.4,1.513-.566,2.24h.7l2.636.062h.037l2.829.065H306l2.636.062h.065l.761.054h.249l10.543.243h.057l.7.017h.246l2.11.048h0l3.112.071h.023l2.342.057h.73l-.124-2.455C329.963,409.5,328.942,409.266,328.942,409.266Zm-11.844-.3c0,2.082-2.229,4.631-2.229,4.631l-2.243-3.055.082-.119,2.161,2.942s2.229-2.546,2.229-4.631a2.453,2.453,0,0,1,.178-.306l.051.158A3.005,3.005,0,0,0,317.1,408.966Zm3.428,8.169a1.7,1.7,0,0,0-.02-.317c-.02-.1-.017-.2-.031-.3s-.025-.2-.04-.3-.034-.2-.054-.3-.04-.2-.062-.3a.474.474,0,0,0-.023-.1q-.047-.2-.1-.4c-.037-.133-.059-.215-.093-.32a.435.435,0,0,0-.045-.141c-.017-.045-.048-.153-.074-.229l-.051-.147c-.023-.065-.045-.133-.071-.2-.042-.119-.088-.235-.133-.354s-.093-.235-.141-.351c-.1-.238-.2-.472-.306-.71-.41-.917-.871-1.819-1.3-2.713a14.44,14.44,0,0,1-.605-1.437l-.054.071a3,3,0,0,0-.229.382c0,2.082-2.229,4.631-2.229,4.631l-2.243-3.055-1.963,2.829a2.289,2.289,0,0,0-.786,1.307c-.062.184-.122.388-.178.6-.04.144-.076.283-.11.444-.02.076-.037.153-.054.232l-.051.24v.037c-.034.164-.068.334-.1.506s-.068.371-.1.566q-.034.184-.059.365c-.04.235-.074.472-.108.71-.02.139-.04.283-.057.41l-.068.526c.144.433.306.849.472,1.284a2.02,2.02,0,0,1,.184.727,20.617,20.617,0,0,0,10.622,0,.094.094,0,0,1,0-.025,2.949,2.949,0,0,1-.068-.721h0a18.633,18.633,0,0,1,.283-2.025,6.916,6.916,0,0,0,.054-1v-.119c-.008-.108-.011-.2-.014-.3Zm0,0a1.7,1.7,0,0,0-.02-.317c-.02-.1-.017-.2-.031-.3s-.025-.2-.04-.3-.034-.2-.054-.3-.04-.2-.062-.3a.474.474,0,0,0-.023-.1q-.047-.2-.1-.4c-.037-.133-.059-.215-.093-.32a.435.435,0,0,0-.045-.141c-.017-.045-.048-.153-.074-.229l-.051-.147c-.023-.065-.045-.133-.071-.2-.042-.119-.088-.235-.133-.354s-.093-.235-.141-.351c-.1-.238-.2-.472-.306-.71-.41-.917-.871-1.819-1.3-2.713a14.44,14.44,0,0,1-.605-1.437l-.054.071a3,3,0,0,0-.229.382c0,2.082-2.229,4.631-2.229,4.631l-2.243-3.055-1.963,2.829a2.289,2.289,0,0,0-.786,1.307c-.062.184-.122.388-.178.6-.04.144-.076.283-.11.444-.02.076-.037.153-.054.232l-.051.24v.037c-.034.164-.068.334-.1.506s-.068.371-.1.566q-.034.184-.059.365c-.04.235-.074.472-.108.71-.02.139-.04.283-.057.41l-.068.526c.144.433.306.849.472,1.284a2.02,2.02,0,0,1,.184.727,20.617,20.617,0,0,0,10.622,0,.094.094,0,0,1,0-.025,2.949,2.949,0,0,1-.068-.721h0a18.633,18.633,0,0,1,.283-2.025,6.916,6.916,0,0,0,.054-1v-.119c-.008-.108-.011-.2-.014-.3Zm0,0a1.7,1.7,0,0,0-.02-.317c-.02-.1-.017-.2-.031-.3s-.025-.2-.04-.3-.034-.2-.054-.3-.04-.2-.062-.3a.474.474,0,0,0-.023-.1q-.047-.2-.1-.4c-.037-.133-.059-.215-.093-.32a.435.435,0,0,0-.045-.141c-.017-.045-.048-.153-.074-.229l-.051-.147c-.023-.065-.045-.133-.071-.2-.042-.119-.088-.235-.133-.354s-.093-.235-.141-.351c-.1-.238-.2-.472-.306-.71-.41-.917-.871-1.819-1.3-2.713a14.44,14.44,0,0,1-.605-1.437l-.054.071a3,3,0,0,0-.229.382c0,2.082-2.229,4.631-2.229,4.631l-2.243-3.055-1.963,2.829a2.289,2.289,0,0,0-.786,1.307c-.062.184-.122.388-.178.6-.04.144-.076.283-.11.444-.02.076-.037.153-.054.232l-.051.24v.037c-.034.164-.068.334-.1.506s-.068.371-.1.566q-.034.184-.059.365c-.04.235-.074.472-.108.71-.02.139-.04.283-.057.41l-.068.526c.144.433.306.849.472,1.284a2.02,2.02,0,0,1,.184.727,20.617,20.617,0,0,0,10.622,0,.094.094,0,0,1,0-.025,2.949,2.949,0,0,1-.068-.721h0a18.633,18.633,0,0,1,.283-2.025,6.916,6.916,0,0,0,.054-1v-.119c-.008-.108-.011-.2-.014-.3Zm0,0a1.7,1.7,0,0,0-.02-.317c-.02-.1-.017-.2-.031-.3s-.025-.2-.04-.3-.034-.2-.054-.3-.04-.2-.062-.3a.474.474,0,0,0-.023-.1q-.047-.2-.1-.4c-.037-.133-.059-.215-.093-.32a.435.435,0,0,0-.045-.141c-.017-.045-.048-.153-.074-.229l-.051-.147c-.023-.065-.045-.133-.071-.2-.042-.119-.088-.235-.133-.354s-.093-.235-.141-.351c-.1-.238-.2-.472-.306-.71-.41-.917-.871-1.819-1.3-2.713a14.44,14.44,0,0,1-.605-1.437l-.054.071a3,3,0,0,0-.229.382c0,2.082-2.229,4.631-2.229,4.631l-2.243-3.055-1.963,2.829a2.289,2.289,0,0,0-.786,1.307c-.062.184-.122.388-.178.6-.04.144-.076.283-.11.444-.02.076-.037.153-.054.232l-.051.24v.037c-.034.164-.068.334-.1.506s-.068.371-.1.566q-.034.184-.059.365c-.04.235-.074.472-.108.71-.02.139-.04.283-.057.41l-.068.526c.144.433.306.849.472,1.284a2.02,2.02,0,0,1,.184.727,20.617,20.617,0,0,0,10.622,0,.094.094,0,0,1,0-.025,2.949,2.949,0,0,1-.068-.721h0a18.633,18.633,0,0,1,.283-2.025,6.916,6.916,0,0,0,.054-1v-.119c-.008-.108-.011-.2-.014-.3Z" transform="translate(-295.735 -383.54)" fill="url(#linear-gradient-2)"/>
      <rect id="Rectangle_1193" data-name="Rectangle 1193" width="13.012" height="8.769" transform="translate(11.881 13.864)" fill="#493545"/>
      <path id="Path_607" data-name="Path 607" d="M342.3,435.3l-5.445,7.672-5.691-.5s-7.426.492-2.475-5.2c2.379-2.735,3.157-5.015,3.324-6.642a5.143,5.143,0,0,0-.354-2.761l6.187-.741a4.616,4.616,0,0,0-.1,2.583C338.516,432.936,342.3,435.3,342.3,435.3Z" transform="translate(-315.244 -411.768)" fill="#c77485"/>
      <path id="Path_608" data-name="Path 608" d="M349.575,429.7a6.184,6.184,0,0,1-5.731.922,5.144,5.144,0,0,0-.354-2.761l6.187-.741A4.616,4.616,0,0,0,349.575,429.7Z" transform="translate(-327.08 -411.754)" opacity="0.1"/>
      <circle id="Ellipse_170" data-name="Ellipse 170" cx="6.187" cy="6.187" r="6.187" transform="translate(12.577 6.58)" fill="#c77485"/>
      <path id="Path_609" data-name="Path 609" d="M337.938,451.095l-.144-.566-.124-.5-.184-.735-.034-.136-.028-.113s.147-.444-.823-.3l-.181.031c-.153.031-.331.074-.535.13l-.184.057-.243.076h0a5.3,5.3,0,0,0-2.054,1.239,4.628,4.628,0,0,0-.687.832c-.02.028-.034.054-.051.076a2.669,2.669,0,0,0-.178.328c0,2.229-2.229,4.95-2.229,4.95l-2.175-3.143-.042-.062-.518-.753-.184-.243-.062-.085-1.131-1.519-.283-.379-.093-.127-.139-.184-.325-.433-1.273.744-1.7.99-.99,6.435v.178l.031.532.207,3.5v.048l-.362,1.448.054.028a18.649,18.649,0,0,0,2.659,1.177l.24.085c.283.093.549.178.826.26a1,1,0,0,1,.023.127v-.122a19.331,19.331,0,0,0,10.622,0l.065-.02c.161-.045.325-.093.484-.147l.257-.082a18.946,18.946,0,0,0,2.048-.82l.238-5.063.17-3.652v-.209Z" transform="translate(-311.11 -427.242)" opacity="0.1"/>
      <path id="Path_610" data-name="Path 610" d="M336.059,461.136a1.956,1.956,0,0,0-.02-.339c-.02-.113-.017-.212-.031-.32s-.025-.215-.04-.323-.034-.215-.054-.322-.04-.215-.062-.322a.484.484,0,0,0-.023-.108c-.031-.141-.065-.283-.1-.427s-.059-.229-.093-.342a.482.482,0,0,0-.045-.15c-.017-.048-.048-.164-.074-.246l-.051-.158c-.023-.071-.045-.141-.071-.212-.042-.127-.088-.252-.133-.379s-.093-.252-.141-.376c-.1-.255-.2-.506-.305-.758-.41-.979-.871-1.943-1.3-2.9a16.035,16.035,0,0,1-.605-1.536l-.054.076a3.266,3.266,0,0,0-.229.407c0,2.226-2.229,4.95-2.229,4.95l-2.243-3.267L326.2,457.1a2.465,2.465,0,0,0-.786,1.4c-.062.2-.122.413-.178.642-.04.153-.076.314-.11.475-.02.082-.037.164-.054.249l-.051.257v.04c-.034.175-.068.356-.1.54s-.068.4-.1.6q-.034.2-.059.39c-.04.252-.074.506-.108.758-.02.147-.04.283-.057.438l-.068.566c.144.464.306.922.472,1.372a2.28,2.28,0,0,1,.184.778,19.33,19.33,0,0,0,10.622,0,.107.107,0,0,1,0-.028,3.367,3.367,0,0,1-.068-.772h0a21.219,21.219,0,0,1,.283-2.164,7.914,7.914,0,0,0,.054-1.064v-.127C336.065,461.34,336.062,461.238,336.059,461.136Zm0,0a1.956,1.956,0,0,0-.02-.339c-.02-.113-.017-.212-.031-.32s-.025-.215-.04-.323-.034-.215-.054-.322-.04-.215-.062-.322a.484.484,0,0,0-.023-.108c-.031-.141-.065-.283-.1-.427s-.059-.229-.093-.342a.482.482,0,0,0-.045-.15c-.017-.048-.048-.164-.074-.246l-.051-.158c-.023-.071-.045-.141-.071-.212-.042-.127-.088-.252-.133-.379s-.093-.252-.141-.376c-.1-.255-.2-.506-.305-.758-.41-.979-.871-1.943-1.3-2.9a16.035,16.035,0,0,1-.605-1.536l-.054.076a3.266,3.266,0,0,0-.229.407c0,2.226-2.229,4.95-2.229,4.95l-2.243-3.267L326.2,457.1a2.465,2.465,0,0,0-.786,1.4c-.062.2-.122.413-.178.642-.04.153-.076.314-.11.475-.02.082-.037.164-.054.249l-.051.257v.04c-.034.175-.068.356-.1.54s-.068.4-.1.6q-.034.2-.059.39c-.04.252-.074.506-.108.758-.02.147-.04.283-.057.438l-.068.566c.144.464.306.922.472,1.372a2.28,2.28,0,0,1,.184.778,19.33,19.33,0,0,0,10.622,0,.107.107,0,0,1,0-.028,3.367,3.367,0,0,1-.068-.772h0a21.219,21.219,0,0,1,.283-2.164,7.914,7.914,0,0,0,.054-1.064v-.127C336.065,461.34,336.062,461.238,336.059,461.136Zm0,0a1.956,1.956,0,0,0-.02-.339c-.02-.113-.017-.212-.031-.32s-.025-.215-.04-.323-.034-.215-.054-.322-.04-.215-.062-.322a.484.484,0,0,0-.023-.108c-.031-.141-.065-.283-.1-.427s-.059-.229-.093-.342a.482.482,0,0,0-.045-.15c-.017-.048-.048-.164-.074-.246l-.051-.158c-.023-.071-.045-.141-.071-.212-.042-.127-.088-.252-.133-.379s-.093-.252-.141-.376c-.1-.255-.2-.506-.305-.758-.41-.979-.871-1.943-1.3-2.9a16.035,16.035,0,0,1-.605-1.536l-.054.076a3.266,3.266,0,0,0-.229.407c0,2.226-2.229,4.95-2.229,4.95l-2.243-3.267L326.2,457.1a2.465,2.465,0,0,0-.786,1.4c-.062.2-.122.413-.178.642-.04.153-.076.314-.11.475-.02.082-.037.164-.054.249l-.051.257v.04c-.034.175-.068.356-.1.54s-.068.4-.1.6q-.034.2-.059.39c-.04.252-.074.506-.108.758-.02.147-.04.283-.057.438l-.068.566c.144.464.306.922.472,1.372a2.28,2.28,0,0,1,.184.778,19.33,19.33,0,0,0,10.622,0,.107.107,0,0,1,0-.028,3.367,3.367,0,0,1-.068-.772h0a21.219,21.219,0,0,1,.283-2.164,7.914,7.914,0,0,0,.054-1.064v-.127C336.065,461.34,336.062,461.238,336.059,461.136Zm3-5.31-1.01-4.031-.173-.69-.048-.19h0l-.246-.984a.177.177,0,0,0,0-.025h0a.226.226,0,0,0-.02-.127c-.037-.074-.13-.15-.348-.17a1.765,1.765,0,0,0-.249,0h0a4.31,4.31,0,0,0-.727.136c-.116.031-.24.065-.373.107l-.243.076H335.6a5.4,5.4,0,0,0-1.782.99,4.808,4.808,0,0,0-.905,1l-.054.076a3.272,3.272,0,0,0-.229.407c0,2.226-2.229,4.95-2.229,4.95l-2.243-3.267-.127-.184-.023-.031-.325-.478-.246-.328-.065-.085-1.16-1.547h0l-.368-.5v-.017l-.127-.173-.243-.322-.849.495-2.122,1.236-.979,6.368v.068l.028.464.209,3.545v.2l-.32,1.276a18.645,18.645,0,0,0,2.659,1.177l.24.085c.283.093.549.178.826.26a1.006,1.006,0,0,1,.023.127V465.6a19.329,19.329,0,0,0,10.622,0l.065-.02c.161-.045.325-.093.484-.147l.257-.082a18.945,18.945,0,0,0,2.048-.82h0l.235-5.058.17-3.612Zm-13.912,9.768a1.012,1.012,0,0,1,.023.127V465.6Zm10.913-4.458a1.956,1.956,0,0,0-.02-.339c-.02-.113-.017-.212-.031-.32s-.025-.215-.04-.323-.034-.215-.054-.322-.04-.215-.062-.322a.484.484,0,0,0-.023-.108c-.031-.141-.065-.283-.1-.427s-.059-.229-.093-.342a.482.482,0,0,0-.045-.15c-.017-.048-.048-.164-.074-.246l-.051-.158c-.023-.071-.045-.141-.071-.212-.042-.127-.088-.252-.133-.379s-.093-.252-.141-.376c-.1-.255-.2-.506-.305-.758-.41-.979-.871-1.943-1.3-2.9a16.035,16.035,0,0,1-.605-1.536l-.054.076a3.266,3.266,0,0,0-.229.407c0,2.226-2.229,4.95-2.229,4.95l-2.243-3.267L326.2,457.1a2.465,2.465,0,0,0-.786,1.4c-.062.2-.122.413-.178.642-.04.153-.076.314-.11.475-.02.082-.037.164-.054.249l-.051.257v.04c-.034.175-.068.356-.1.54s-.068.4-.1.6q-.034.2-.059.39c-.04.252-.074.506-.108.758-.02.147-.04.283-.057.438l-.068.566c.144.464.306.922.472,1.372a2.28,2.28,0,0,1,.184.778,19.33,19.33,0,0,0,10.622,0,.107.107,0,0,1,0-.028,3.367,3.367,0,0,1-.068-.772h0a21.219,21.219,0,0,1,.283-2.164,7.914,7.914,0,0,0,.054-1.064v-.127C336.065,461.34,336.062,461.238,336.059,461.136Zm0,0a1.956,1.956,0,0,0-.02-.339c-.02-.113-.017-.212-.031-.32s-.025-.215-.04-.323-.034-.215-.054-.322-.04-.215-.062-.322a.484.484,0,0,0-.023-.108c-.031-.141-.065-.283-.1-.427s-.059-.229-.093-.342a.482.482,0,0,0-.045-.15c-.017-.048-.048-.164-.074-.246l-.051-.158c-.023-.071-.045-.141-.071-.212-.042-.127-.088-.252-.133-.379s-.093-.252-.141-.376c-.1-.255-.2-.506-.305-.758-.41-.979-.871-1.943-1.3-2.9a16.035,16.035,0,0,1-.605-1.536l-.054.076a3.266,3.266,0,0,0-.229.407c0,2.226-2.229,4.95-2.229,4.95l-2.243-3.267L326.2,457.1a2.465,2.465,0,0,0-.786,1.4c-.062.2-.122.413-.178.642-.04.153-.076.314-.11.475-.02.082-.037.164-.054.249l-.051.257v.04c-.034.175-.068.356-.1.54s-.068.4-.1.6q-.034.2-.059.39c-.04.252-.074.506-.108.758-.02.147-.04.283-.057.438l-.068.566c.144.464.306.922.472,1.372a2.28,2.28,0,0,1,.184.778,19.33,19.33,0,0,0,10.622,0,.107.107,0,0,1,0-.028,3.367,3.367,0,0,1-.068-.772h0a21.219,21.219,0,0,1,.283-2.164,7.914,7.914,0,0,0,.054-1.064v-.127C336.065,461.34,336.062,461.238,336.059,461.136Zm0,0a1.956,1.956,0,0,0-.02-.339c-.02-.113-.017-.212-.031-.32s-.025-.215-.04-.323-.034-.215-.054-.322-.04-.215-.062-.322a.484.484,0,0,0-.023-.108c-.031-.141-.065-.283-.1-.427s-.059-.229-.093-.342a.482.482,0,0,0-.045-.15c-.017-.048-.048-.164-.074-.246l-.051-.158c-.023-.071-.045-.141-.071-.212-.042-.127-.088-.252-.133-.379s-.093-.252-.141-.376c-.1-.255-.2-.506-.305-.758-.41-.979-.871-1.943-1.3-2.9a16.035,16.035,0,0,1-.605-1.536l-.054.076a3.266,3.266,0,0,0-.229.407c0,2.226-2.229,4.95-2.229,4.95l-2.243-3.267L326.2,457.1a2.465,2.465,0,0,0-.786,1.4c-.062.2-.122.413-.178.642-.04.153-.076.314-.11.475-.02.082-.037.164-.054.249l-.051.257v.04c-.034.175-.068.356-.1.54s-.068.4-.1.6q-.034.2-.059.39c-.04.252-.074.506-.108.758-.02.147-.04.283-.057.438l-.068.566c.144.464.306.922.472,1.372a2.28,2.28,0,0,1,.184.778,19.33,19.33,0,0,0,10.622,0,.107.107,0,0,1,0-.028,3.367,3.367,0,0,1-.068-.772h0a21.219,21.219,0,0,1,.283-2.164,7.914,7.914,0,0,0,.054-1.064v-.127C336.065,461.34,336.062,461.238,336.059,461.136Zm0,0a1.956,1.956,0,0,0-.02-.339c-.02-.113-.017-.212-.031-.32s-.025-.215-.04-.323-.034-.215-.054-.322-.04-.215-.062-.322a.484.484,0,0,0-.023-.108c-.031-.141-.065-.283-.1-.427s-.059-.229-.093-.342a.482.482,0,0,0-.045-.15c-.017-.048-.048-.164-.074-.246l-.051-.158c-.023-.071-.045-.141-.071-.212-.042-.127-.088-.252-.133-.379s-.093-.252-.141-.376c-.1-.255-.2-.506-.305-.758-.41-.979-.871-1.943-1.3-2.9a16.035,16.035,0,0,1-.605-1.536l-.054.076a3.266,3.266,0,0,0-.229.407c0,2.226-2.229,4.95-2.229,4.95l-2.243-3.267L326.2,457.1a2.465,2.465,0,0,0-.786,1.4c-.062.2-.122.413-.178.642-.04.153-.076.314-.11.475-.02.082-.037.164-.054.249l-.051.257v.04c-.034.175-.068.356-.1.54s-.068.4-.1.6q-.034.2-.059.39c-.04.252-.074.506-.108.758-.02.147-.04.283-.057.438l-.068.566c.144.464.306.922.472,1.372a2.28,2.28,0,0,1,.184.778,19.33,19.33,0,0,0,10.622,0,.107.107,0,0,1,0-.028,3.367,3.367,0,0,1-.068-.772h0a21.219,21.219,0,0,1,.283-2.164,7.914,7.914,0,0,0,.054-1.064v-.127C336.065,461.34,336.062,461.238,336.059,461.136Zm0,0a1.956,1.956,0,0,0-.02-.339c-.02-.113-.017-.212-.031-.32s-.025-.215-.04-.323-.034-.215-.054-.322-.04-.215-.062-.322a.484.484,0,0,0-.023-.108c-.031-.141-.065-.283-.1-.427s-.059-.229-.093-.342a.482.482,0,0,0-.045-.15c-.017-.048-.048-.164-.074-.246l-.051-.158c-.023-.071-.045-.141-.071-.212-.042-.127-.088-.252-.133-.379s-.093-.252-.141-.376c-.1-.255-.2-.506-.305-.758-.41-.979-.871-1.943-1.3-2.9a16.035,16.035,0,0,1-.605-1.536l-.054.076a3.266,3.266,0,0,0-.229.407c0,2.226-2.229,4.95-2.229,4.95l-2.243-3.267L326.2,457.1a2.465,2.465,0,0,0-.786,1.4c-.062.2-.122.413-.178.642-.04.153-.076.314-.11.475-.02.082-.037.164-.054.249l-.051.257v.04c-.034.175-.068.356-.1.54s-.068.4-.1.6q-.034.2-.059.39c-.04.252-.074.506-.108.758-.02.147-.04.283-.057.438l-.068.566c.144.464.306.922.472,1.372a2.28,2.28,0,0,1,.184.778,19.33,19.33,0,0,0,10.622,0,.107.107,0,0,1,0-.028,3.367,3.367,0,0,1-.068-.772h0a21.219,21.219,0,0,1,.283-2.164,7.914,7.914,0,0,0,.054-1.064v-.127C336.065,461.34,336.062,461.238,336.059,461.136Zm0,0a1.956,1.956,0,0,0-.02-.339c-.02-.113-.017-.212-.031-.32s-.025-.215-.04-.323-.034-.215-.054-.322-.04-.215-.062-.322a.484.484,0,0,0-.023-.108c-.031-.141-.065-.283-.1-.427s-.059-.229-.093-.342a.482.482,0,0,0-.045-.15c-.017-.048-.048-.164-.074-.246l-.051-.158c-.023-.071-.045-.141-.071-.212-.042-.127-.088-.252-.133-.379s-.093-.252-.141-.376c-.1-.255-.2-.506-.305-.758-.41-.979-.871-1.943-1.3-2.9a16.035,16.035,0,0,1-.605-1.536l-.054.076a3.266,3.266,0,0,0-.229.407c0,2.226-2.229,4.95-2.229,4.95l-2.243-3.267L326.2,457.1a2.465,2.465,0,0,0-.786,1.4c-.062.2-.122.413-.178.642-.04.153-.076.314-.11.475-.02.082-.037.164-.054.249l-.051.257v.04c-.034.175-.068.356-.1.54s-.068.4-.1.6q-.034.2-.059.39c-.04.252-.074.506-.108.758-.02.147-.04.283-.057.438l-.068.566c.144.464.306.922.472,1.372a2.28,2.28,0,0,1,.184.778,19.33,19.33,0,0,0,10.622,0,.107.107,0,0,1,0-.028,3.367,3.367,0,0,1-.068-.772h0a21.219,21.219,0,0,1,.283-2.164,7.914,7.914,0,0,0,.054-1.064v-.127C336.065,461.34,336.062,461.238,336.059,461.136Zm0,0a1.956,1.956,0,0,0-.02-.339c-.02-.113-.017-.212-.031-.32s-.025-.215-.04-.323-.034-.215-.054-.322-.04-.215-.062-.322a.484.484,0,0,0-.023-.108c-.031-.141-.065-.283-.1-.427s-.059-.229-.093-.342a.482.482,0,0,0-.045-.15c-.017-.048-.048-.164-.074-.246l-.051-.158c-.023-.071-.045-.141-.071-.212-.042-.127-.088-.252-.133-.379s-.093-.252-.141-.376c-.1-.255-.2-.506-.305-.758-.41-.979-.871-1.943-1.3-2.9a16.035,16.035,0,0,1-.605-1.536l-.054.076a3.266,3.266,0,0,0-.229.407c0,2.226-2.229,4.95-2.229,4.95l-2.243-3.267L326.2,457.1a2.465,2.465,0,0,0-.786,1.4c-.062.2-.122.413-.178.642-.04.153-.076.314-.11.475-.02.082-.037.164-.054.249l-.051.257v.04c-.034.175-.068.356-.1.54s-.068.4-.1.6q-.034.2-.059.39c-.04.252-.074.506-.108.758-.02.147-.04.283-.057.438l-.068.566c.144.464.306.922.472,1.372a2.28,2.28,0,0,1,.184.778,19.33,19.33,0,0,0,10.622,0,.107.107,0,0,1,0-.028,3.367,3.367,0,0,1-.068-.772h0a21.219,21.219,0,0,1,.283-2.164,7.914,7.914,0,0,0,.054-1.064v-.127C336.065,461.34,336.062,461.238,336.059,461.136Zm0,0a1.956,1.956,0,0,0-.02-.339c-.02-.113-.017-.212-.031-.32s-.025-.215-.04-.323-.034-.215-.054-.322-.04-.215-.062-.322a.484.484,0,0,0-.023-.108c-.031-.141-.065-.283-.1-.427s-.059-.229-.093-.342a.482.482,0,0,0-.045-.15c-.017-.048-.048-.164-.074-.246l-.051-.158c-.023-.071-.045-.141-.071-.212-.042-.127-.088-.252-.133-.379s-.093-.252-.141-.376c-.1-.255-.2-.506-.305-.758-.41-.979-.871-1.943-1.3-2.9a16.035,16.035,0,0,1-.605-1.536l-.054.076a3.266,3.266,0,0,0-.229.407c0,2.226-2.229,4.95-2.229,4.95l-2.243-3.267L326.2,457.1a2.465,2.465,0,0,0-.786,1.4c-.062.2-.122.413-.178.642-.04.153-.076.314-.11.475-.02.082-.037.164-.054.249l-.051.257v.04c-.034.175-.068.356-.1.54s-.068.4-.1.6q-.034.2-.059.39c-.04.252-.074.506-.108.758-.02.147-.04.283-.057.438l-.068.566c.144.464.306.922.472,1.372a2.28,2.28,0,0,1,.184.778,19.33,19.33,0,0,0,10.622,0,.107.107,0,0,1,0-.028,3.367,3.367,0,0,1-.068-.772h0a21.219,21.219,0,0,1,.283-2.164,7.914,7.914,0,0,0,.054-1.064v-.127C336.065,461.34,336.062,461.238,336.059,461.136Z" transform="translate(-311.268 -427.878)" fill="#fff"/>
      <path id="Path_611" data-name="Path 611" d="M314.056,454.078l-.19-.025a6.894,6.894,0,0,1-.849-.17l-.1-.028c-.69-.2-1.446-.546-1.615-1.163a1.1,1.1,0,0,1,.017-.6,5.169,5.169,0,0,1,.385-.973V451.1a1.331,1.331,0,0,1,.071-.127,2.829,2.829,0,0,1,1.021-1.112l-.339.054-2.874.467-4.455.719s-.792-.158-1.87,2.812a.46.46,0,0,1-.037.11c-.26.727-.535,1.635-.818,2.769-.2.786-.373,1.559-.538,2.308-.048.226-.1.45-.141.67a17.969,17.969,0,0,0,1.644,1.7l.093.088a19.308,19.308,0,0,0,3.768,2.668l.054.028a18.659,18.659,0,0,0,2.659,1.177l.24.085c.051-.523.107-1.1.175-1.7a.484.484,0,0,1,.023-.178l.068-.566c.017-.144.037-.283.057-.438.034-.252.068-.506.107-.758q.025-.2.059-.39c.031-.2.065-.4.1-.6s.065-.365.1-.54v-.04l.051-.257c.017-.085.034-.167.054-.249.034-.161.071-.322.11-.475.057-.229.116-.444.178-.642a2.418,2.418,0,0,1,.786-1.4l1.963-3.018.082-.127.037-.056Z" transform="translate(-297.126 -428.061)" opacity="0.1"/>
      <path id="Path_612" data-name="Path 612" d="M313.387,454.1l-2.085,3.2a2.392,2.392,0,0,0-.772,1.355c-.065.209-.13.439-.192.679a33.833,33.833,0,0,0-.639,3.7.44.44,0,0,1-.023.17c-.1.786-.175,1.559-.24,2.24a18.653,18.653,0,0,1-2.659-1.177l-.054-.028a19.31,19.31,0,0,1-3.768-2.668l-.093-.088a17.974,17.974,0,0,1-1.644-1.7c-.068-.076-.133-.156-.2-.235.031-.147.062-.283.1-.441.161-.75.339-1.519.535-2.3a27.871,27.871,0,0,1,.962-3.168.867.867,0,0,1,.037-.09c1-2.577,1.723-2.433,1.723-2.433l4.7-.758,2.97-.481-.093.054a3.012,3.012,0,0,0-.818.871l-.082.139c-.034.054-.065.113-.1.173a5.014,5.014,0,0,0-.39.99,1.041,1.041,0,0,0,.068.809,2.7,2.7,0,0,0,1.745,1.013l.11.028A7.1,7.1,0,0,0,313.387,454.1Z" transform="translate(-296.624 -428.075)" fill="#444176"/>
      <path id="Path_613" data-name="Path 613" d="M380.285,457.986l-.116-2.512c.5-3.96-.5-4.206-.5-4.206L378.5,450.7h-.031l-4.733-2.294-.184-.091-.057-.025h0l-.617-.3h0l-.39-.19-.73-.354-.246-.119v.982c0,.283.025.614.048,1,.051.967.144,2.263.311,3.791.093.885.212,1.853.359,2.891.088.614.15,1.225.19,1.822a32.061,32.061,0,0,1-.187,6.025l.257-.082a18.948,18.948,0,0,0,2.048-.82h0a18.8,18.8,0,0,0,3.649-2.24l.051-.037a18.88,18.88,0,0,0,2.054-1.864Z" transform="translate(-347.174 -426.247)" opacity="0.1"/>
      <path id="Path_614" data-name="Path 614" d="M381.15,457.95l-.116-2.518c.5-3.96-.5-4.206-.5-4.206l-1.414-.685H379.1l-4.747-2.3-.218-.1-.042-.02-.348-.17-.461-.223-.911-.441v.4h0v.5c0,.283.025.653.051,1.075.048.9.133,2.085.283,3.491.1.965.229,2.037.4,3.191q.13.925.187,1.83a32.017,32.017,0,0,1-.175,5.94,18.957,18.957,0,0,0,2.048-.82h0a18.8,18.8,0,0,0,3.649-2.24l.051-.037a18.872,18.872,0,0,0,2.054-1.864q.124-.124.238-.255Z" transform="translate(-347.791 -426.211)" fill="#444176"/>
      <path id="Path_615" data-name="Path 615" d="M320.673,391.429a4.116,4.116,0,0,0-.388,1.414c-.3,1.106-1.5,1.8-1.776,2.914-.161.651.025,1.341-.085,2-.2,1.219-1.315,2.045-1.938,3.112a4.2,4.2,0,0,0-.257,3.649,5.846,5.846,0,0,1,.359.922,3.369,3.369,0,0,1-.088,1.414,4.483,4.483,0,0,0,.057,3.024,2.894,2.894,0,0,0,2.119,1.358,8.234,8.234,0,0,0,2.594-.119,7.5,7.5,0,0,0,2.71-.792l-3.064-7.394a6.172,6.172,0,0,1-.622-2.328,5.116,5.116,0,0,1,.382-1.737,15.049,15.049,0,0,1,2.546-4.4c.444.515.41,1.3.781,1.87a2.949,2.949,0,0,0,1.262.942,41.809,41.809,0,0,0,4.467,1.867.586.586,0,0,1,.436.871l-1.154,4.764c-.255,1.049-.478,2.263.175,3.112s2.127,1.25,2.136,2.345a3.741,3.741,0,0,0,0,.521c.076.512.685.758,1.2.784a3.584,3.584,0,0,0,3.6-2.933c.283-1.873-.956-3.6-1.474-5.423-.871-3.069.283-6.67-1.428-9.366-1.386-2.187-3.912-2.781-6.311-3.052C325.225,390.572,321.858,389.865,320.673,391.429Z" transform="translate(-307.316 -385.448)" opacity="0.1"/>
      <path id="Path_616" data-name="Path 616" d="M320.673,390.429a4.117,4.117,0,0,0-.388,1.414c-.3,1.106-1.5,1.8-1.776,2.914-.161.651.025,1.341-.085,2-.2,1.219-1.315,2.045-1.938,3.112a4.2,4.2,0,0,0-.257,3.649,5.847,5.847,0,0,1,.359.922,3.369,3.369,0,0,1-.088,1.414,4.483,4.483,0,0,0,.057,3.024,2.894,2.894,0,0,0,2.119,1.358,8.234,8.234,0,0,0,2.594-.119,7.506,7.506,0,0,0,2.71-.792l-3.064-7.394a6.173,6.173,0,0,1-.622-2.328,5.117,5.117,0,0,1,.382-1.737,15.048,15.048,0,0,1,2.546-4.4c.444.515.41,1.3.781,1.87a2.95,2.95,0,0,0,1.262.942,41.8,41.8,0,0,0,4.467,1.867.586.586,0,0,1,.436.871l-1.154,4.764c-.255,1.049-.478,2.263.175,3.112s2.127,1.25,2.136,2.345a3.741,3.741,0,0,0,0,.521c.076.512.685.758,1.2.784a3.584,3.584,0,0,0,3.6-2.933c.283-1.873-.956-3.6-1.474-5.423-.871-3.069.283-6.67-1.428-9.366-1.386-2.187-3.912-2.781-6.311-3.052C325.225,389.572,321.858,388.865,320.673,390.429Z" transform="translate(-307.316 -384.731)" fill="#493545"/>
    </g>
    <g id="Group_46" data-name="Group 46" transform="translate(68.536 166.876)" opacity="0.5">
      <path id="Path_617" data-name="Path 617" d="M323.951,633.034a19.145,19.145,0,0,1-4.631,12.517c-.147.173-.3.342-.455.509q-.116.13-.238.255a18.875,18.875,0,0,1-2.054,1.864l-.051.037a18.8,18.8,0,0,1-3.649,2.24h0a18.946,18.946,0,0,1-2.048.82l-.257.082c-.158.054-.322.1-.484.147l-.065.02a19.329,19.329,0,0,1-10.622,0h-.028c-.283-.082-.566-.167-.826-.26l-.24-.085A18.661,18.661,0,0,1,295.644,650l-.054-.028a19.3,19.3,0,0,1-3.768-2.667l-.093-.088a17.985,17.985,0,0,1-1.644-1.7c-.068-.076-.133-.156-.2-.235-.125-.147-.243-.3-.362-.453a19.236,19.236,0,1,1,34.426-11.8Z" transform="translate(-285.48 -613.798)" fill="#c0bccf"/>
      <path id="Path_618" data-name="Path 618" d="M329.969,654.775l-.116-2.546c.5-4.025-.5-4.277-.5-4.277l-1.414-.7-.028-.014-4.747-2.339-.218-.108-.028-.116s.093-.283-.376-.331a1.723,1.723,0,0,1-.119-.721,3.092,3.092,0,0,1,.778-1.414,5.81,5.81,0,0,0,.931-4.122,9.693,9.693,0,0,0-1.578-3.983l-.091-.133a4.791,4.791,0,0,0,.167-1.25c0-3.256-3.293-5.9-7.355-5.9-3.677,0-6.741,2.175-7.273,5.013a2.578,2.578,0,0,0-.224.351c-.747,1.4.407,2.441.444,3.836a4.96,4.96,0,0,1-1.132,2.6,2.6,2.6,0,0,0-.365,2.7c.173.266.433.467.588.744.546.965-.362,2.071-.693,3.129a2.985,2.985,0,0,0-.091.376l-2.184.356s-.721-.147-1.723,2.472a.883.883,0,0,0-.037.093,28.661,28.661,0,0,0-.962,3.222q-.293,1.2-.535,2.339c-.034.15-.065.3-.1.45.065.079.13.161.2.238a18.16,18.16,0,0,0,1.644,1.731l.093.09a19.317,19.317,0,0,0,3.768,2.713l.054.028a18.507,18.507,0,0,0,2.659,1.2l.24.085c.283.1.549.181.826.266a1.026,1.026,0,0,1,.023.13v-.124a19.028,19.028,0,0,0,10.622,0l.065-.02c.161-.045.325-.1.484-.15l.257-.082a19.082,19.082,0,0,0,5.7-3.112l.051-.037a19,19,0,0,0,2.054-1.9q.124-.124.238-.257Z" transform="translate(-296.61 -623.144)" fill="url(#linear-gradient-3)"/>
      <path id="Path_619" data-name="Path 619" d="M322.115,648.544a4.76,4.76,0,0,1-1.132,2.546,2.52,2.52,0,0,0-.365,2.656c.173.26.433.461.588.733.546.948-.362,2.037-.693,3.078a3.864,3.864,0,0,0,.866,3.522,9.372,9.372,0,0,0,3.032,2.215,27.061,27.061,0,0,0,7.5,2.67,7.183,7.183,0,0,0,4.113-.184,4.373,4.373,0,0,0,2.469-4.809c-.325-1.488-1.414-2.685-1.98-4.09a1.916,1.916,0,0,1-.187-.885,2.99,2.99,0,0,1,.778-1.386,5.657,5.657,0,0,0,.917-4.025,9.449,9.449,0,0,0-1.578-3.921,4.3,4.3,0,0,0-1.132-1.245,4.962,4.962,0,0,0-2.116-.639c-3.072-.43-6.254-.9-9.352-1.058a2.007,2.007,0,0,0-2.181,1.058C320.927,646.145,322.078,647.172,322.115,648.544Z" transform="translate(-310.497 -635.251)" fill="#444176"/>
      <path id="Path_620" data-name="Path 620" d="M346.11,675.667l-5.83,8.291-5.691-.5s-.187,1.98-2.475-5.2c-1.279-4.014,1.321-2.619,1.833-3.731s1.414-2.093,1.491-2.914a5.143,5.143,0,0,0-.354-2.761l6.187-.741a4.617,4.617,0,0,0-.1,2.583C341.943,673.922,346.11,675.667,346.11,675.667Z" transform="translate(-318.671 -652.754)" fill="#c77485"/>
      <ellipse id="Ellipse_171" data-name="Ellipse 171" cx="7.355" cy="5.799" rx="7.355" ry="5.799" transform="translate(11.315 4.247)" fill="#444176"/>
      <path id="Path_621" data-name="Path 621" d="M349.575,670.7a6.183,6.183,0,0,1-5.731.922,5.144,5.144,0,0,0-.354-2.761l6.187-.741A4.616,4.616,0,0,0,349.575,670.7Z" transform="translate(-327.08 -652.754)" opacity="0.1"/>
      <circle id="Ellipse_172" data-name="Ellipse 172" cx="6.187" cy="6.187" r="6.187" transform="translate(12.577 6.58)" fill="#c77485"/>
      <path id="Path_622" data-name="Path 622" d="M337.938,692.095l-.144-.566-.124-.5-.184-.736-.034-.136-.028-.113s.147-.444-.823-.3l-.181.031c-.153.031-.331.074-.535.13l-.184.057-.243.076h0a5.3,5.3,0,0,0-2.054,1.239,4.627,4.627,0,0,0-.687.832c-.02.028-.034.054-.051.076a2.674,2.674,0,0,0-.178.328c0,2.229-2.229,4.95-2.229,4.95l-2.175-3.143-.042-.062-.518-.752-.184-.243-.062-.085-1.131-1.519-.283-.379-.093-.127-.139-.184-.325-.433-1.273.744-1.7.99-.99,6.435v.178l.031.532.207,3.5v.048l-.362,1.448.054.028a18.646,18.646,0,0,0,2.659,1.177l.24.085c.283.093.549.178.826.26a1,1,0,0,1,.023.127v-.122a19.329,19.329,0,0,0,10.622,0l.065-.02c.161-.045.325-.093.484-.147l.257-.082a18.947,18.947,0,0,0,2.048-.82l.238-5.063.17-3.652v-.209Z" transform="translate(-311.11 -668.242)" opacity="0.1"/>
      <path id="Path_623" data-name="Path 623" d="M336.059,702.136a1.955,1.955,0,0,0-.02-.339c-.02-.113-.017-.212-.031-.32s-.025-.215-.04-.323-.034-.215-.054-.322-.04-.215-.062-.323a.485.485,0,0,0-.023-.108c-.031-.141-.065-.283-.1-.427s-.059-.229-.093-.342a.483.483,0,0,0-.045-.15c-.017-.048-.048-.164-.074-.246l-.051-.158c-.023-.071-.045-.141-.071-.212-.042-.127-.088-.252-.133-.379s-.093-.252-.141-.376c-.1-.255-.2-.506-.305-.758-.41-.979-.871-1.943-1.3-2.9a16.023,16.023,0,0,1-.605-1.536l-.054.076a3.261,3.261,0,0,0-.229.407c0,2.226-2.229,4.95-2.229,4.95l-2.243-3.267L326.2,698.1a2.466,2.466,0,0,0-.786,1.4c-.062.2-.122.413-.178.642-.04.153-.076.314-.11.475-.02.082-.037.164-.054.249l-.051.257v.04c-.034.175-.068.356-.1.54s-.068.4-.1.6q-.034.2-.059.39c-.04.252-.074.506-.108.758-.02.147-.04.283-.057.438l-.068.566c.144.464.306.922.472,1.372a2.281,2.281,0,0,1,.184.778,19.33,19.33,0,0,0,10.622,0,.107.107,0,0,1,0-.028,3.368,3.368,0,0,1-.068-.772h0a21.216,21.216,0,0,1,.283-2.164,7.911,7.911,0,0,0,.054-1.063v-.127C336.065,702.34,336.062,702.238,336.059,702.136Zm0,0a1.955,1.955,0,0,0-.02-.339c-.02-.113-.017-.212-.031-.32s-.025-.215-.04-.323-.034-.215-.054-.322-.04-.215-.062-.323a.485.485,0,0,0-.023-.108c-.031-.141-.065-.283-.1-.427s-.059-.229-.093-.342a.483.483,0,0,0-.045-.15c-.017-.048-.048-.164-.074-.246l-.051-.158c-.023-.071-.045-.141-.071-.212-.042-.127-.088-.252-.133-.379s-.093-.252-.141-.376c-.1-.255-.2-.506-.305-.758-.41-.979-.871-1.943-1.3-2.9a16.023,16.023,0,0,1-.605-1.536l-.054.076a3.261,3.261,0,0,0-.229.407c0,2.226-2.229,4.95-2.229,4.95l-2.243-3.267L326.2,698.1a2.466,2.466,0,0,0-.786,1.4c-.062.2-.122.413-.178.642-.04.153-.076.314-.11.475-.02.082-.037.164-.054.249l-.051.257v.04c-.034.175-.068.356-.1.54s-.068.4-.1.6q-.034.2-.059.39c-.04.252-.074.506-.108.758-.02.147-.04.283-.057.438l-.068.566c.144.464.306.922.472,1.372a2.281,2.281,0,0,1,.184.778,19.33,19.33,0,0,0,10.622,0,.107.107,0,0,1,0-.028,3.368,3.368,0,0,1-.068-.772h0a21.216,21.216,0,0,1,.283-2.164,7.911,7.911,0,0,0,.054-1.063v-.127C336.065,702.34,336.062,702.238,336.059,702.136Zm0,0a1.955,1.955,0,0,0-.02-.339c-.02-.113-.017-.212-.031-.32s-.025-.215-.04-.323-.034-.215-.054-.322-.04-.215-.062-.323a.485.485,0,0,0-.023-.108c-.031-.141-.065-.283-.1-.427s-.059-.229-.093-.342a.483.483,0,0,0-.045-.15c-.017-.048-.048-.164-.074-.246l-.051-.158c-.023-.071-.045-.141-.071-.212-.042-.127-.088-.252-.133-.379s-.093-.252-.141-.376c-.1-.255-.2-.506-.305-.758-.41-.979-.871-1.943-1.3-2.9a16.023,16.023,0,0,1-.605-1.536l-.054.076a3.261,3.261,0,0,0-.229.407c0,2.226-2.229,4.95-2.229,4.95l-2.243-3.267L326.2,698.1a2.466,2.466,0,0,0-.786,1.4c-.062.2-.122.413-.178.642-.04.153-.076.314-.11.475-.02.082-.037.164-.054.249l-.051.257v.04c-.034.175-.068.356-.1.54s-.068.4-.1.6q-.034.2-.059.39c-.04.252-.074.506-.108.758-.02.147-.04.283-.057.438l-.068.566c.144.464.306.922.472,1.372a2.281,2.281,0,0,1,.184.778,19.33,19.33,0,0,0,10.622,0,.107.107,0,0,1,0-.028,3.368,3.368,0,0,1-.068-.772h0a21.216,21.216,0,0,1,.283-2.164,7.911,7.911,0,0,0,.054-1.063v-.127C336.065,702.34,336.062,702.238,336.059,702.136Zm3-5.31-1.01-4.031-.173-.69-.048-.19h0l-.246-.984a.178.178,0,0,0,0-.026h0a.226.226,0,0,0-.02-.127c-.037-.074-.13-.15-.348-.17a1.765,1.765,0,0,0-.249,0h0a4.313,4.313,0,0,0-.727.136c-.116.031-.24.065-.373.108l-.243.076H335.6a5.4,5.4,0,0,0-1.782.99,4.809,4.809,0,0,0-.905,1l-.054.076a3.275,3.275,0,0,0-.229.407c0,2.226-2.229,4.95-2.229,4.95l-2.243-3.267-.127-.184-.023-.031-.325-.478-.246-.328-.065-.085-1.16-1.547h0l-.368-.5v-.017l-.127-.172-.243-.323-.849.495-2.122,1.236-.979,6.368v.068l.028.464.209,3.544v.2l-.32,1.276a18.662,18.662,0,0,0,2.659,1.177l.24.085c.283.094.549.178.826.26a1,1,0,0,1,.023.127V706.6a19.329,19.329,0,0,0,10.622,0l.065-.02c.161-.045.325-.093.484-.147l.257-.082a18.939,18.939,0,0,0,2.048-.82h0l.235-5.058.17-3.612Zm-13.912,9.768a1,1,0,0,1,.023.127V706.6Zm10.913-4.458a1.955,1.955,0,0,0-.02-.339c-.02-.113-.017-.212-.031-.32s-.025-.215-.04-.323-.034-.215-.054-.322-.04-.215-.062-.323a.485.485,0,0,0-.023-.108c-.031-.141-.065-.283-.1-.427s-.059-.229-.093-.342a.483.483,0,0,0-.045-.15c-.017-.048-.048-.164-.074-.246l-.051-.158c-.023-.071-.045-.141-.071-.212-.042-.127-.088-.252-.133-.379s-.093-.252-.141-.376c-.1-.255-.2-.506-.305-.758-.41-.979-.871-1.943-1.3-2.9a16.023,16.023,0,0,1-.605-1.536l-.054.076a3.261,3.261,0,0,0-.229.407c0,2.226-2.229,4.95-2.229,4.95l-2.243-3.267L326.2,698.1a2.466,2.466,0,0,0-.786,1.4c-.062.2-.122.413-.178.642-.04.153-.076.314-.11.475-.02.082-.037.164-.054.249l-.051.257v.04c-.034.175-.068.356-.1.54s-.068.4-.1.6q-.034.2-.059.39c-.04.252-.074.506-.108.758-.02.147-.04.283-.057.438l-.068.566c.144.464.306.922.472,1.372a2.281,2.281,0,0,1,.184.778,19.33,19.33,0,0,0,10.622,0,.107.107,0,0,1,0-.028,3.368,3.368,0,0,1-.068-.772h0a21.216,21.216,0,0,1,.283-2.164,7.911,7.911,0,0,0,.054-1.063v-.127C336.065,702.34,336.062,702.238,336.059,702.136Zm0,0a1.955,1.955,0,0,0-.02-.339c-.02-.113-.017-.212-.031-.32s-.025-.215-.04-.323-.034-.215-.054-.322-.04-.215-.062-.323a.485.485,0,0,0-.023-.108c-.031-.141-.065-.283-.1-.427s-.059-.229-.093-.342a.483.483,0,0,0-.045-.15c-.017-.048-.048-.164-.074-.246l-.051-.158c-.023-.071-.045-.141-.071-.212-.042-.127-.088-.252-.133-.379s-.093-.252-.141-.376c-.1-.255-.2-.506-.305-.758-.41-.979-.871-1.943-1.3-2.9a16.023,16.023,0,0,1-.605-1.536l-.054.076a3.261,3.261,0,0,0-.229.407c0,2.226-2.229,4.95-2.229,4.95l-2.243-3.267L326.2,698.1a2.466,2.466,0,0,0-.786,1.4c-.062.2-.122.413-.178.642-.04.153-.076.314-.11.475-.02.082-.037.164-.054.249l-.051.257v.04c-.034.175-.068.356-.1.54s-.068.4-.1.6q-.034.2-.059.39c-.04.252-.074.506-.108.758-.02.147-.04.283-.057.438l-.068.566c.144.464.306.922.472,1.372a2.281,2.281,0,0,1,.184.778,19.33,19.33,0,0,0,10.622,0,.107.107,0,0,1,0-.028,3.368,3.368,0,0,1-.068-.772h0a21.216,21.216,0,0,1,.283-2.164,7.911,7.911,0,0,0,.054-1.063v-.127C336.065,702.34,336.062,702.238,336.059,702.136Zm0,0a1.955,1.955,0,0,0-.02-.339c-.02-.113-.017-.212-.031-.32s-.025-.215-.04-.323-.034-.215-.054-.322-.04-.215-.062-.323a.485.485,0,0,0-.023-.108c-.031-.141-.065-.283-.1-.427s-.059-.229-.093-.342a.483.483,0,0,0-.045-.15c-.017-.048-.048-.164-.074-.246l-.051-.158c-.023-.071-.045-.141-.071-.212-.042-.127-.088-.252-.133-.379s-.093-.252-.141-.376c-.1-.255-.2-.506-.305-.758-.41-.979-.871-1.943-1.3-2.9a16.023,16.023,0,0,1-.605-1.536l-.054.076a3.261,3.261,0,0,0-.229.407c0,2.226-2.229,4.95-2.229,4.95l-2.243-3.267L326.2,698.1a2.466,2.466,0,0,0-.786,1.4c-.062.2-.122.413-.178.642-.04.153-.076.314-.11.475-.02.082-.037.164-.054.249l-.051.257v.04c-.034.175-.068.356-.1.54s-.068.4-.1.6q-.034.2-.059.39c-.04.252-.074.506-.108.758-.02.147-.04.283-.057.438l-.068.566c.144.464.306.922.472,1.372a2.281,2.281,0,0,1,.184.778,19.33,19.33,0,0,0,10.622,0,.107.107,0,0,1,0-.028,3.368,3.368,0,0,1-.068-.772h0a21.216,21.216,0,0,1,.283-2.164,7.911,7.911,0,0,0,.054-1.063v-.127C336.065,702.34,336.062,702.238,336.059,702.136Zm0,0a1.955,1.955,0,0,0-.02-.339c-.02-.113-.017-.212-.031-.32s-.025-.215-.04-.323-.034-.215-.054-.322-.04-.215-.062-.323a.485.485,0,0,0-.023-.108c-.031-.141-.065-.283-.1-.427s-.059-.229-.093-.342a.483.483,0,0,0-.045-.15c-.017-.048-.048-.164-.074-.246l-.051-.158c-.023-.071-.045-.141-.071-.212-.042-.127-.088-.252-.133-.379s-.093-.252-.141-.376c-.1-.255-.2-.506-.305-.758-.41-.979-.871-1.943-1.3-2.9a16.023,16.023,0,0,1-.605-1.536l-.054.076a3.261,3.261,0,0,0-.229.407c0,2.226-2.229,4.95-2.229,4.95l-2.243-3.267L326.2,698.1a2.466,2.466,0,0,0-.786,1.4c-.062.2-.122.413-.178.642-.04.153-.076.314-.11.475-.02.082-.037.164-.054.249l-.051.257v.04c-.034.175-.068.356-.1.54s-.068.4-.1.6q-.034.2-.059.39c-.04.252-.074.506-.108.758-.02.147-.04.283-.057.438l-.068.566c.144.464.306.922.472,1.372a2.281,2.281,0,0,1,.184.778,19.33,19.33,0,0,0,10.622,0,.107.107,0,0,1,0-.028,3.368,3.368,0,0,1-.068-.772h0a21.216,21.216,0,0,1,.283-2.164,7.911,7.911,0,0,0,.054-1.063v-.127C336.065,702.34,336.062,702.238,336.059,702.136Zm0,0a1.955,1.955,0,0,0-.02-.339c-.02-.113-.017-.212-.031-.32s-.025-.215-.04-.323-.034-.215-.054-.322-.04-.215-.062-.323a.485.485,0,0,0-.023-.108c-.031-.141-.065-.283-.1-.427s-.059-.229-.093-.342a.483.483,0,0,0-.045-.15c-.017-.048-.048-.164-.074-.246l-.051-.158c-.023-.071-.045-.141-.071-.212-.042-.127-.088-.252-.133-.379s-.093-.252-.141-.376c-.1-.255-.2-.506-.305-.758-.41-.979-.871-1.943-1.3-2.9a16.023,16.023,0,0,1-.605-1.536l-.054.076a3.261,3.261,0,0,0-.229.407c0,2.226-2.229,4.95-2.229,4.95l-2.243-3.267L326.2,698.1a2.466,2.466,0,0,0-.786,1.4c-.062.2-.122.413-.178.642-.04.153-.076.314-.11.475-.02.082-.037.164-.054.249l-.051.257v.04c-.034.175-.068.356-.1.54s-.068.4-.1.6q-.034.2-.059.39c-.04.252-.074.506-.108.758-.02.147-.04.283-.057.438l-.068.566c.144.464.306.922.472,1.372a2.281,2.281,0,0,1,.184.778,19.33,19.33,0,0,0,10.622,0,.107.107,0,0,1,0-.028,3.368,3.368,0,0,1-.068-.772h0a21.216,21.216,0,0,1,.283-2.164,7.911,7.911,0,0,0,.054-1.063v-.127C336.065,702.34,336.062,702.238,336.059,702.136Zm0,0a1.955,1.955,0,0,0-.02-.339c-.02-.113-.017-.212-.031-.32s-.025-.215-.04-.323-.034-.215-.054-.322-.04-.215-.062-.323a.485.485,0,0,0-.023-.108c-.031-.141-.065-.283-.1-.427s-.059-.229-.093-.342a.483.483,0,0,0-.045-.15c-.017-.048-.048-.164-.074-.246l-.051-.158c-.023-.071-.045-.141-.071-.212-.042-.127-.088-.252-.133-.379s-.093-.252-.141-.376c-.1-.255-.2-.506-.305-.758-.41-.979-.871-1.943-1.3-2.9a16.023,16.023,0,0,1-.605-1.536l-.054.076a3.261,3.261,0,0,0-.229.407c0,2.226-2.229,4.95-2.229,4.95l-2.243-3.267L326.2,698.1a2.466,2.466,0,0,0-.786,1.4c-.062.2-.122.413-.178.642-.04.153-.076.314-.11.475-.02.082-.037.164-.054.249l-.051.257v.04c-.034.175-.068.356-.1.54s-.068.4-.1.6q-.034.2-.059.39c-.04.252-.074.506-.108.758-.02.147-.04.283-.057.438l-.068.566c.144.464.306.922.472,1.372a2.281,2.281,0,0,1,.184.778,19.33,19.33,0,0,0,10.622,0,.107.107,0,0,1,0-.028,3.368,3.368,0,0,1-.068-.772h0a21.216,21.216,0,0,1,.283-2.164,7.911,7.911,0,0,0,.054-1.063v-.127C336.065,702.34,336.062,702.238,336.059,702.136Zm0,0a1.955,1.955,0,0,0-.02-.339c-.02-.113-.017-.212-.031-.32s-.025-.215-.04-.323-.034-.215-.054-.322-.04-.215-.062-.323a.485.485,0,0,0-.023-.108c-.031-.141-.065-.283-.1-.427s-.059-.229-.093-.342a.483.483,0,0,0-.045-.15c-.017-.048-.048-.164-.074-.246l-.051-.158c-.023-.071-.045-.141-.071-.212-.042-.127-.088-.252-.133-.379s-.093-.252-.141-.376c-.1-.255-.2-.506-.305-.758-.41-.979-.871-1.943-1.3-2.9a16.023,16.023,0,0,1-.605-1.536l-.054.076a3.261,3.261,0,0,0-.229.407c0,2.226-2.229,4.95-2.229,4.95l-2.243-3.267L326.2,698.1a2.466,2.466,0,0,0-.786,1.4c-.062.2-.122.413-.178.642-.04.153-.076.314-.11.475-.02.082-.037.164-.054.249l-.051.257v.04c-.034.175-.068.356-.1.54s-.068.4-.1.6q-.034.2-.059.39c-.04.252-.074.506-.108.758-.02.147-.04.283-.057.438l-.068.566c.144.464.306.922.472,1.372a2.281,2.281,0,0,1,.184.778,19.33,19.33,0,0,0,10.622,0,.107.107,0,0,1,0-.028,3.368,3.368,0,0,1-.068-.772h0a21.216,21.216,0,0,1,.283-2.164,7.911,7.911,0,0,0,.054-1.063v-.127C336.065,702.34,336.062,702.238,336.059,702.136Zm0,0a1.955,1.955,0,0,0-.02-.339c-.02-.113-.017-.212-.031-.32s-.025-.215-.04-.323-.034-.215-.054-.322-.04-.215-.062-.323a.485.485,0,0,0-.023-.108c-.031-.141-.065-.283-.1-.427s-.059-.229-.093-.342a.483.483,0,0,0-.045-.15c-.017-.048-.048-.164-.074-.246l-.051-.158c-.023-.071-.045-.141-.071-.212-.042-.127-.088-.252-.133-.379s-.093-.252-.141-.376c-.1-.255-.2-.506-.305-.758-.41-.979-.871-1.943-1.3-2.9a16.023,16.023,0,0,1-.605-1.536l-.054.076a3.261,3.261,0,0,0-.229.407c0,2.226-2.229,4.95-2.229,4.95l-2.243-3.267L326.2,698.1a2.466,2.466,0,0,0-.786,1.4c-.062.2-.122.413-.178.642-.04.153-.076.314-.11.475-.02.082-.037.164-.054.249l-.051.257v.04c-.034.175-.068.356-.1.54s-.068.4-.1.6q-.034.2-.059.39c-.04.252-.074.506-.108.758-.02.147-.04.283-.057.438l-.068.566c.144.464.306.922.472,1.372a2.281,2.281,0,0,1,.184.778,19.33,19.33,0,0,0,10.622,0,.107.107,0,0,1,0-.028,3.368,3.368,0,0,1-.068-.772h0a21.216,21.216,0,0,1,.283-2.164,7.911,7.911,0,0,0,.054-1.063v-.127C336.065,702.34,336.062,702.238,336.059,702.136Z" transform="translate(-311.268 -668.878)" fill="#444176"/>
      <path id="Path_624" data-name="Path 624" d="M314.056,695.078l-.19-.026a6.889,6.889,0,0,1-.849-.17l-.1-.028c-.69-.2-1.446-.546-1.615-1.163a1.1,1.1,0,0,1,.017-.6,5.168,5.168,0,0,1,.385-.973V692.1a1.318,1.318,0,0,1,.071-.127,2.829,2.829,0,0,1,1.021-1.112l-.339.054-2.874.467-4.455.719s-.792-.158-1.87,2.812a.459.459,0,0,1-.037.11c-.26.727-.535,1.635-.818,2.769-.2.786-.373,1.559-.538,2.308-.048.226-.1.45-.141.67a17.965,17.965,0,0,0,1.644,1.7l.093.088a19.307,19.307,0,0,0,3.768,2.667l.054.028a18.65,18.65,0,0,0,2.659,1.177l.24.085c.051-.523.107-1.1.175-1.7a.483.483,0,0,1,.023-.178l.068-.566c.017-.144.037-.283.057-.438.034-.252.068-.506.107-.758q.025-.2.059-.39c.031-.2.065-.4.1-.6s.065-.365.1-.54v-.04l.051-.257c.017-.085.034-.167.054-.249.034-.161.071-.323.11-.475.057-.229.116-.444.178-.642a2.417,2.417,0,0,1,.786-1.4l1.963-3.018.082-.127.037-.057Z" transform="translate(-297.126 -669.061)" opacity="0.1"/>
      <path id="Path_625" data-name="Path 625" d="M313.387,695.1l-2.085,3.2a2.392,2.392,0,0,0-.772,1.355c-.065.209-.13.438-.192.679a33.836,33.836,0,0,0-.639,3.7.44.44,0,0,1-.023.17c-.1.786-.175,1.559-.24,2.24a18.639,18.639,0,0,1-2.659-1.177l-.054-.028a19.307,19.307,0,0,1-3.768-2.667l-.093-.088a17.978,17.978,0,0,1-1.644-1.7c-.068-.076-.133-.156-.2-.235.031-.147.062-.283.1-.441.161-.75.339-1.519.535-2.3a27.868,27.868,0,0,1,.962-3.168.862.862,0,0,1,.037-.091c1-2.577,1.723-2.433,1.723-2.433l4.7-.758,2.97-.481-.093.054a3.014,3.014,0,0,0-.818.871l-.082.139c-.034.054-.065.113-.1.172a5.015,5.015,0,0,0-.39.99,1.041,1.041,0,0,0,.068.809,2.694,2.694,0,0,0,1.745,1.013l.11.028A7.086,7.086,0,0,0,313.387,695.1Z" transform="translate(-296.624 -669.075)" fill="#f1d2d7"/>
      <path id="Path_626" data-name="Path 626" d="M380.285,698.986l-.116-2.512c.5-3.96-.5-4.206-.5-4.206L378.5,691.7h-.031l-4.733-2.294-.184-.091-.057-.025h0l-.617-.3h0l-.39-.19-.73-.353-.246-.119v.982c0,.283.025.614.048,1,.051.967.144,2.263.311,3.791.093.885.212,1.853.359,2.891.088.614.15,1.225.19,1.822a32.06,32.06,0,0,1-.187,6.025l.257-.082a18.955,18.955,0,0,0,2.048-.82h0a18.808,18.808,0,0,0,3.649-2.24l.051-.037a18.867,18.867,0,0,0,2.054-1.864Z" transform="translate(-347.174 -667.247)" opacity="0.1"/>
      <path id="Path_627" data-name="Path 627" d="M381.15,698.95l-.116-2.518c.5-3.96-.5-4.206-.5-4.206l-1.414-.684H379.1l-4.747-2.3-.218-.1-.042-.02-.348-.17-.461-.224-.911-.441v.4h0v.5c0,.283.025.654.051,1.075.048.9.133,2.085.283,3.491.1.965.229,2.037.4,3.191q.13.925.187,1.83a32.018,32.018,0,0,1-.175,5.94,19.157,19.157,0,0,0,5.7-3.061l.051-.037a18.868,18.868,0,0,0,2.054-1.864q.124-.125.238-.255Z" transform="translate(-347.791 -667.211)" fill="#f1d2d7"/>
      <path id="Path_628" data-name="Path 628" d="M334.54,639.463a7.078,7.078,0,0,1,2.648-.283,8.669,8.669,0,0,1,2.023.982,5.237,5.237,0,0,0,2.088.552,1.228,1.228,0,0,0,.767-.15,1.188,1.188,0,0,0,.342-1.165,6.692,6.692,0,0,0-1.7-3.18,6.222,6.222,0,0,0-1.064-1.078,5.618,5.618,0,0,0-3.618-.82,9.065,9.065,0,0,0-4.144,1.064c-.849.487-2.795,2.02-2.119,3.129C330.475,639.672,333.428,639.652,334.54,639.463Z" transform="translate(-317.137 -628.507)" opacity="0.1"/>
      <path id="Path_629" data-name="Path 629" d="M334.54,638.463a7.078,7.078,0,0,1,2.648-.283,8.674,8.674,0,0,1,2.023.982,5.236,5.236,0,0,0,2.088.552,1.228,1.228,0,0,0,.767-.15,1.188,1.188,0,0,0,.342-1.165,6.691,6.691,0,0,0-1.7-3.18,6.222,6.222,0,0,0-1.064-1.078,5.618,5.618,0,0,0-3.618-.82,9.064,9.064,0,0,0-4.144,1.064c-.849.487-2.795,2.02-2.119,3.129C330.475,638.672,333.428,638.652,334.54,638.463Z" transform="translate(-317.137 -627.789)" fill="#444176"/>
    </g>
    <path id="Path_630" data-name="Path 630" d="M619.839,403.443h.042c.062,1.9.331,3.609.849,4.085,1.233,1.132,6.348-1.132,6-2.5-.071-.283-.189-.747-.339-1.332,1.38-.173,2.56-.566,3.029-1.375l.888,2.738.062.2h.068c.586,5.55,1.912,17.074,2.973,18.619,1.414,2.045,3.041,10.908,3.041,10.908l3.041,18.181s1.171,10.466,1.873,11.6a1.315,1.315,0,0,0,.769.4,11.143,11.143,0,0,1-1.7,3.462c-1.414,1.59-3.276,4.772-4.914,4.546s-2.1,3.182.936,3.635a25.139,25.139,0,0,0,6.43-.376,2.3,2.3,0,0,0,2.226,2.2c3.041.455,9.358-.908,9.358-.908s5.375-2.263,5.615-3.864c.17-1.16-.654-5.816-1.112-8.257.849-1.361-.057-13.1-.057-13.1l-1.638-22.5s.936-12.5,0-14.772c-.586-1.414-.8-7.921-.885-12.574l1.131.074a2.093,2.093,0,0,0,.175-.246l.283.02a3.758,3.758,0,0,0,.235-4.09c-.868-1.858-.7-10.249-.566-14.427h0l.167-1.98a.565.565,0,0,0,.139-.215,20.748,20.748,0,0,0,6.317-1.912,6.409,6.409,0,0,0,1.658-1.007c1.171-1.132.467-7.954-1.873-18.181s-4.444-9.318-4.444-9.318-5.615-.455-8.189-3.864-4.3-3.363-4.3-3.363h0c-.065-.447-.11-.868-.141-1.262,0-.147-.023-.283-.031-.43a7.48,7.48,0,0,0,1.946-2.95,14.621,14.621,0,0,0,1.677-.733,2,2,0,0,0,.348-.323,2.861,2.861,0,0,0,.9-1.779,7.278,7.278,0,0,0-.1-2.232,5.409,5.409,0,0,0-3.57-4.9q-3.711-1.949-7.443-3.858a4.107,4.107,0,0,0-1.592-.566,4.245,4.245,0,0,0-2.693,1.273,11.513,11.513,0,0,0-.919.806,5.161,5.161,0,0,0-.676.727,6.972,6.972,0,0,0-.925,5.2.713.713,0,0,0,.755.637,7.292,7.292,0,0,0-.778,3.281,7.44,7.44,0,0,0,3.454,6.249c0,.158,0,.314.014.464a16.6,16.6,0,0,1-.056,1.74s-6.223,3.363-6.922,4.953-3.276,2.727-3.276,2.727-4.914,2.5-4.914,11.363l-2.574,12.5-.467,23.861s.323-.283.849-.685c-.017.158-.031.323-.045.489a26.934,26.934,0,0,0-.071,2.741ZM651.266,465.2c-.1.365-.238.849-.416,1.414-.079-.47-.158-.934-.238-1.375C650.816,465.217,651.034,465.206,651.266,465.2Z" transform="translate(-456.219 -239.745)" fill="url(#linear-gradient-4)"/>
    <path id="Path_631" data-name="Path 631" d="M681.83,808.8s-.9,4.056-2.263,5.632-3.143,4.733-4.716,4.506-2.028,3.154.9,3.6,9-.9,9-.9,5.182-2.263,5.406-3.83-1.352-9.689-1.352-9.689Z" transform="translate(-495.281 -586.275)" fill="#53526b"/>
    <path id="Path_632" data-name="Path 632" d="M681.83,808.8s-.9,4.056-2.263,5.632-3.143,4.733-4.716,4.506-2.028,3.154.9,3.6,9-.9,9-.9,5.182-2.263,5.406-3.83-1.352-9.689-1.352-9.689Z" transform="translate(-495.281 -586.275)" opacity="0.05"/>
    <path id="Path_633" data-name="Path 633" d="M711.289,815.159s-.9,4.056-2.263,5.632-3.151,4.733-4.721,4.506-2.028,3.154.9,3.6,9.012-.9,9.012-.9,5.182-2.263,5.406-3.83-1.352-9.689-1.352-9.689Z" transform="translate(-516.404 -590.836)" fill="#53526b"/>
    <path id="Path_634" data-name="Path 634" d="M659.66,598.67s1.8,19.374,3.154,21.4,2.928,10.814,2.928,10.814l2.928,18.022s1.131,10.365,1.8,11.491,9.032.642,9.032.642l-5.2-59.67Z" transform="translate(-485.277 -436.073)" fill="#5f5d7e"/>
    <path id="Path_635" data-name="Path 635" d="M659.66,598.67s1.8,19.374,3.154,21.4,2.928,10.814,2.928,10.814l2.928,18.022s1.131,10.365,1.8,11.491,9.032.642,9.032.642l-5.2-59.67Z" transform="translate(-485.277 -436.073)" opacity="0.05"/>
    <path id="Path_636" data-name="Path 636" d="M646.92,566l.588,1.87,3.182,10.1.062.192h.017c.427.1,9.445,2.17,11.391,2.806a2.763,2.763,0,0,1,.308.116c.9.45,2.028,16.67,2.028,16.67s.676,15.321,1.131,16.447,2.263,24.327,3.38,23.654,9.236,0,9.236,0c.9-.9,0-13.066,0-13.066l-1.6-22.3s.9-12.39,0-14.644-.9-17.346-.9-17.346L657.3,567.618l-1.782-.283Z" transform="translate(-476.141 -412.645)" fill="#5f5d7e"/>
    <path id="Path_637" data-name="Path 637" d="M649,571.006l3.182,10.1.076.2c.427.1,9.445,2.17,11.391,2.806h.2l-5.038-13.357-.144-.385-1.638.1Z" transform="translate(-477.633 -415.779)" opacity="0.02"/>
    <path id="Path_638" data-name="Path 638" d="M671.4,406.73s-8.336,9.012-13.519,1.576l-4.956,3.38.9,5.182-2.931,39.2s7.66-.226,13.066,1.576a8.385,8.385,0,0,0,8.786-2.028l-.891-34.466,2.028-10.588Z" transform="translate(-478.995 -298.429)" opacity="0.1"/>
    <path id="Path_639" data-name="Path 639" d="M671.4,404.34s-8.336,9.012-13.519,1.576l-4.956,3.38.9,5.182-2.931,39.2s7.66-.226,13.066,1.576a8.385,8.385,0,0,0,8.786-2.028l-.891-34.466,2.028-10.588Z" transform="translate(-478.995 -296.715)" fill="#53526b"/>
    <g id="TESLA" transform="translate(173.138 146.832)">
      <g id="g8">
        <path id="polyline10" d="M614.853,522.36v1.42H614.4v-.945h-1.655v.945h-.455v-1.417l2.563,0" transform="translate(-612.225 -521.432)" fill="#e82127"/>
        <path id="path12" d="M657.483,543.41h-1.748a.645.645,0,0,1-.475-.47h2.7a.648.648,0,0,1-.475.47" transform="translate(-655.26 -542.94)" fill="#e82127"/>
      </g>
      <g id="g30" transform="translate(15.083 0.017)">
        <path id="path32" d="M711.528,543a.653.653,0,0,1-.472.467h-.735l-.037.014v1.856h-.453v-1.856l-.042-.014h-.735a.662.662,0,0,1-.472-.467h2.948" transform="translate(-708.58 -543)" fill="#e82127"/>
      </g>
    </g>
    <path id="Path_640" data-name="Path 640" d="M635.208,569.2s0,5.858-1.352,8.336-9.236,1.131-9.236,1.131l1.576-8.336Z" transform="translate(-460.149 -414.94)" fill="#d6dbe6"/>
    <path id="Path_641" data-name="Path 641" d="M625.549,590.282c1.188,1.131,6.113-1.131,5.773-2.478-.238-.953-1.069-4.365-1.542-6.3l-.328-1.361s-2.885-.9-3.9,0c-.371.328-.631,1.621-.752,3.182C624.587,586.038,624.8,589.563,625.549,590.282Z" transform="translate(-460.221 -422.5)" fill="#fdc2cc"/>
    <path id="Path_642" data-name="Path 642" d="M666,379.9l7.884,6.082s11.714-.676,8.786-6.308a21,21,0,0,1-2.263-7.96,16.647,16.647,0,0,1,0-3.081s-10.814-9.9-9.462,1.352a25.521,25.521,0,0,1,.187,2.6C671.293,381.036,666,379.9,666,379.9Z" transform="translate(-489.824 -268.223)" fill="#fdc2cc"/>
    <path id="Path_643" data-name="Path 643" d="M683.263,369.985a25.5,25.5,0,0,1,.187,2.6,7.383,7.383,0,0,0,4.093,1.228c2.017,0,3.5-1.963,4.843-3.267-.15-1.87.337-1.915.337-1.915S681.911,358.72,683.263,369.985Z" transform="translate(-502.12 -268.218)" opacity="0.1"/>
    <circle id="Ellipse_173" data-name="Ellipse 173" cx="7.434" cy="7.434" r="7.434" transform="translate(177.989 90.279)" fill="#fdc2cc"/>
    <path id="Path_644" data-name="Path 644" d="M702.042,394.38s1.239.113,3.717,3.491,7.884,3.83,7.884,3.83,2.028-.9,4.28,9.236,2.928,16.9,1.8,18.022-5.632,2.707-7.9,2.707c0,0-.676,14.192.45,16.67a3.84,3.84,0,0,1-.226,4.057l-9.9-.676A23.562,23.562,0,0,1,698.1,440c-.676-7.434-2.928-28.613-1.8-31.091s6.082-8.786,5.858-9.462A40.688,40.688,0,0,1,702.042,394.38Z" transform="translate(-511.326 -289.572)" opacity="0.1"/>
    <path id="Path_645" data-name="Path 645" d="M703.223,394.14s1.666-.045,4.144,3.335,7.881,3.83,7.881,3.83,2.028-.9,4.28,9.236,2.928,16.9,1.8,18.022-5.632,2.7-7.884,2.7c0,0-.676,14.192.45,16.67a3.84,3.84,0,0,1-.226,4.056l-9.9-.676a23.563,23.563,0,0,1-4.056-11.714c-.676-7.434-2.933-28.61-1.808-31.077s6.082-8.786,5.858-9.462S703.223,394.14,703.223,394.14Z" transform="translate(-512.482 -289.4)" fill="#d6dbe6"/>
    <path id="Path_646" data-name="Path 646" d="M625,583.316c1.078-.823,3.112-2.1,4.984-1.822l-.328-1.361s-2.885-.9-3.9,0C625.376,580.461,625.119,581.751,625,583.316Z" transform="translate(-460.422 -422.493)" opacity="0.1"/>
    <path id="Path_647" data-name="Path 647" d="M641.453,399.16s-5.745,3.717-6.421,5.3-3.154,2.7-3.154,2.7-4.73,2.478-4.73,11.264l-2.478,12.39,11.264,15.77s1.352-15.77,2.028-19.6,1.576-11.032,1.576-11.032,3.38-4.28,2.928-5.406S641.453,399.16,641.453,399.16Z" transform="translate(-460.185 -293)" opacity="0.1"/>
    <path id="Path_648" data-name="Path 648" d="M639.7,398.92s-5.991,3.335-6.665,4.911-3.154,2.7-3.154,2.7-4.73,2.478-4.73,11.264l-2.478,12.39-.45,23.654s4.057-3.83,6.984-2.028,4.73-5.858,4.73-5.858,1.352-15.77,2.028-19.6,1.576-11.032,1.576-11.032,3.38-4.28,2.928-5.406S639.7,398.92,639.7,398.92Z" transform="translate(-458.428 -292.828)" fill="#d6dbe6"/>
    <path id="Path_649" data-name="Path 649" d="M672.98,330.839a7.356,7.356,0,0,1,1.313-1.3,4.021,4.021,0,0,1,2.594-1.262,3.88,3.88,0,0,1,1.533.549q3.593,1.892,7.165,3.824a6.662,6.662,0,0,1,2.4,1.833,7.067,7.067,0,0,1,1.035,3.027,7.422,7.422,0,0,1,.1,2.212,2.775,2.775,0,0,1-.979,1.858c-.642.467-1.522.47-2.059,1.081a6.016,6.016,0,0,0-.668,1.279c-.221.43-.6.849-1.038.772a1.09,1.09,0,0,1-.761-1,6.1,6.1,0,0,1,.082-1.414,3.349,3.349,0,0,0-.515-2.379c-.339-.43-.826-.69-1.154-1.132-.786-1.064-.427-2.829-1.29-3.827a2.045,2.045,0,0,0-1.98-.566,8.463,8.463,0,0,0-1.98.849,14.712,14.712,0,0,1-2.713,1.047c-.786.215-1.7.73-1.966-.317A6.975,6.975,0,0,1,672.98,330.839Z" transform="translate(-494.083 -242.169)" opacity="0.1"/>
    <path id="Path_650" data-name="Path 650" d="M673.777,330.049a7.353,7.353,0,0,1,1.313-1.3,4.021,4.021,0,0,1,2.594-1.262,3.88,3.88,0,0,1,1.533.549c2.393,1.262,4.382.068,7.165,3.825.594.8,1.788.979,2.4,1.833a7.066,7.066,0,0,1,1.035,3.027,7.416,7.416,0,0,1,.1,2.212,2.775,2.775,0,0,1-.979,1.858c-.642.467-1.522.47-2.059,1.081a6.025,6.025,0,0,0-.668,1.279c-.221.43-.6.849-1.038.772a1.09,1.09,0,0,1-.761-1,6.094,6.094,0,0,1,.082-1.414,3.349,3.349,0,0,0-.515-2.379c-.339-.43-.826-.69-1.154-1.132-.786-1.064-.427-2.829-1.29-3.827a2.045,2.045,0,0,0-1.98-.566,8.464,8.464,0,0,0-1.98.849,14.71,14.71,0,0,1-2.713,1.047c-.787.215-1.7.73-1.966-.317A6.958,6.958,0,0,1,673.777,330.049Z" transform="translate(-494.654 -241.603)" fill="#865a61"/>
    <path id="Path_651" data-name="Path 651" d="M737.536,458.09s3,7.66.75,10.814l-4.956-1.132s4.506,1.352,3.83-1.352S737.536,458.09,737.536,458.09Z" transform="translate(-538.108 -335.26)" opacity="0.1"/>
    <path id="Path_652" data-name="Path 652" d="M732.866,522.712s-6.534.45-8.336-.9a17.256,17.256,0,0,0,8.133,3.38Z" transform="translate(-531.797 -380.955)" opacity="0.1"/>
    <path id="Path_653" data-name="Path 653" d="M646.466,474s-3.38,10.365-3.154,11.94.676,18.924.676,18.924l.676-.226-.226-18.924Z" transform="translate(-473.546 -346.67)" opacity="0.1"/>
    <path id="Path_654" data-name="Path 654" d="M354.232,186l-77.226-62.233a4.831,4.831,0,0,0-3.423-1.414H270.3a41.866,41.866,0,1,0-7.25,7.25v3.279a4.832,4.832,0,0,0,1.414,3.423l77.225,62.233a4.809,4.809,0,0,0,6.829,0l5.691-5.686A4.857,4.857,0,0,0,354.232,186ZM237.271,122.352a10.68,10.68,0,1,1,0,.006Z" transform="translate(-152.368 -46.002)" fill="url(#linear-gradient-5)"/>
    <path id="Path_655" data-name="Path 655" d="M356.232,184l-77.226-62.233a4.832,4.832,0,0,0-3.423-1.414H272.3a41.866,41.866,0,1,0-7.25,7.25v3.279a4.832,4.832,0,0,0,1.414,3.423l77.226,62.233a4.809,4.809,0,0,0,6.829,0l5.691-5.686a4.857,4.857,0,0,0,.02-6.851ZM239.271,120.352a10.68,10.68,0,1,1,0,.006Z" transform="translate(-153.802 -44.568)" fill="#9676ff"/>
    <path id="Path_656" data-name="Path 656" d="M713.562,478.553s-11.273-12.927-9.689-4.056c1.131,6.308,5.406,9.689,7.434,10.365S713.562,478.553,713.562,478.553Z" transform="translate(-516.874 -344.796)" fill="#fdc2cc"/>
    <path id="Path_657" data-name="Path 657" d="M729.224,454.51s.226,8.336,1.352,9.462-.676,2.478-.676,2.478l-4.506-1.132s1.132,7.434-3.6,6.534c0,0,3.154,2.928,6.308,3.38s2.928-.676,2.928-.676l4.73-5.632Z" transform="translate(-529.832 -332.693)" fill="#d6dbe6"/>
    <path id="Path_658" data-name="Path 658" d="M702.826,491.193l4.571-1-.611-2.107-2.829-1.131-3.677,1.7Z" transform="translate(-502.187 -349.207)" fill="#d6dbe6"/>
    <path id="Path_659" data-name="Path 659" d="M280.78,151.046a19.145,19.145,0,0,0,3.841,11.536c.252.337.515.662.789.982.147.173.3.342.455.509q.116.13.238.255a18.863,18.863,0,0,0,2.054,1.864l.051.037a19.155,19.155,0,0,0,5.7,3.061l.257.082c.158.054.323.1.484.147l.065.02c.082.023.164.048.249.068a19.153,19.153,0,0,0,5.044.67c.283,0,.58,0,.868-.02a19.021,19.021,0,0,0,4.461-.73h.028c.269-.079.535-.161.8-.252h.028l.24-.085a18.649,18.649,0,0,0,2.659-1.177l.054-.028.283-.156a19.19,19.19,0,0,0,3.491-2.512l.093-.088a17.982,17.982,0,0,0,1.643-1.7l.059-.071c.048-.054.093-.108.139-.164.124-.147.243-.3.362-.453a19.236,19.236,0,1,0-34.432-11.8Z" transform="translate(-213.574 -101.28)" fill="#c0bccf"/>
    <path id="Path_660" data-name="Path 660" d="M297.218,168.115s4.172-.354,6.085-3.007c1.864-2.583,3.131-2.614,3.194-2.614h0c.048-.345.082-.673.1-.979v-.042a.566.566,0,0,1-.263.116c-.373.057-.7-.3-.888-.673a5.256,5.256,0,0,0-.566-1.115c-.461-.532-1.216-.535-1.765-.939a2.427,2.427,0,0,1-.849-1.618,4.453,4.453,0,0,1-.034-.707,7.829,7.829,0,0,1,.119-1.508,6.211,6.211,0,0,1,.888-2.634c.523-.738,1.547-.9,2.057-1.6,2.385-3.27,4.085-2.232,6.136-3.329a3.286,3.286,0,0,1,1.313-.478,3.432,3.432,0,0,1,2.221,1.1,6.342,6.342,0,0,1,1.132,1.132,6.139,6.139,0,0,1,.894,3.434,5.142,5.142,0,0,1-.13,1.344c-.164.651-.608.608-1.095.461a5.878,5.878,0,0,1-2,7.377v.3a.514.514,0,0,0,0,.065,13.393,13.393,0,0,0,.045,1.352c.048.025,4.622,2.619,5.14,3.85a5.586,5.586,0,0,0,2.436,2.122s2.107,1.131,3.112,4.684l-.059.071a18.154,18.154,0,0,1-1.643,1.731l-.093.09a19.2,19.2,0,0,1-3.491,2.546c-.091.054-.184.107-.283.158l-.054.028a18.493,18.493,0,0,1-2.659,1.2l-.24.088h-.028c-.263.093-.529.175-.8.255h-.028a18.732,18.732,0,0,1-4.461.741c-.283.014-.566.02-.868.02a18.856,18.856,0,0,1-5.03-.653c-.085-.02-.167-.045-.249-.068l-.065-.02c-.161-.045-.325-.1-.484-.15l-.257-.082a19.075,19.075,0,0,1-5.706-3.115l-.051-.037a18.987,18.987,0,0,1-2.054-1.9q-.122-.124-.238-.26c-.156-.17-.308-.342-.455-.518-.283-.325-.537-.656-.789-1C295.933,167.533,297.218,168.115,297.218,168.115Z" transform="translate(-223.356 -112.164)" fill="url(#linear-gradient-6)"/>
    <path id="Path_661" data-name="Path 661" d="M337.218,196.591,343.3,191.9s-4.076.874-3.96-5.641a.526.526,0,0,1,0-.065,16.667,16.667,0,0,1,.141-1.943c1.044-8.693-7.3-1.044-7.3-1.044a12.444,12.444,0,0,1,0,2.314v.062a16.164,16.164,0,0,1-1.737,6.141C328.18,196.068,337.218,196.591,337.218,196.591Z" transform="translate(-248.929 -135.904)" fill="#fdc2cc"/>
    <path id="Path_662" data-name="Path 662" d="M338.274,184.311c1.032,1,1.663,2.829,3.216,2.829a5.7,5.7,0,0,0,3.16-.948,16.673,16.673,0,0,1,.141-1.943c1.044-8.693-7.3-1.044-7.3-1.044S338.384,182.9,338.274,184.311Z" transform="translate(-254.242 -135.904)" opacity="0.1"/>
    <circle id="Ellipse_174" data-name="Ellipse 174" cx="5.737" cy="5.737" r="5.737" transform="translate(81.511 39.48)" fill="#fdc2cc"/>
    <path id="Path_663" data-name="Path 663" d="M335.926,152.192a6.3,6.3,0,0,0-1.131-1.109A3.431,3.431,0,0,0,332.574,150a3.324,3.324,0,0,0-1.313.47c-2.051,1.081-3.751.059-6.136,3.273-.509.687-1.53.849-2.057,1.57a6.018,6.018,0,0,0-.888,2.591,6.355,6.355,0,0,0-.088,1.9,2.373,2.373,0,0,0,.849,1.59c.549.4,1.3.4,1.765.925a5.131,5.131,0,0,1,.566,1.095c.187.368.515.716.888.662a.916.916,0,0,0,.651-.849,5.216,5.216,0,0,0-.071-1.208,2.89,2.89,0,0,1,.441-2.037c.283-.371.707-.591.987-.967.673-.908.368-2.433,1.106-3.276a1.751,1.751,0,0,1,1.7-.472,7.234,7.234,0,0,1,1.7.73,12.593,12.593,0,0,0,2.322.9c.673.184,1.454.625,1.683-.283A5.979,5.979,0,0,0,335.926,152.192Z" transform="translate(-243.176 -114.321)" opacity="0.1"/>
    <path id="Path_664" data-name="Path 664" d="M335.926,151.192a6.3,6.3,0,0,0-1.131-1.109A3.431,3.431,0,0,0,332.574,149a3.324,3.324,0,0,0-1.313.47c-2.051,1.081-3.751.059-6.136,3.273-.509.687-1.53.849-2.057,1.57a6.018,6.018,0,0,0-.888,2.591,6.355,6.355,0,0,0-.088,1.9,2.373,2.373,0,0,0,.849,1.59c.549.4,1.3.4,1.765.925a5.132,5.132,0,0,1,.566,1.095c.187.368.515.716.888.662a.916.916,0,0,0,.651-.849,5.215,5.215,0,0,0-.071-1.208,2.89,2.89,0,0,1,.441-2.037c.283-.371.707-.591.987-.967.673-.908.368-2.433,1.106-3.276a1.751,1.751,0,0,1,1.7-.472,7.233,7.233,0,0,1,1.7.73,12.6,12.6,0,0,0,2.322.9c.673.184,1.454.625,1.683-.283A5.979,5.979,0,0,0,335.926,151.192Z" transform="translate(-243.176 -113.604)" fill="#865a61"/>
    <path id="Path_665" data-name="Path 665" d="M327.406,220.883l-.113,4.342a19.151,19.151,0,0,0,5.044.67c.283,0,.58,0,.868-.02a19.024,19.024,0,0,0,4.461-.73h.028c.269-.079.535-.161.8-.252h.028l.24-.085a18.651,18.651,0,0,0,2.659-1.177l.054-.028.283-.156-.438-5.853.7-4.014-3.824-2.605a6.736,6.736,0,0,1-.718.871,4.809,4.809,0,0,1-1.307.967c-2.744,1.352-5.867-.8-7.42-2.127l-.354-.314c-.4-.365-.631-.614-.631-.614l-1.912,2.953Z" transform="translate(-245.895 -157.177)" opacity="0.1"/>
    <path id="Path_666" data-name="Path 666" d="M327.406,221.883l-.113,4.342a19.153,19.153,0,0,0,5.044.67c.283,0,.58,0,.868-.02a19.022,19.022,0,0,0,4.461-.73h.028c.269-.079.535-.161.8-.252h.028l.24-.085a18.653,18.653,0,0,0,2.659-1.177l.054-.028.283-.156-.438-5.853.7-4.014-3.824-2.605a6.733,6.733,0,0,1-.719.871,4.809,4.809,0,0,1-1.307.967c-2.744,1.352-5.867-.8-7.42-2.127l-.354-.314c-.4-.365-.631-.614-.631-.614l-1.912,2.953Z" transform="translate(-245.895 -157.894)" fill="#53526b"/>
    <path id="Path_667" data-name="Path 667" d="M294.36,213.537c.252.337.515.662.789.982.147.173.3.342.455.509q.116.13.238.255a18.878,18.878,0,0,0,2.054,1.864l.051.037a19.154,19.154,0,0,0,5.7,3.061l.257.082c.158.054.323.1.484.147l.065.02c.082.023.164.048.249.068a19.154,19.154,0,0,0,5.044.67c.283,0,.58,0,.868-.02.221-3.61.283-6.506-.062-7.25a11.664,11.664,0,0,0-.7-1.25c-1.4-2.246-3.96-5.624-3.822-6.051a4.428,4.428,0,0,0,.116-.636c.15-1.115.3-3.154.3-3.154h0c-.062,0-1.33.031-3.194,2.571-1.912,2.608-6.085,2.956-6.085,2.956S295.89,207.832,294.36,213.537Z" transform="translate(-223.313 -152.236)" fill="#555388"/>
    <path id="Path_668" data-name="Path 668" d="M363.05,219.269s.209,1.666.484,3.658h.028l.24-.085a18.648,18.648,0,0,0,2.659-1.177l.054-.028.283-.156a19.187,19.187,0,0,0,3.491-2.512l.093-.088a17.971,17.971,0,0,0,1.644-1.7l.059-.071c-1.01-3.5-3.112-4.608-3.112-4.608a5.556,5.556,0,0,1-2.436-2.088c-.523-1.216-5.143-3.788-5.143-3.788v.02c0,.218-.074,2.212-.184,4.218-.071,1.3-.158,2.614-.26,3.445a4.024,4.024,0,0,1-.147.8C360.444,215.968,363.05,219.269,363.05,219.269Z" transform="translate(-270.936 -154.933)" fill="#555388"/>
  </g>
</svg>
