<svg xmlns="http://www.w3.org/2000/svg" xmlns:xlink="http://www.w3.org/1999/xlink" width="321" height="246" viewBox="0 0 321 246">
  <defs>
    <clipPath id="clip-path">
      <rect id="Rectangle_169" data-name="Rectangle 169" width="321" height="246" transform="translate(32 172)" fill="#bce0fd"/>
    </clipPath>
  </defs>
  <g id="Mask_Group_7" data-name="Mask Group 7" transform="translate(-32 -172)" clip-path="url(#clip-path)">
    <g id="verify_code" data-name="verify code" transform="translate(32 190.293)">
      <path id="Path_311" data-name="Path 311" d="M241.415,164l2.752-.516c.264-.05.526-.111.79-.163-8.973-6.034-12.89-18-9.434-28.809s13.365-17.586,23.861-16.315l-3.608,9.3,8.547-8.085a.365.365,0,0,1,.058.021c11.771,4.491,17.953,18.47,13.806,31.223-.143.441-.313.862-.477,1.288a26.985,26.985,0,0,0,6.616-4.8c3.822-3.967,5.916-9.442,8.256-16.187,4.636-13.366,9.1-26.926,13.384-40.515-9.764-5.724-14.24-18.286-10.56-29.632.23-.707.5-1.387.777-2.055.07-.167.142-.333.215-.5.286-.641.589-1.268.921-1.871.054-.1.115-.191.17-.289q.433-.762.914-1.479c.119-.179.238-.358.362-.534.363-.515.739-1.015,1.136-1.493.133-.16.273-.309.409-.465q.457-.523.939-1.013c.169-.172.337-.346.511-.512.045-.043.086-.089.131-.131l.006.01a21.265,21.265,0,0,1,28.891-.7l-4.695,12.1,8.45-7.989a25.989,25.989,0,0,1,.835,28.831l.024.008c-.092.147-.2.281-.292.426q-.267.406-.547.8c-.24.335-.489.659-.744.978-.192.241-.382.484-.582.716-.293.339-.6.66-.908.979-.18.186-.352.382-.538.561q-.729.705-1.508,1.338c-.182.148-.374.278-.56.42-.365.278-.731.552-1.11.805-.235.157-.476.3-.716.449-.347.214-.7.422-1.054.616-.253.137-.508.268-.765.395-.366.181-.737.349-1.112.508-.252.107-.5.215-.757.313-.421.161-.848.3-1.277.434-.217.068-.43.145-.649.205-.644.178-1.3.33-1.955.446-.124.022-.25.03-.375.05-.546.086-1.1.156-1.649.2-.238.018-.477.021-.716.031-.448.019-.9.028-1.346.018-.263-.006-.525-.021-.789-.037q-.658-.04-1.317-.124c-.26-.033-.519-.065-.779-.108-.471-.077-.941-.179-1.411-.289-.031-.007-.062-.012-.093-.019q-2.713,8.6-5.526,17.162a21.514,21.514,0,0,1,16.954-6.19,22.131,22.131,0,0,1,15.789,9.114l-7.812,9.36,10.577-4.574a26.265,26.265,0,0,1,.9,18.636,24.8,24.8,0,0,1-2.87,6.016c-5.348,8.194-14.771,12.021-23.773,9.653s-15.756-10.45-17.04-20.389c-.2.575-.391,1.158-.59,1.732-2.065,5.951-4.634,13.356-9.793,18.71-3.5,3.629-7.8,5.931-11.928,7.878q-4.032,1.9-8.172,3.515a21.447,21.447,0,0,1-10.112,3.491,129.939,129.939,0,0,1-13.214,3.249l-2.775.518c-2.494.463-5.051.939-7.589,1.488.365.117.731.23,1.095.368,9.279,3.538,15.381,13.171,15.089,23.824l-17.4,5.785,15.742,2.708a23.085,23.085,0,0,1-16.989,14.884,21.61,21.61,0,0,1-20.679-7.641q.24.87.481,1.737c.32,1.149.637,2.292.941,3.423,4.142,15.42,2.36,27.55-5.021,34.154l-4-5.252c7.183-6.428,4.954-19.674,2.988-27-.3-1.111-.611-2.234-.925-3.362-2.7-9.71-5.757-20.716-1.8-30.83C210.384,169.757,227.59,166.565,241.415,164Z" transform="translate(-23.032 -44.459)" fill="#f2f2f2"/>
      <path id="Path_312" data-name="Path 312" d="M239.53,247.4H117.638c-8.324,0-15.071-7.31-15.071-16.328v-60.5a6.736,6.736,0,0,1,1.863-4.695l64.591-66.33a13.138,13.138,0,0,1,19.127,0l61.584,63.242a17.607,17.607,0,0,1,4.87,12.271v56.011c0,9.018-6.748,16.328-15.072,16.328Z" transform="translate(-26.246 -38.436)" fill="#3f3d56"/>
      <path id="Path_313" data-name="Path 313" d="M73.942,119.064H224.711v65.974c0,5.445-4.075,9.859-9.1,9.859H83.043c-5.026,0-9.1-4.414-9.1-9.859V119.064Z" transform="translate(2.378 14.065)" opacity="0.1"/>
      <path id="Path_314" data-name="Path 314" d="M102.413,159.989" transform="translate(-26.251 -30.805)" fill="none" stroke="#3f3d56" stroke-miterlimit="10" stroke-width="0.307"/>
      <rect id="Rectangle_186" data-name="Rectangle 186" width="112.126" height="121.472" rx="8.034" transform="translate(96.116 81.144)" fill="#9676ff"/>
      <path id="Path_315" data-name="Path 315" d="M205.248,121.5v66.758H93.122V121.5l56.063,29.356Z" transform="translate(2.994 14.354)" opacity="0.1"/>
      <path id="Path_316" data-name="Path 316" d="M178.431,199.595,106.6,161.981a2.721,2.721,0,0,0-2.817.168,3.226,3.226,0,0,0-1.366,2.675V229.54c0,5.445,4.075,9.859,9.1,9.859H245.347c5.026,0,9.1-4.414,9.1-9.859V165.932a3.937,3.937,0,0,0-1.667-3.264,3.321,3.321,0,0,0-3.438-.205Z" transform="translate(-26.251 -30.607)" fill="#3f3d56"/>
      <rect id="Rectangle_187" data-name="Rectangle 187" width="31.357" height="4.804" transform="translate(105.777 92.296)" fill="#f2f2f2"/>
      <rect id="Rectangle_188" data-name="Rectangle 188" width="93.122" height="2.745" transform="translate(103.243 109.796)" fill="#f2f2f2"/>
      <rect id="Rectangle_189" data-name="Rectangle 189" width="93.122" height="2.745" transform="translate(103.243 119.061)" fill="#f2f2f2"/>
      <rect id="Rectangle_190" data-name="Rectangle 190" width="93.122" height="2.745" transform="translate(103.243 128.326)" fill="#f2f2f2"/>
      <line id="Line_1" data-name="Line 1" x2="260.994" transform="translate(19.307 208.792)" fill="none" stroke="#3f3d56" stroke-miterlimit="10" stroke-width="0.307"/>
      <path id="Path_317" data-name="Path 317" d="M28.624,193.4c0,20.232,11.716,36.6,26.194,36.6" transform="translate(-28.624 -26.857)" fill="#46455b"/>
      <path id="Path_318" data-name="Path 318" d="M54,230.042c0-20.459,13.074-37.014,29.231-37.014" transform="translate(-27.808 -26.901)" fill="#9676ff"/>
      <path id="Path_319" data-name="Path 319" d="M37.819,195.035c0,19.218,7.471,34.769,16.7,34.769" transform="translate(-28.328 -26.663)" fill="#9676ff"/>
      <path id="Path_320" data-name="Path 320" d="M54,231.128c0-26.142,15.112-47.3,33.787-47.3" transform="translate(-27.808 -27.987)" fill="#46455b"/>
      <path id="Path_321" data-name="Path 321" d="M48.663,226.59s3.715-.124,4.834-.988,5.714-1.895,5.992-.51,5.583,6.889,1.389,6.926-9.745-.708-10.862-1.445S48.663,226.59,48.663,226.59Z" transform="translate(-27.979 -23.191)" fill="#a8a8a8"/>
      <path id="Path_322" data-name="Path 322" d="M60.953,231.307c-4.194.037-9.745-.708-10.862-1.445-.851-.562-1.19-2.577-1.3-3.506l-.124.005s.235,3.246,1.353,3.983,6.668,1.482,10.862,1.445c1.211-.011,1.629-.477,1.606-1.168C62.315,231.038,61.854,231.3,60.953,231.307Z" transform="translate(-27.979 -22.962)" opacity="0.2"/>
      <path id="Path_323" data-name="Path 323" d="M249.552,95.011c-.19,1.837-1.484,3.317-1.963,5.092-.721,2.671.526,5.537,2.232,7.617a15.124,15.124,0,0,0,10.843,5.578,4.288,4.288,0,0,0,1.793-.212,3.842,3.842,0,0,0,1.364-1.01,9.811,9.811,0,0,0,2.25-5.285,30.47,30.47,0,0,0,.061-5.907,3.583,3.583,0,0,0-.2-1.191,3.018,3.018,0,0,0-.708-.943,16.616,16.616,0,0,0-3.038-2.39,3.535,3.535,0,0,1-1.273-1.055,3.605,3.605,0,0,1-.393-1.263l-.336-1.853a3.84,3.84,0,0,0-.493-1.5,3.259,3.259,0,0,0-2.721-1.027l-3.644-.155a16.221,16.221,0,0,0-3.734-.159c-1.033.225-.69,1.257-.5,2.2A17.113,17.113,0,0,1,249.552,95.011Z" transform="translate(-21.59 -39.164)" fill="#a0616a"/>
      <path id="Path_324" data-name="Path 324" d="M249.552,95.011c-.19,1.837-1.484,3.317-1.963,5.092-.721,2.671.526,5.537,2.232,7.617a15.124,15.124,0,0,0,10.843,5.578,4.288,4.288,0,0,0,1.793-.212,3.842,3.842,0,0,0,1.364-1.01,9.811,9.811,0,0,0,2.25-5.285,30.47,30.47,0,0,0,.061-5.907,3.583,3.583,0,0,0-.2-1.191,3.018,3.018,0,0,0-.708-.943,16.616,16.616,0,0,0-3.038-2.39,3.535,3.535,0,0,1-1.273-1.055,3.605,3.605,0,0,1-.393-1.263l-.336-1.853a3.84,3.84,0,0,0-.493-1.5,3.259,3.259,0,0,0-2.721-1.027l-3.644-.155a16.221,16.221,0,0,0-3.734-.159c-1.033.225-.69,1.257-.5,2.2A17.113,17.113,0,0,1,249.552,95.011Z" transform="translate(-21.59 -39.164)" opacity="0.1"/>
      <path id="Path_325" data-name="Path 325" d="M272.535,169.325l-1.549,18.4c-.4,4.825-.816,9.669-1.609,14.432-.274,1.641-.595,3.274-.975,4.893-1.059,4.494-2.594,8.887-3.09,13.494-.016.133-.029.268-.042.4a12.6,12.6,0,0,1-.529,2.994c-.248.7-.628,1.345-.9,2.04a14,14,0,0,0-.67,4.432,16.743,16.743,0,0,0-6.073-2.249,4.432,4.432,0,0,1-2.879-1.119c-.777-.921-.691-2.33-.561-3.568q.614-5.763,1.226-11.52a32.314,32.314,0,0,1,.774-4.893c.141-.534.31-1.059.482-1.585.237-.723.477-1.446.657-2.189a28.4,28.4,0,0,0,.542-3.647c.42-3.864.926-7.72,1.369-11.582l.023-.2a128.166,128.166,0,0,0,1.025-17.63c-.021-.873-.055-1.746-.107-2.621-.073-1.268-.18-1.941.79-2.734a17.765,17.765,0,0,1,3.708-2.062c.66-.311,7.924-3.1,8.094-2.491a16.526,16.526,0,0,1,.532,4.017A48.381,48.381,0,0,1,272.535,169.325Z" transform="translate(-21.391 -30.777)" fill="#605d82"/>
      <path id="Path_326" data-name="Path 326" d="M269.3,199.232c-.274,1.641-.594,3.274-.975,4.893-1.059,4.494-2.594,8.887-3.09,13.494-.016.133-.029.268-.042.4-3.239-5.011-5.966-10.4-9.126-15.466.237-.723.477-1.446.657-2.189a28.385,28.385,0,0,0,.542-3.647c.42-3.864.926-7.72,1.369-11.582l.023-.2a12.666,12.666,0,0,0,.79,2.376c2.123,4.672,7.165,7.034,9.632,11.505Q269.191,199.024,269.3,199.232Z" transform="translate(-21.311 -27.857)" opacity="0.1"/>
      <path id="Path_327" data-name="Path 327" d="M243.425,163.382a93.879,93.879,0,0,0,1.213,11.162l1.14,7.636c.624,4.179,1.274,8.444,3.1,12.187a56.568,56.568,0,0,0,5.113,7.7c4.376,6.176,7.663,13.172,11.813,19.529,1.206,1.848,2.93,3.846,4.988,3.46,1.351-.253,2.332-1.472,3.394-2.411,1.252-1.108,2.761-1.918,3.746-3.306s1.178-3.7-.157-4.684a6.745,6.745,0,0,0-1.527-.677c-2.069-.852-3.408-3.041-4.26-5.254s-1.368-4.593-2.5-6.651c-2.466-4.472-7.51-6.833-9.633-11.507-1.189-2.618-1.3-5.635-1.393-8.551l-.232-7.433a5.852,5.852,0,0,1,.26-2.4c.812-1.979,3.264-2.163,5.249-2.414a16.988,16.988,0,0,0,6.433-2.2,6.922,6.922,0,0,0,2.872-2.764,9.55,9.55,0,0,0,.7-3.745l.687-13.471a9.109,9.109,0,0,0-.264-3.444c-.947-2.728-4.127-3.62-6.814-3.489-5,.242-9.618,2.573-14.334,4.147a34.209,34.209,0,0,1-3.553,1,26.507,26.507,0,0,0-3.349.5c-1.8.656-1.749,4.908-2,6.673a60.761,60.761,0,0,0-.686,10.4Z" transform="translate(-21.717 -33.091)" fill="#605d82"/>
      <path id="Path_328" data-name="Path 328" d="M269.312,217.562a3.6,3.6,0,0,1,.7,1.855,68.469,68.469,0,0,1,.99,11.218,1.962,1.962,0,0,0,.186,1.016,1.2,1.2,0,0,0,.487.424c1.275.658,2.754-.259,3.816-1.267a10.908,10.908,0,0,0,3.747-7.21,18.129,18.129,0,0,1,.071-2.187,9.494,9.494,0,0,1,1.254-2.93,25.8,25.8,0,0,0,2.073-5.035c.194-.66.322-1.491-.155-1.952a1.693,1.693,0,0,0-.567-.32l-5.758-2.316c-.5-.2-1.741,3.254-1.938,3.632a2.685,2.685,0,0,1-1.928,1.662c-.987.218-2.162-.095-3.083.439C267.649,215.5,268.43,216.6,269.312,217.562Z" transform="translate(-20.917 -25.031)" fill="#535070"/>
      <path id="Path_329" data-name="Path 329" d="M260.877,218.662a1.454,1.454,0,0,0-1.322-.927c-1.1-.2-2.4-.334-3.152.548-.709.828-.587,2.176-1.18,3.1-.188.294-.442.536-.6.847a3.427,3.427,0,0,0-.265,1.52c-.031,1.44-.061,2.882.031,4.318a6.4,6.4,0,0,0,.959,3.408c1.115,1.514,3.127,1.731,4.912,1.83l1.446.08a2.616,2.616,0,0,0,1.185-.118,2.061,2.061,0,0,0,1.022-1.218c.753-2.027-.439-4.21-1.174-6.245C261.89,223.47,262.042,220.873,260.877,218.662Z" transform="translate(-21.367 -23.998)" fill="#535070"/>
      <path id="Path_330" data-name="Path 330" d="M249.233,86.32a1.394,1.394,0,0,1,.081-.6c.212-.406.765-.3,1.182-.181,1.678.458,3.445.043,5.173.15s3.673,1.043,4.02,2.879a13.233,13.233,0,0,0,3.189-3.55,4.494,4.494,0,0,0,.832-2.6,5.088,5.088,0,0,0-2.1-3.2l-2.874-2.542a4.3,4.3,0,0,0-1.287-.886,5.931,5.931,0,0,0-2.089-.128c-2.092,0-4.322-1.03-6.183.006a6.9,6.9,0,0,0-1.926,1.9l-2.565,3.289a1.793,1.793,0,0,0-.41.753,3.6,3.6,0,0,0,.184,1.2c.121.735-.171,1.519.054,2.225.373,1.172,1.686,1.337,2.489,2.009.3.25.768,1.1,1.125,1.088C248.772,88.106,249.217,86.861,249.233,86.32Z" transform="translate(-21.69 -40.826)" fill="#3f3d56"/>
      <ellipse id="Ellipse_125" data-name="Ellipse 125" cx="8.214" cy="8.898" rx="8.214" ry="8.898" transform="translate(223.682 37.394)" fill="#a0616a"/>
      <path id="Path_331" data-name="Path 331" d="M255.775,104.289A4,4,0,0,0,251.9,101.4a1.1,1.1,0,0,1-.715-.1,1.056,1.056,0,0,1-.294-.4,16.269,16.269,0,0,1-1.2-3.067c-.131-.471-.31-1.026-.75-1.149a.982.982,0,0,0-.956.451,9.049,9.049,0,0,1-.683.93c-1.033,1-2.864.089-3.961,1.007-.179.15-.327.342-.515.478a2.311,2.311,0,0,1-.6.28,55.26,55.26,0,0,0-6.216,2.638c.729,4.758,1.477,9.6,3.186,14.053.814,2.119,1.735,4.2,2.387,6.379,1.443,4.84,1.507,10.018,1.524,15.1.011,3.481,0,7.036-1.044,10.33a10.385,10.385,0,0,0-.587,2.269,2.459,2.459,0,0,0,.735,2.115,2.392,2.392,0,0,0,1.134.432,13.633,13.633,0,0,0,5.391-.678,138.234,138.234,0,0,1,14.441-2.556l8.108-1.141a4.421,4.421,0,0,0,1.678-.47c1.484-.88,1.625-3.3.7-4.835-.442-.737-1.065-1.341-1.436-2.122a2.1,2.1,0,0,1,.236-2.415c1.3-1.1.912-3.142.974-4.928q.26-7.49-.07-14.986-.1-1.552-.046-3.108a29.587,29.587,0,0,1,.894-5.187l2.464-10.51a5.037,5.037,0,0,0-3.043-2.118c-1.167-.317-2.383-.411-3.533-.8-2.355-.791-4.452-2.8-6.912-2.61a1.177,1.177,0,0,0-.536.142c-.555.34-.467,1.207-.5,1.9a5.279,5.279,0,0,1-2.258,3.7,40.185,40.185,0,0,0-3.5,2.566A1.74,1.74,0,0,0,255.775,104.289Z" transform="translate(-21.955 -38.523)" fill="#3f3d56"/>
      <path id="Path_332" data-name="Path 332" d="M223.764,112.537a9.445,9.445,0,0,1-1.728.963,5.508,5.508,0,0,0-1.655.87,2.78,2.78,0,0,0-.576.77,3.673,3.673,0,0,0,.066,3.485,3.1,3.1,0,0,0,2.85,1.618,5.991,5.991,0,0,0,2.156-.7l5.793-2.72a4.616,4.616,0,0,0,2.5-2.043.508.508,0,0,0,.056-.324.52.52,0,0,0-.238-.271,13.442,13.442,0,0,1-3.373-3.446c-.238-.35-.529-1.175-.864-1.385C227.528,108.595,224.745,111.847,223.764,112.537Z" transform="translate(-22.489 -36.802)" fill="#a0616a"/>
      <path id="Path_333" data-name="Path 333" d="M284.061,110.193l2.136,2.643c.459.567.918,1.136,1.336,1.739a20.91,20.91,0,0,1,2.446,4.992,9.359,9.359,0,0,1,.687,4.127,10.764,10.764,0,0,1-.534,2.1,27.377,27.377,0,0,1-1.451,3.787,21.778,21.778,0,0,1-1.633,2.651,60.733,60.733,0,0,1-5.414,6.709,7.937,7.937,0,0,0-1.354,3.108,12.974,12.974,0,0,1-3.33,4.915,9.515,9.515,0,0,1-1.43,1.333,4.4,4.4,0,0,1-2.6.8,2.669,2.669,0,0,1-1.172-.263,3.335,3.335,0,0,1-1.489-2.734,6.247,6.247,0,0,1,.449-2.924c1.226-2.941,4.373-4.216,6.6-6.362a22.969,22.969,0,0,0,3.286-4.4,15.591,15.591,0,0,0,1.662-3.156c.5-1.436.3-3.136.738-4.6.183-.617.51-1.174.707-1.786a2.238,2.238,0,0,0-.1-1.868,2.528,2.528,0,0,0-.967-.767c-1.421-.781-3.013-1.787-3.285-3.488a3.974,3.974,0,0,1,.636-2.664,10.774,10.774,0,0,1,1.792-2.035C282.394,111.458,283.439,110.789,284.061,110.193Z" transform="translate(-20.855 -36.69)" fill="#a0616a"/>
      <path id="Path_334" data-name="Path 334" d="M222.606,115.736a4.231,4.231,0,0,0-1.61-2.078,2.757,2.757,0,0,0-2.34-.011,8.7,8.7,0,0,0-2.053,1.345l-1.841,1.47a4.694,4.694,0,0,0-1.093,1.093,4.864,4.864,0,0,0-.569,1.692,13.073,13.073,0,0,0-.289,4.185,12.237,12.237,0,0,0,2.921,5.925c.861,1.07,1.924,2.149,3.233,2.2a1.453,1.453,0,0,0,1.429-.779,2.085,2.085,0,0,0,.128-.694,16.506,16.506,0,0,0-1.653-7.244,4.934,4.934,0,0,1-.533-1.947.568.568,0,0,1,.079-.326.494.494,0,0,1,.314-.166c1.322-.283,3.6.829,4.527-.761C223.857,118.605,223.033,116.671,222.606,115.736Z" transform="translate(-22.703 -36.312)" fill="#a0616a"/>
      <path id="Path_335" data-name="Path 335" d="M248.816,83.816a1.393,1.393,0,0,1,.081-.6c.212-.406.765-.3,1.182-.181,1.678.458,3.445.043,5.173.15s3.673,1.043,4.02,2.879a13.233,13.233,0,0,0,3.189-3.55,4.494,4.494,0,0,0,.832-2.6,5.088,5.088,0,0,0-2.1-3.2l-2.874-2.542a4.3,4.3,0,0,0-1.287-.886,5.931,5.931,0,0,0-2.089-.128c-2.092,0-4.322-1.03-6.183.006a6.9,6.9,0,0,0-1.926,1.9l-2.565,3.289a1.793,1.793,0,0,0-.41.753,3.6,3.6,0,0,0,.184,1.2c.121.735-.171,1.519.054,2.225.373,1.172,1.686,1.337,2.489,2.009.3.25.768,1.1,1.125,1.088C248.355,85.6,248.8,84.357,248.816,83.816Z" transform="translate(-21.703 -41.122)" fill="#3f3d56"/>
      <path id="Path_336" data-name="Path 336" d="M231.9,104.761a3.462,3.462,0,0,0-.86.867c-.3.493-.362,1.116-.621,1.637-.554,1.114-1.848,1.511-2.656,2.425a.925.925,0,0,0-.255.474,1.114,1.114,0,0,0,.217.683l3.895,6.633c1.3.124,2.541-.756,3.838-.64a3.567,3.567,0,0,0,1.445.07,4.1,4.1,0,0,0,.927-.614c.774-.53,1.8-.592,2.454-1.291a3.86,3.86,0,0,0,.7-2.674,11.61,11.61,0,0,0-.232-2.46c-.573-2.546-2.371-4.5-3.5-6.756-.549-1.1-.847-1.741-2.008-.987S232.995,103.891,231.9,104.761Z" transform="translate(-22.229 -37.682)" fill="#3f3d56"/>
      <path id="Path_337" data-name="Path 337" d="M277.8,101.685a9.38,9.38,0,0,1,1.959,1.859c.593.829.929,1.843,1.5,2.691a29.2,29.2,0,0,0,1.931,2.215,17.411,17.411,0,0,1,2.226,3.929,57.494,57.494,0,0,1-5.038,6.169,1.621,1.621,0,0,1-.765.545,1.19,1.19,0,0,1-1.081-.478c-.281-.319-.479-.712-.747-1.043a3.743,3.743,0,0,0-2.381-1.248,15.1,15.1,0,0,0-2.7-.04,1,1,0,0,1-.576-.1,1.029,1.029,0,0,1-.314-.391c-1.054-1.944-.715-4.385-.343-6.6l.854-5.091a12.184,12.184,0,0,1,.711-2.829c.323-.749,1.046-2.018,1.935-1.794S277.043,101.1,277.8,101.685Z" transform="translate(-20.827 -37.96)" fill="#3f3d56"/>
      <ellipse id="Ellipse_126" data-name="Ellipse 126" cx="12.986" cy="14.094" rx="12.986" ry="14.094" transform="translate(87.723 68.962)" fill="#fff"/>
      <path id="Path_338" data-name="Path 338" d="M126.679,103.984c-8.572,0-15.52,7.528-15.52,16.814s6.949,16.814,15.52,16.814,15.52-7.528,15.52-16.814C142.174,111.523,135.24,104.011,126.679,103.984Zm-3.186,25.779-7.954-8.617,2.231-2.417,5.73,6.208,12.1-13.1,2.231,2.417-14.334,15.512Z" transform="translate(-25.97 -37.424)" fill="#57b894"/>
    </g>
  </g>
</svg>
