<svg xmlns="http://www.w3.org/2000/svg" xmlns:xlink="http://www.w3.org/1999/xlink" width="311" height="220" viewBox="0 0 311 220">
  <defs>
    <clipPath id="clip-path">
      <rect id="Rectangle_169" data-name="Rectangle 169" width="311" height="220" transform="translate(32 172)" fill="#bce0fd"/>
    </clipPath>
  </defs>
  <g id="Mask_Group_5" data-name="Mask Group 5" transform="translate(-32 -172)" clip-path="url(#clip-path)">
    <g id="Login" transform="translate(32 188.47)">
      <path id="Path_267" data-name="Path 267" d="M39.5,212.118,57.84,185.764,39.488,214.985l-.011,3q-1.962-.017-3.884-.128c-.006-.681,1.553-38.14,1.487-38.818.09-.026.141-3.543.177-3.7L18.1,146.541l19.183,26.073.057.771,1.138-29.1L22,114.478l16.6,24.69c.006-.4.786-60.153.793-60.521,0,.2.363,47.554.365,47.754l15.753-19.062L39.747,130.5l-.081,26.048,14.619-25.188c-18.244,36.733-14.207,23.879-14.673,43.5l21.235-35.073L39.594,179.91Z" transform="translate(-17.998 -36.594)" fill="#d0cde1"/>
      <path id="Path_268" data-name="Path 268" d="M320.1,215.7l7.644-10.982L320.1,216.89l0,1.249q-.818-.007-1.619-.053c0-.284.647-15.894.62-16.176.038-.011.059-1.476.074-1.541l-7.984-12,7.994,10.865.024.321.474-12.128-6.864-12.42,6.918,10.289c0-.165.327-25.067.331-25.221,0,.082.151,19.817.152,19.9l6.565-7.944-6.572,9.651-.034,10.855,6.092-10.5c-7.6,15.308-5.92,9.951-6.114,18.128L329,185.553l-8.857,16.721Z" transform="translate(-17.998 -36.594)" fill="#d0cde1"/>
      <ellipse id="Ellipse_67" data-name="Ellipse 67" cx="154.992" cy="6.072" rx="154.992" ry="6.072" transform="translate(0 174.915)" fill="#d0cde1"/>
      <rect id="Rectangle_172" data-name="Rectangle 172" width="176.968" height="105.507" transform="translate(53.206 71.721)" fill="#3f3d56"/>
      <path id="Path_269" data-name="Path 269" d="M115,108.315a42.32,42.32,0,0,1-42.31,41.631c-.5,0-.992-.009-1.486-.026v-41.6Z" transform="translate(-17.998 -36.594)" fill="#9676ff"/>
      <path id="Path_270" data-name="Path 270" d="M168.345,213.822H151.513a8.967,8.967,0,0,1,16.831,0Z" transform="translate(-17.998 -36.594)" fill="#9676ff"/>
      <path id="Path_271" data-name="Path 271" d="M248.172,159.248v35.538a17.79,17.79,0,0,1,0-35.538Z" transform="translate(-17.998 -36.594)" fill="#9676ff"/>
      <rect id="Rectangle_173" data-name="Rectangle 173" width="122.068" height="10.428" rx="5.214" transform="translate(80.809 110.06)" fill="#fff"/>
      <rect id="Rectangle_174" data-name="Rectangle 174" width="122.068" height="10.428" rx="5.214" transform="translate(80.809 130.609)" fill="#fff"/>
      <rect id="Rectangle_175" data-name="Rectangle 175" width="42.797" height="10.428" rx="5.214" transform="translate(160.08 151.158)" fill="#fff"/>
      <path id="Path_272" data-name="Path 272" d="M276.236,69.015a8.964,8.964,0,0,1,5.137,8.11c.27,6.218-1.352,23.52-1.352,23.52s5.948,8.651,1.352,11.084S276.236,102,276.236,102l-5.407-25.683S274.073,68.744,276.236,69.015Z" transform="translate(-17.998 -36.594)" fill="#a0616a"/>
      <path id="Path_273" data-name="Path 273" d="M226.492,89.02s-11.625,7.57-12.166,1.622,3.514-29.2,3.514-29.2.541-10,6.218-7.57-1.622,10.814-1.622,10.814l.811,18.924,5.407-.27Z" transform="translate(-17.998 -36.594)" fill="#a0616a"/>
      <path id="Path_274" data-name="Path 274" d="M245.146,96.049S209.46,82.8,211.353,98.212s11.084,34.875,11.084,34.875l3.244,5.137h6.759l-4.326-27.846s15.41,8.651,20.006,7.3c0,0,5.948,39.741,8.11,42.715s5.948,38.93,5.948,38.93l3.515,4.326h6.759V142.82s11.625-37.849,2.7-39.741S245.146,96.049,245.146,96.049Z" transform="translate(-17.998 -36.594)" fill="#2f2e41"/>
      <path id="Path_275" data-name="Path 275" d="M224.87,134.709s-1.622-2.974-4.326,0-9.192,6.488-9.192,6.488-14.058,3.244-2.7,5.948,12.706,0,12.706,0,1.892.541,3.515,1.081,12.166-1.352,12.166-2.974S233.456,133.936,232,135.4,224.87,134.709,224.87,134.709Z" transform="translate(-17.998 -36.594)" fill="#2f2e41"/>
      <path id="Path_276" data-name="Path 276" d="M266.21,200.972s-3.986-3.283-4.924-2.345-5.862,7.269-5.862,7.269-13.131,10.083-1.172,11.724,11.255-2.814,11.255-2.814h3.752c.469,0,6.8-2.814,6.565-3.986s-3.048-10.733-3.986-10.056S266.21,200.972,266.21,200.972Z" transform="translate(-17.998 -36.594)" fill="#2f2e41"/>
      <circle id="Ellipse_68" data-name="Ellipse 68" cx="9.192" cy="9.192" r="9.192" transform="translate(202.817 3.764)" fill="#a0616a"/>
      <path id="Path_277" data-name="Path 277" d="M236.495,48.468s7.029,5.948,11.9,5.948S241.361,65.5,241.361,65.5l-10.544-9.462Z" transform="translate(-17.998 -36.594)" fill="#a0616a"/>
      <path id="Path_278" data-name="Path 278" d="M239.2,65.5l-.211-2.13s5.347-9.5,6.969-10.306a6.711,6.711,0,0,1,2.7-.811s5.407-5.677,11.355-2.7,20.006,21.9,20.006,21.9-10,.811-8.651,8.651c0,0,10,25.683,7.3,25.953s-10.814-1.622-19.195,2.163-12.166,1.352-12.166,1.352l-4.326-14.058s-8.11-4.6-7.84-8.651l-11.76,5.272,1.081-10,7.164-8.246S230.277,72.8,239.2,65.5Z" transform="translate(-17.998 -36.594)" fill="#575a89"/>
      <path id="Path_279" data-name="Path 279" d="M221.551,50.543a3.394,3.394,0,0,1-1.335.909,1.164,1.164,0,0,1-1.392-.536l.389-.506-1.165-.724.508-.6-.938-1.019.741-.588-1.41-1.009c1.828-2.983,3.8-6,6.69-7.98s6.918-2.68,9.874-.81A10.8,10.8,0,0,1,237,41.793c1.748,3.207,3.29,6.333,3.517,9.978-1.1-1.07-2.7-1.672-3.8-2.742a8.23,8.23,0,0,0-1.639-1.342,13.716,13.716,0,0,0-3.809-1,5.723,5.723,0,0,1-2.6-1.43c-.973-.829-1.013-.508-2,.425Q224.114,48.116,221.551,50.543Z" transform="translate(-17.998 -36.594)" fill="#2f2e41"/>
    </g>
  </g>
</svg>
